<?xml version="1.0" encoding="UTF-8" standalone="no"?>
<!DOCTYPE svg PUBLIC "-//W3C//DTD SVG 1.1//EN"
 "http://www.w3.org/Graphics/SVG/1.1/DTD/svg11.dtd">
<!-- Generated by graphviz version 14.0.4 (20251115.1723)
 -->
<!-- Title: DeploymentInfrastructure Pages: 1 -->
<svg width="2712pt" height="1430pt"
 viewBox="0.00 0.00 2712.00 1430.00" xmlns="http://www.w3.org/2000/svg" xmlns:xlink="http://www.w3.org/1999/xlink">
<g id="graph0" class="graph" transform="scale(1 1) rotate(0) translate(4 1425.98)">
<title>DeploymentInfrastructure</title>
<polygon fill="white" stroke="none" points="-4,4 -4,-1425.98 2708,-1425.98 2708,4 -4,4"/>
<g id="clust1" class="cluster">
<title>cluster_users</title>
<polygon fill="#e6f7ff" stroke="black" points="474,-1339.73 474,-1413.98 614,-1413.98 614,-1339.73 474,-1339.73"/>
<text xml:space="preserve" text-anchor="middle" x="544" y="-1398.58" font-family="Arial Bold" font-size="12.00">End Users</text>
</g>
<g id="clust2" class="cluster">
<title>cluster_cloudflare</title>
<polygon fill="#ffe6cc" stroke="black" points="8,-973.73 8,-1248.98 612,-1248.98 612,-973.73 8,-973.73"/>
<text xml:space="preserve" text-anchor="middle" x="310" y="-1233.58" font-family="Arial Bold" font-size="12.00">Cloudflare Edge Network</text>
</g>
<g id="clust3" class="cluster">
<title>cluster_cf_features</title>
</g>
<g id="clust4" class="cluster">
<title>cluster_raspberry_pi</title>
<polygon fill="#ffe6e6" stroke="black" points="620,-181 620,-1088.48 2012,-1088.48 2012,-181 620,-181"/>
<text xml:space="preserve" text-anchor="middle" x="1316" y="-1073.08" font-family="Arial Bold" font-size="12.00">Raspberry Pi 5 (8GB)</text>
<text xml:space="preserve" text-anchor="middle" x="1316" y="-1058.83" font-family="Arial Bold" font-size="12.00">Local Network (192.168.x.x)</text>
<text xml:space="preserve" text-anchor="middle" x="1316" y="-1044.58" font-family="Arial Bold" font-size="12.00">No Port Forwarding Required</text>
</g>
<g id="clust5" class="cluster">
<title>cluster_docker</title>
<polygon fill="#fff0f0" stroke="black" points="628,-195 628,-878.73 1734,-878.73 1734,-195 628,-195"/>
<text xml:space="preserve" text-anchor="middle" x="1181" y="-864.28" font-family="Arial Bold" font-size="11.00">Docker Engine 24.0+</text>
</g>
<g id="clust6" class="cluster">
<title>cluster_nginx</title>
<polygon fill="white" stroke="black" points="636,-570.73 636,-849.23 780,-849.23 780,-570.73 636,-570.73"/>
<text xml:space="preserve" text-anchor="middle" x="708" y="-834.78" font-family="Arial Bold" font-size="11.00">gymms_nginx Container</text>
</g>
<g id="clust7" class="cluster">
<title>cluster_web</title>
<polygon fill="white" stroke="black" points="788,-388.61 788,-664.23 924,-664.23 924,-388.61 788,-388.61"/>
<text xml:space="preserve" text-anchor="middle" x="856" y="-649.78" font-family="Arial Bold" font-size="11.00">gymms_web Container</text>
</g>
<g id="clust8" class="cluster">
<title>cluster_db</title>
<polygon fill="white" stroke="black" points="1422,-382.61 1422,-672.48 1562,-672.48 1562,-382.61 1422,-382.61"/>
<text xml:space="preserve" text-anchor="middle" x="1492" y="-658.03" font-family="Arial Bold" font-size="11.00">gymms_db Container</text>
</g>
<g id="clust9" class="cluster">
<title>cluster_volumes</title>
<polygon fill="#fffacd" stroke="black" points="914,-203 914,-276.5 1498,-276.5 1498,-203 914,-203"/>
<text xml:space="preserve" text-anchor="middle" x="1206" y="-262.05" font-family="Arial Bold" font-size="11.00">Docker Volumes</text>
</g>
<g id="clust10" class="cluster">
<title>cluster_monitoring</title>
<polygon fill="#e6ffe6" stroke="black" points="2020,-14 2020,-466.86 2288,-466.86 2288,-14 2020,-14"/>
<text xml:space="preserve" text-anchor="middle" x="2154" y="-451.46" font-family="Arial Bold" font-size="12.00">Monitoring Stack (Optional)</text>
</g>
<g id="clust11" class="cluster">
<title>cluster_legend</title>
<polygon fill="none" stroke="black" points="2564,-203 2564,-1410.98 2696,-1410.98 2696,-203 2564,-203"/>
<text xml:space="preserve" text-anchor="middle" x="2630" y="-1397.48" font-family="Times New Roman,serif" font-size="10.00">Legend</text>
</g>
<!-- Users -->
<g id="node1" class="node">
<title>Users</title>
<path fill="white" stroke="black" d="M594.38,-1383.73C594.38,-1383.73 493.62,-1383.73 493.62,-1383.73 487.62,-1383.73 481.62,-1377.73 481.62,-1371.73 481.62,-1371.73 481.62,-1359.73 481.62,-1359.73 481.62,-1353.73 487.62,-1347.73 493.62,-1347.73 493.62,-1347.73 594.38,-1347.73 594.38,-1347.73 600.38,-1347.73 606.38,-1353.73 606.38,-1359.73 606.38,-1359.73 606.38,-1371.73 606.38,-1371.73 606.38,-1377.73 600.38,-1383.73 594.38,-1383.73"/>
<text xml:space="preserve" text-anchor="middle" x="544" y="-1368.23" font-family="Arial" font-size="10.00">Web Browsers</text>
<text xml:space="preserve" text-anchor="middle" x="544" y="-1356.23" font-family="Arial" font-size="10.00">(Desktop, Tablet, Mobile)</text>
</g>
<!-- CFEdge -->
<g id="node2" class="node">
<title>CFEdge</title>
<polygon fill="white" stroke="black" points="603.75,-1218.73 484.25,-1218.73 484.25,-1182.73 603.75,-1182.73 603.75,-1218.73"/>
<text xml:space="preserve" text-anchor="middle" x="544" y="-1203.23" font-family="Arial" font-size="10.00">Cloudflare Edge</text>
<text xml:space="preserve" text-anchor="middle" x="544" y="-1191.23" font-family="Arial" font-size="10.00">(300+ Global Locations)</text>
</g>
<!-- Users&#45;&gt;CFEdge -->
<g id="edge4" class="edge">
<title>Users&#45;&gt;CFEdge</title>
<path fill="none" stroke="blue" stroke-width="2" d="M544,-1347.44C544,-1347.44 544,-1230.61 544,-1230.61"/>
<polygon fill="blue" stroke="blue" stroke-width="2" points="547.5,-1232.12 544,-1222.12 540.5,-1232.12 547.5,-1232.12"/>
<text xml:space="preserve" text-anchor="middle" x="598" y="-1285.18" font-family="Arial" font-size="9.00">1. HTTPS Request</text>
<text xml:space="preserve" text-anchor="middle" x="598" y="-1274.68" font-family="Arial" font-size="9.00">https://gymms.domain.com</text>
</g>
<!-- DDoS -->
<g id="node3" class="node">
<title>DDoS</title>
<path fill="lightgreen" stroke="black" d="M102.12,-1025.73C102.12,-1025.73 35.88,-1025.73 35.88,-1025.73 29.88,-1025.73 23.88,-1019.73 23.88,-1013.73 23.88,-1013.73 23.88,-1001.73 23.88,-1001.73 23.88,-995.73 29.88,-989.73 35.88,-989.73 35.88,-989.73 102.12,-989.73 102.12,-989.73 108.12,-989.73 114.12,-995.73 114.12,-1001.73 114.12,-1001.73 114.12,-1013.73 114.12,-1013.73 114.12,-1019.73 108.12,-1025.73 102.12,-1025.73"/>
<text xml:space="preserve" text-anchor="middle" x="69" y="-1004.23" font-family="Arial" font-size="10.00">DDoS Protection</text>
</g>
<!-- CFEdge&#45;&gt;DDoS -->
<!-- Cloudflared -->
<g id="node7" class="node">
<title>Cloudflared</title>
<path fill="lightcyan" stroke="black" d="M772.62,-1029.73C772.62,-1029.73 679.38,-1029.73 679.38,-1029.73 673.38,-1029.73 667.38,-1023.73 667.38,-1017.73 667.38,-1017.73 667.38,-997.73 667.38,-997.73 667.38,-991.73 673.38,-985.73 679.38,-985.73 679.38,-985.73 772.62,-985.73 772.62,-985.73 778.62,-985.73 784.62,-991.73 784.62,-997.73 784.62,-997.73 784.62,-1017.73 784.62,-1017.73 784.62,-1023.73 778.62,-1029.73 772.62,-1029.73"/>
<text xml:space="preserve" text-anchor="middle" x="726" y="-1016.23" font-family="Arial" font-size="10.00">cloudflared</text>
<text xml:space="preserve" text-anchor="middle" x="726" y="-1004.23" font-family="Arial" font-size="10.00">Tunnel Daemon</text>
<text xml:space="preserve" text-anchor="middle" x="726" y="-992.23" font-family="Arial" font-size="10.00">Outbound HTTPS Only</text>
</g>
<!-- CFEdge&#45;&gt;Cloudflared -->
<g id="edge6" class="edge">
<title>CFEdge&#45;&gt;Cloudflared</title>
<path fill="none" stroke="green" stroke-width="2" d="M598.42,-1182.25C598.42,-1134.01 598.42,-1008 598.42,-1008 598.42,-1008 655.55,-1008 655.55,-1008"/>
<polygon fill="green" stroke="green" stroke-width="2" points="654.04,-1011.5 664.04,-1008 654.04,-1004.5 654.04,-1011.5"/>
<text xml:space="preserve" text-anchor="middle" x="717.12" y="-1120.18" font-family="Arial" font-size="9.00">2. Proxied via Tunnel</text>
<text xml:space="preserve" text-anchor="middle" x="717.12" y="-1109.68" font-family="Arial" font-size="9.00">(No inbound ports)</text>
</g>
<!-- Note1 -->
<g id="node32" class="node">
<title>Note1</title>
<polygon fill="lightyellow" stroke="black" points="2126.38,-1053.73 2019.62,-1053.73 2019.62,-961.73 2132.38,-961.73 2132.38,-1047.73 2126.38,-1053.73"/>
<polyline fill="none" stroke="black" points="2126.38,-1053.73 2126.38,-1047.73"/>
<polyline fill="none" stroke="black" points="2132.38,-1047.73 2126.38,-1047.73"/>
<text xml:space="preserve" text-anchor="middle" x="2076" y="-1040.23" font-family="Arial" font-size="10.00">Key Benefits:</text>
<text xml:space="preserve" text-anchor="middle" x="2076" y="-1028.23" font-family="Arial" font-size="10.00">• No static IP required</text>
<text xml:space="preserve" text-anchor="middle" x="2076" y="-1016.23" font-family="Arial" font-size="10.00">• No port forwarding</text>
<text xml:space="preserve" text-anchor="middle" x="2076" y="-1004.23" font-family="Arial" font-size="10.00">• Automatic SSL/TLS</text>
<text xml:space="preserve" text-anchor="middle" x="2076" y="-992.23" font-family="Arial" font-size="10.00">• DDoS protection</text>
<text xml:space="preserve" text-anchor="middle" x="2076" y="-980.23" font-family="Arial" font-size="10.00">• Global CDN</text>
<text xml:space="preserve" text-anchor="middle" x="2076" y="-968.23" font-family="Arial" font-size="10.00">• Low cost (free tier)</text>
</g>
<!-- CFEdge&#45;&gt;Note1 -->
<!-- WAF -->
<g id="node4" class="node">
<title>WAF</title>
<path fill="lightgreen" stroke="black" d="M259.88,-1025.73C259.88,-1025.73 198.12,-1025.73 198.12,-1025.73 192.12,-1025.73 186.12,-1019.73 186.12,-1013.73 186.12,-1013.73 186.12,-1001.73 186.12,-1001.73 186.12,-995.73 192.12,-989.73 198.12,-989.73 198.12,-989.73 259.88,-989.73 259.88,-989.73 265.88,-989.73 271.88,-995.73 271.88,-1001.73 271.88,-1001.73 271.88,-1013.73 271.88,-1013.73 271.88,-1019.73 265.88,-1025.73 259.88,-1025.73"/>
<text xml:space="preserve" text-anchor="middle" x="229" y="-1010.23" font-family="Arial" font-size="10.00">Web Application</text>
<text xml:space="preserve" text-anchor="middle" x="229" y="-998.23" font-family="Arial" font-size="10.00">Firewall</text>
</g>
<!-- SSL -->
<g id="node5" class="node">
<title>SSL</title>
<path fill="lightgreen" stroke="black" d="M434.5,-1025.73C434.5,-1025.73 355.5,-1025.73 355.5,-1025.73 349.5,-1025.73 343.5,-1019.73 343.5,-1013.73 343.5,-1013.73 343.5,-1001.73 343.5,-1001.73 343.5,-995.73 349.5,-989.73 355.5,-989.73 355.5,-989.73 434.5,-989.73 434.5,-989.73 440.5,-989.73 446.5,-995.73 446.5,-1001.73 446.5,-1001.73 446.5,-1013.73 446.5,-1013.73 446.5,-1019.73 440.5,-1025.73 434.5,-1025.73"/>
<text xml:space="preserve" text-anchor="middle" x="395" y="-1010.23" font-family="Arial" font-size="10.00">Automatic SSL/TLS</text>
<text xml:space="preserve" text-anchor="middle" x="395" y="-998.23" font-family="Arial" font-size="10.00">(TLS 1.3)</text>
</g>
<!-- CDN -->
<g id="node6" class="node">
<title>CDN</title>
<path fill="lightgreen" stroke="black" d="M583.75,-1025.73C583.75,-1025.73 530.25,-1025.73 530.25,-1025.73 524.25,-1025.73 518.25,-1019.73 518.25,-1013.73 518.25,-1013.73 518.25,-1001.73 518.25,-1001.73 518.25,-995.73 524.25,-989.73 530.25,-989.73 530.25,-989.73 583.75,-989.73 583.75,-989.73 589.75,-989.73 595.75,-995.73 595.75,-1001.73 595.75,-1001.73 595.75,-1013.73 595.75,-1013.73 595.75,-1019.73 589.75,-1025.73 583.75,-1025.73"/>
<text xml:space="preserve" text-anchor="middle" x="557" y="-1004.23" font-family="Arial" font-size="10.00">CDN Caching</text>
</g>
<!-- Nginx -->
<g id="node8" class="node">
<title>Nginx</title>
<polygon fill="lightyellow" stroke="black" points="771.88,-819.73 680.12,-819.73 680.12,-815.73 676.12,-815.73 676.12,-811.73 680.12,-811.73 680.12,-783.73 676.12,-783.73 676.12,-779.73 680.12,-779.73 680.12,-775.73 771.88,-775.73 771.88,-819.73"/>
<polyline fill="none" stroke="black" points="680.12,-815.73 684.12,-815.73 684.12,-811.73 680.12,-811.73"/>
<polyline fill="none" stroke="black" points="680.12,-783.73 684.12,-783.73 684.12,-779.73 680.12,-779.73"/>
<text xml:space="preserve" text-anchor="middle" x="726" y="-806.23" font-family="Arial" font-size="10.00">Nginx Alpine</text>
<text xml:space="preserve" text-anchor="middle" x="726" y="-794.23" font-family="Arial" font-size="10.00">Reverse Proxy</text>
<text xml:space="preserve" text-anchor="middle" x="726" y="-782.23" font-family="Arial" font-size="10.00">Static File Server</text>
</g>
<!-- Cloudflared&#45;&gt;Nginx -->
<g id="edge7" class="edge">
<title>Cloudflared&#45;&gt;Nginx</title>
<path fill="none" stroke="green" stroke-width="2" d="M726,-985.25C726,-985.25 726,-831.55 726,-831.55"/>
<polygon fill="green" stroke="green" stroke-width="2" points="729.5,-833.06 726,-823.06 722.5,-833.06 729.5,-833.06"/>
<text xml:space="preserve" text-anchor="middle" x="752.62" y="-899.18" font-family="Arial" font-size="9.00">3. Forward to</text>
<text xml:space="preserve" text-anchor="middle" x="752.62" y="-888.68" font-family="Arial" font-size="9.00">localhost:80</text>
</g>
<!-- NginxConfig -->
<g id="node9" class="node">
<title>NginxConfig</title>
<polygon fill="lightyellow" stroke="black" points="761.88,-646.73 664.12,-646.73 664.12,-578.73 767.88,-578.73 767.88,-640.73 761.88,-646.73"/>
<polyline fill="none" stroke="black" points="761.88,-646.73 761.88,-640.73"/>
<polyline fill="none" stroke="black" points="767.88,-640.73 761.88,-640.73"/>
<text xml:space="preserve" text-anchor="middle" x="716" y="-633.23" font-family="Arial" font-size="10.00">nginx.conf</text>
<text xml:space="preserve" text-anchor="middle" x="716" y="-621.23" font-family="Arial" font-size="10.00">• Proxy to Gunicorn</text>
<text xml:space="preserve" text-anchor="middle" x="716" y="-609.23" font-family="Arial" font-size="10.00">• Gzip Compression</text>
<text xml:space="preserve" text-anchor="middle" x="716" y="-597.23" font-family="Arial" font-size="10.00">• Security Headers</text>
<text xml:space="preserve" text-anchor="middle" x="716" y="-585.23" font-family="Arial" font-size="10.00">• Cache Control</text>
</g>
<!-- Nginx&#45;&gt;NginxConfig -->
<!-- Gunicorn -->
<g id="node10" class="node">
<title>Gunicorn</title>
<polygon fill="lightblue" stroke="black" points="916.38,-634.73 839.62,-634.73 839.62,-630.73 835.62,-630.73 835.62,-626.73 839.62,-626.73 839.62,-598.73 835.62,-598.73 835.62,-594.73 839.62,-594.73 839.62,-590.73 916.38,-590.73 916.38,-634.73"/>
<polyline fill="none" stroke="black" points="839.62,-630.73 843.62,-630.73 843.62,-626.73 839.62,-626.73"/>
<polyline fill="none" stroke="black" points="839.62,-598.73 843.62,-598.73 843.62,-594.73 839.62,-594.73"/>
<text xml:space="preserve" text-anchor="middle" x="878" y="-621.23" font-family="Arial" font-size="10.00">Gunicorn 21.2</text>
<text xml:space="preserve" text-anchor="middle" x="878" y="-609.23" font-family="Arial" font-size="10.00">3 Workers</text>
<text xml:space="preserve" text-anchor="middle" x="878" y="-597.23" font-family="Arial" font-size="10.00">WSGI Server</text>
</g>
<!-- Nginx&#45;&gt;Gunicorn -->
<g id="edge8" class="edge">
<title>Nginx&#45;&gt;Gunicorn</title>
<path fill="none" stroke="purple" stroke-width="2" d="M772.02,-789C816.76,-789 878,-789 878,-789 878,-789 878,-646.56 878,-646.56"/>
<polygon fill="purple" stroke="purple" stroke-width="2" points="881.5,-648.08 878,-638.08 874.5,-648.08 881.5,-648.08"/>
<text xml:space="preserve" text-anchor="middle" x="862.38" y="-713.18" font-family="Arial" font-size="9.00">4. Proxy to</text>
<text xml:space="preserve" text-anchor="middle" x="862.38" y="-702.68" font-family="Arial" font-size="9.00">port 8000</text>
</g>
<!-- VolStatic -->
<g id="node16" class="node">
<title>VolStatic</title>
<polygon fill="white" stroke="black" points="1167.5,-247 1164.5,-251 1143.5,-251 1140.5,-247 1076.5,-247 1076.5,-211 1167.5,-211 1167.5,-247"/>
<text xml:space="preserve" text-anchor="middle" x="1122" y="-231.5" font-family="Arial" font-size="10.00">static</text>
<text xml:space="preserve" text-anchor="middle" x="1122" y="-219.5" font-family="Arial" font-size="10.00">(CSS/JS Assets)</text>
</g>
<!-- Nginx&#45;&gt;VolStatic -->
<g id="edge18" class="edge">
<title>Nginx&#45;&gt;VolStatic</title>
<path fill="none" stroke="brown" stroke-dasharray="1,5" d="M772.27,-798C854.6,-798 1017.99,-798 1017.99,-798 1017.99,-798 1017.99,-229 1017.99,-229 1017.99,-229 1064.56,-229 1064.56,-229"/>
<polygon fill="brown" stroke="brown" points="1064.56,-232.5 1074.56,-229 1064.56,-225.5 1064.56,-232.5"/>
<text xml:space="preserve" text-anchor="middle" x="1266" y="-510.93" font-family="Arial" font-size="9.00">Serve</text>
</g>
<!-- DockerNetwork -->
<g id="node18" class="node">
<title>DockerNetwork</title>
<ellipse fill="lightcyan" stroke="black" cx="1108" cy="-418.61" rx="76.01" ry="31.11"/>
<text xml:space="preserve" text-anchor="middle" x="1108" y="-427.11" font-family="Arial" font-size="10.00">gymms_network</text>
<text xml:space="preserve" text-anchor="middle" x="1108" y="-415.11" font-family="Arial" font-size="10.00">(Bridge Network)</text>
<text xml:space="preserve" text-anchor="middle" x="1108" y="-403.11" font-family="Arial" font-size="10.00">DNS: web, db, nginx</text>
</g>
<!-- Nginx&#45;&gt;DockerNetwork -->
<g id="edge13" class="edge">
<title>Nginx&#45;&gt;DockerNetwork</title>
<path fill="none" stroke="gray" stroke-dasharray="5,2" d="M772.26,-807C868.77,-807 1082.66,-807 1082.66,-807 1082.66,-807 1082.66,-459.64 1082.66,-459.64"/>
<polygon fill="gray" stroke="gray" points="1086.16,-459.64 1082.66,-449.64 1079.16,-459.64 1086.16,-459.64"/>
</g>
<!-- Django -->
<g id="node11" class="node">
<title>Django</title>
<polygon fill="lightblue" stroke="black" points="886.12,-440.61 795.88,-440.61 795.88,-436.61 791.88,-436.61 791.88,-432.61 795.88,-432.61 795.88,-404.61 791.88,-404.61 791.88,-400.61 795.88,-400.61 795.88,-396.61 886.12,-396.61 886.12,-440.61"/>
<polyline fill="none" stroke="black" points="795.88,-436.61 799.88,-436.61 799.88,-432.61 795.88,-432.61"/>
<polyline fill="none" stroke="black" points="795.88,-404.61 799.88,-404.61 799.88,-400.61 795.88,-400.61"/>
<text xml:space="preserve" text-anchor="middle" x="841" y="-427.11" font-family="Arial" font-size="10.00">Django 5.0+</text>
<text xml:space="preserve" text-anchor="middle" x="841" y="-415.11" font-family="Arial" font-size="10.00">Python 3.11</text>
<text xml:space="preserve" text-anchor="middle" x="841" y="-403.11" font-family="Arial" font-size="10.00">Application Code</text>
</g>
<!-- Gunicorn&#45;&gt;Django -->
<g id="edge2" class="edge">
<title>Gunicorn&#45;&gt;Django</title>
<path fill="none" stroke="black" d="M855.12,-590.46C855.12,-590.46 855.12,-452.43 855.12,-452.43"/>
<polygon fill="black" stroke="black" points="858.63,-452.43 855.13,-442.43 851.63,-452.43 858.63,-452.43"/>
<text xml:space="preserve" text-anchor="middle" x="879.62" y="-510.93" font-family="Arial" font-size="9.00">WSGI</text>
</g>
<!-- Gunicorn&#45;&gt;Django -->
<g id="edge9" class="edge">
<title>Gunicorn&#45;&gt;Django</title>
<path fill="none" stroke="purple" stroke-width="2" d="M870.62,-590.46C870.62,-590.46 870.62,-452.43 870.62,-452.43"/>
<polygon fill="purple" stroke="purple" stroke-width="2" points="874.13,-453.95 870.63,-443.95 867.13,-453.95 874.13,-453.95"/>
</g>
<!-- Gunicorn&#45;&gt;DockerNetwork -->
<g id="edge14" class="edge">
<title>Gunicorn&#45;&gt;DockerNetwork</title>
<path fill="none" stroke="gray" stroke-dasharray="5,2" d="M901.25,-590.45C901.25,-544.83 901.25,-445 901.25,-445 901.25,-445 1054.4,-445 1054.4,-445"/>
<polygon fill="gray" stroke="gray" points="1054.4,-448.5 1064.4,-445 1054.4,-441.5 1054.4,-448.5"/>
</g>
<!-- Django&#45;&gt;Users -->
<g id="edge12" class="edge">
<title>Django&#45;&gt;Users</title>
<path fill="none" stroke="blue" stroke-width="2" d="M806.81,-452.61C806.81,-452.61 806.81,-1366 806.81,-1366 806.81,-1366 684.35,-1366 606.62,-1366"/>
<polygon fill="blue" stroke="blue" stroke-width="2" points="810.31,-454.12 806.81,-444.12 803.31,-454.12 810.31,-454.12"/>
<text xml:space="preserve" text-anchor="middle" x="906.62" y="-899.18" font-family="Arial" font-size="9.00">7. HTTP Response</text>
<text xml:space="preserve" text-anchor="middle" x="906.62" y="-888.68" font-family="Arial" font-size="9.00">(HTML/JSON)</text>
</g>
<!-- PostgreSQL -->
<g id="node12" class="node">
<title>PostgreSQL</title>
<path fill="lightgreen" stroke="black" d="M1522.38,-637.48C1522.38,-640.51 1503.83,-642.98 1481,-642.98 1458.17,-642.98 1439.62,-640.51 1439.62,-637.48 1439.62,-637.48 1439.62,-587.98 1439.62,-587.98 1439.62,-584.94 1458.17,-582.48 1481,-582.48 1503.83,-582.48 1522.38,-584.94 1522.38,-587.98 1522.38,-587.98 1522.38,-637.48 1522.38,-637.48"/>
<path fill="none" stroke="black" d="M1522.38,-637.48C1522.38,-634.44 1503.83,-631.98 1481,-631.98 1458.17,-631.98 1439.62,-634.44 1439.62,-637.48"/>
<text xml:space="preserve" text-anchor="middle" x="1481" y="-621.23" font-family="Arial" font-size="10.00">PostgreSQL 16</text>
<text xml:space="preserve" text-anchor="middle" x="1481" y="-609.23" font-family="Arial" font-size="10.00">Alpine Linux</text>
<text xml:space="preserve" text-anchor="middle" x="1481" y="-597.23" font-family="Arial" font-size="10.00">Port 5432</text>
</g>
<!-- Django&#45;&gt;PostgreSQL -->
<g id="edge10" class="edge">
<title>Django&#45;&gt;PostgreSQL</title>
<path fill="none" stroke="red" stroke-width="2" d="M828.69,-440.75C828.69,-496.28 828.69,-637 828.69,-637 828.69,-637 1427.69,-637 1427.69,-637"/>
<polygon fill="red" stroke="red" stroke-width="2" points="1426.18,-640.5 1436.18,-637 1426.18,-633.5 1426.18,-640.5"/>
<text xml:space="preserve" text-anchor="middle" x="1012.75" y="-516.18" font-family="Arial" font-size="9.00">5. SQL Queries</text>
<text xml:space="preserve" text-anchor="middle" x="1012.75" y="-505.68" font-family="Arial" font-size="9.00">(Django ORM)</text>
</g>
<!-- VolMedia -->
<g id="node15" class="node">
<title>VolMedia</title>
<polygon fill="white" stroke="black" points="1004,-247 1001,-251 980,-251 977,-247 922,-247 922,-211 1004,-211 1004,-247"/>
<text xml:space="preserve" text-anchor="middle" x="963" y="-231.5" font-family="Arial" font-size="10.00">media</text>
<text xml:space="preserve" text-anchor="middle" x="963" y="-219.5" font-family="Arial" font-size="10.00">(User Uploads)</text>
</g>
<!-- Django&#45;&gt;VolMedia -->
<g id="edge17" class="edge">
<title>Django&#45;&gt;VolMedia</title>
<path fill="none" stroke="brown" stroke-dasharray="1,5" d="M841,-396.12C841,-345.89 841,-229 841,-229 841,-229 910.18,-229 910.18,-229"/>
<polygon fill="brown" stroke="brown" points="910.18,-232.5 920.18,-229 910.18,-225.5 910.18,-232.5"/>
<text xml:space="preserve" text-anchor="middle" x="892.88" y="-324.95" font-family="Arial" font-size="9.00">Store</text>
</g>
<!-- PostgreSQL&#45;&gt;Django -->
<g id="edge11" class="edge">
<title>PostgreSQL&#45;&gt;Django</title>
<path fill="none" stroke="red" stroke-width="2" d="M1427.75,-640C1427.75,-640 817.75,-640 817.75,-640 817.75,-640 817.75,-497.34 817.75,-441.06"/>
<polygon fill="red" stroke="red" stroke-width="2" points="1426.23,-643.5 1436.23,-640 1426.23,-636.5 1426.23,-643.5"/>
<text xml:space="preserve" text-anchor="middle" x="1149.12" y="-510.93" font-family="Arial" font-size="9.00">6. Result Sets</text>
</g>
<!-- DBConfig -->
<g id="node13" class="node">
<title>DBConfig</title>
<polygon fill="lightyellow" stroke="black" points="1547.62,-446.61 1430.38,-446.61 1430.38,-390.61 1553.62,-390.61 1553.62,-440.61 1547.62,-446.61"/>
<polyline fill="none" stroke="black" points="1547.62,-446.61 1547.62,-440.61"/>
<polyline fill="none" stroke="black" points="1553.62,-440.61 1547.62,-440.61"/>
<text xml:space="preserve" text-anchor="middle" x="1492" y="-433.11" font-family="Arial" font-size="10.00">Configuration:</text>
<text xml:space="preserve" text-anchor="middle" x="1492" y="-421.11" font-family="Arial" font-size="10.00">• max_connections: 100</text>
<text xml:space="preserve" text-anchor="middle" x="1492" y="-409.11" font-family="Arial" font-size="10.00">• shared_buffers: 256MB</text>
<text xml:space="preserve" text-anchor="middle" x="1492" y="-397.11" font-family="Arial" font-size="10.00">• work_mem: 8MB</text>
</g>
<!-- PostgreSQL&#45;&gt;DBConfig -->
<!-- VolPostgres -->
<g id="node14" class="node">
<title>VolPostgres</title>
<polygon fill="white" stroke="black" points="1489.75,-247 1486.75,-251 1465.75,-251 1462.75,-247 1406.25,-247 1406.25,-211 1489.75,-211 1489.75,-247"/>
<text xml:space="preserve" text-anchor="middle" x="1448" y="-231.5" font-family="Arial" font-size="10.00">postgres_data</text>
<text xml:space="preserve" text-anchor="middle" x="1448" y="-219.5" font-family="Arial" font-size="10.00">(Persistent DB)</text>
</g>
<!-- PostgreSQL&#45;&gt;VolPostgres -->
<g id="edge16" class="edge">
<title>PostgreSQL&#45;&gt;VolPostgres</title>
<path fill="none" stroke="brown" stroke-dasharray="1,5" d="M1439.19,-585C1427.69,-585 1418.31,-585 1418.31,-585 1418.31,-585 1418.31,-258.66 1418.31,-258.66"/>
<polygon fill="brown" stroke="brown" points="1421.81,-258.66 1418.31,-248.66 1414.81,-258.66 1421.81,-258.66"/>
<text xml:space="preserve" text-anchor="middle" x="1711.88" y="-415.31" font-family="Arial" font-size="9.00">Persist</text>
</g>
<!-- VolBackups -->
<g id="node17" class="node">
<title>VolBackups</title>
<polygon fill="white" stroke="black" points="1334,-247 1331,-251 1310,-251 1307,-247 1240,-247 1240,-211 1334,-211 1334,-247"/>
<text xml:space="preserve" text-anchor="middle" x="1287" y="-231.5" font-family="Arial" font-size="10.00">backups</text>
<text xml:space="preserve" text-anchor="middle" x="1287" y="-219.5" font-family="Arial" font-size="10.00">(pg_dump Output)</text>
</g>
<!-- PostgreSQL&#45;&gt;VolBackups -->
<g id="edge19" class="edge">
<title>PostgreSQL&#45;&gt;VolBackups</title>
<path fill="none" stroke="brown" stroke-dasharray="1,5" d="M1439.38,-587C1382.38,-587 1287,-587 1287,-587 1287,-587 1287,-258.76 1287,-258.76"/>
<polygon fill="brown" stroke="brown" points="1290.5,-258.76 1287,-248.76 1283.5,-258.76 1290.5,-258.76"/>
<text xml:space="preserve" text-anchor="middle" x="1343.38" y="-415.31" font-family="Arial" font-size="9.00">Backup</text>
</g>
<!-- PostgreSQL&#45;&gt;DockerNetwork -->
<g id="edge15" class="edge">
<title>PostgreSQL&#45;&gt;DockerNetwork</title>
<path fill="none" stroke="gray" stroke-dasharray="5,2" d="M1439.41,-589C1347.13,-589 1133.34,-589 1133.34,-589 1133.34,-589 1133.34,-459.81 1133.34,-459.81"/>
<polygon fill="gray" stroke="gray" points="1136.84,-459.81 1133.34,-449.81 1129.84,-459.81 1136.84,-459.81"/>
</g>
<!-- PgExporter -->
<g id="node23" class="node">
<title>PgExporter</title>
<path fill="white" stroke="black" d="M2268.38,-436.61C2268.38,-436.61 2197.62,-436.61 2197.62,-436.61 2191.62,-436.61 2185.62,-430.61 2185.62,-424.61 2185.62,-424.61 2185.62,-412.61 2185.62,-412.61 2185.62,-406.61 2191.62,-400.61 2197.62,-400.61 2197.62,-400.61 2268.38,-400.61 2268.38,-400.61 2274.38,-400.61 2280.38,-406.61 2280.38,-412.61 2280.38,-412.61 2280.38,-424.61 2280.38,-424.61 2280.38,-430.61 2274.38,-436.61 2268.38,-436.61"/>
<text xml:space="preserve" text-anchor="middle" x="2233" y="-421.11" font-family="Arial" font-size="10.00">Postgres Exporter</text>
<text xml:space="preserve" text-anchor="middle" x="2233" y="-409.11" font-family="Arial" font-size="10.00">DB Metrics</text>
</g>
<!-- PostgreSQL&#45;&gt;PgExporter -->
<g id="edge22" class="edge">
<title>PostgreSQL&#45;&gt;PgExporter</title>
<path fill="none" stroke="orange" stroke-dasharray="1,5" d="M1522.77,-587C1680.78,-587 2233,-587 2233,-587 2233,-587 2233,-448.47 2233,-448.47"/>
<polygon fill="orange" stroke="orange" points="2236.5,-448.47 2233,-438.47 2229.5,-448.47 2236.5,-448.47"/>
</g>
<!-- BackupSystem -->
<g id="node24" class="node">
<title>BackupSystem</title>
<path fill="lightgreen" stroke="black" d="M2503.12,-440.61C2503.12,-440.61 2364.88,-440.61 2364.88,-440.61 2358.88,-440.61 2352.88,-434.61 2352.88,-428.61 2352.88,-428.61 2352.88,-408.61 2352.88,-408.61 2352.88,-402.61 2358.88,-396.61 2364.88,-396.61 2364.88,-396.61 2503.12,-396.61 2503.12,-396.61 2509.12,-396.61 2515.12,-402.61 2515.12,-408.61 2515.12,-408.61 2515.12,-428.61 2515.12,-428.61 2515.12,-434.61 2509.12,-440.61 2503.12,-440.61"/>
<text xml:space="preserve" text-anchor="middle" x="2434" y="-427.11" font-family="Arial" font-size="10.00">Automated Backup</text>
<text xml:space="preserve" text-anchor="middle" x="2434" y="-415.11" font-family="Arial" font-size="10.00">Daily at 2:00 AM</text>
<text xml:space="preserve" text-anchor="middle" x="2434" y="-403.11" font-family="Arial" font-size="10.00">pg_dump → NVMe → USB Drive</text>
</g>
<!-- PostgreSQL&#45;&gt;BackupSystem -->
<g id="edge24" class="edge">
<title>PostgreSQL&#45;&gt;BackupSystem</title>
<path fill="none" stroke="darkgreen" stroke-dasharray="1,5" d="M1522.87,-591C1706.8,-591 2434,-591 2434,-591 2434,-591 2434,-452.31 2434,-452.31"/>
<polygon fill="darkgreen" stroke="darkgreen" points="2437.5,-452.31 2434,-442.31 2430.5,-452.31 2437.5,-452.31"/>
<text xml:space="preserve" text-anchor="middle" x="2453.5" y="-516.18" font-family="Arial" font-size="9.00">Daily</text>
<text xml:space="preserve" text-anchor="middle" x="2453.5" y="-505.68" font-family="Arial" font-size="9.00">pg_dump</text>
</g>
<!-- HardwareSpecs -->
<g id="node19" class="node">
<title>HardwareSpecs</title>
<polygon fill="#fffacd" stroke="black" points="1998.38,-269 1741.62,-269 1741.62,-189 2004.38,-189 2004.38,-263 1998.38,-269"/>
<polyline fill="none" stroke="black" points="1998.38,-269 1998.38,-263"/>
<polyline fill="none" stroke="black" points="2004.38,-263 1998.38,-263"/>
<text xml:space="preserve" text-anchor="middle" x="1873" y="-255.5" font-family="Arial" font-size="10.00">Hardware Specifications:</text>
<text xml:space="preserve" text-anchor="middle" x="1873" y="-243.5" font-family="Arial" font-size="10.00">• CPU: BCM2712 ARM Cortex&#45;A76 @ 2.4GHz (4 cores)</text>
<text xml:space="preserve" text-anchor="middle" x="1873" y="-231.5" font-family="Arial" font-size="10.00">• RAM: 8GB LPDDR4X&#45;4267</text>
<text xml:space="preserve" text-anchor="middle" x="1873" y="-219.5" font-family="Arial" font-size="10.00">• Storage: 512GB NVMe SSD (450MB/s read)</text>
<text xml:space="preserve" text-anchor="middle" x="1873" y="-207.5" font-family="Arial" font-size="10.00">• Network: Gigabit Ethernet + Wi&#45;Fi 6</text>
<text xml:space="preserve" text-anchor="middle" x="1873" y="-195.5" font-family="Arial" font-size="10.00">• Power: 10W average (3&#45;15W range)</text>
</g>
<!-- DockerNetwork&#45;&gt;HardwareSpecs -->
<!-- Note2 -->
<g id="node33" class="node">
<title>Note2</title>
<polygon fill="lightgreen" stroke="black" points="1959.75,-80 1780.25,-80 1780.25,0 1965.75,0 1965.75,-74 1959.75,-80"/>
<polyline fill="none" stroke="black" points="1959.75,-80 1959.75,-74"/>
<polyline fill="none" stroke="black" points="1965.75,-74 1959.75,-74"/>
<text xml:space="preserve" text-anchor="middle" x="1873" y="-66.5" font-family="Arial" font-size="10.00">Cost Analysis:</text>
<text xml:space="preserve" text-anchor="middle" x="1873" y="-54.5" font-family="Arial" font-size="10.00">• Hardware: ₱12,000&#45;15,000 (one&#45;time)</text>
<text xml:space="preserve" text-anchor="middle" x="1873" y="-42.5" font-family="Arial" font-size="10.00">• Electricity: ₱150&#45;200/month</text>
<text xml:space="preserve" text-anchor="middle" x="1873" y="-30.5" font-family="Arial" font-size="10.00">• Domain: ₱500/year</text>
<text xml:space="preserve" text-anchor="middle" x="1873" y="-18.5" font-family="Arial" font-size="10.00">• Cloudflare: Free tier</text>
<text xml:space="preserve" text-anchor="middle" x="1873" y="-6.5" font-family="Arial" font-size="10.00">• Total: ~₱300/month</text>
</g>
<!-- HardwareSpecs&#45;&gt;Note2 -->
<!-- Prometheus -->
<g id="node20" class="node">
<title>Prometheus</title>
<path fill="white" stroke="black" d="M2213.38,-247C2213.38,-247 2142.62,-247 2142.62,-247 2136.62,-247 2130.62,-241 2130.62,-235 2130.62,-235 2130.62,-223 2130.62,-223 2130.62,-217 2136.62,-211 2142.62,-211 2142.62,-211 2213.38,-211 2213.38,-211 2219.38,-211 2225.38,-217 2225.38,-223 2225.38,-223 2225.38,-235 2225.38,-235 2225.38,-241 2219.38,-247 2213.38,-247"/>
<text xml:space="preserve" text-anchor="middle" x="2178" y="-231.5" font-family="Arial" font-size="10.00">Prometheus</text>
<text xml:space="preserve" text-anchor="middle" x="2178" y="-219.5" font-family="Arial" font-size="10.00">Metrics Collection</text>
</g>
<!-- Grafana -->
<g id="node21" class="node">
<title>Grafana</title>
<path fill="white" stroke="black" d="M2201.75,-58C2201.75,-58 2154.25,-58 2154.25,-58 2148.25,-58 2142.25,-52 2142.25,-46 2142.25,-46 2142.25,-34 2142.25,-34 2142.25,-28 2148.25,-22 2154.25,-22 2154.25,-22 2201.75,-22 2201.75,-22 2207.75,-22 2213.75,-28 2213.75,-34 2213.75,-34 2213.75,-46 2213.75,-46 2213.75,-52 2207.75,-58 2201.75,-58"/>
<text xml:space="preserve" text-anchor="middle" x="2178" y="-42.5" font-family="Arial" font-size="10.00">Grafana</text>
<text xml:space="preserve" text-anchor="middle" x="2178" y="-30.5" font-family="Arial" font-size="10.00">Visualization</text>
</g>
<!-- Prometheus&#45;&gt;Grafana -->
<g id="edge23" class="edge">
<title>Prometheus&#45;&gt;Grafana</title>
<path fill="none" stroke="orange" stroke-dasharray="5,2" d="M2178,-210.53C2178,-210.53 2178,-69.78 2178,-69.78"/>
<polygon fill="orange" stroke="orange" points="2181.5,-69.78 2178,-59.78 2174.5,-69.78 2181.5,-69.78"/>
</g>
<!-- NodeExporter -->
<g id="node22" class="node">
<title>NodeExporter</title>
<path fill="white" stroke="black" d="M2101.5,-436.61C2101.5,-436.61 2040.5,-436.61 2040.5,-436.61 2034.5,-436.61 2028.5,-430.61 2028.5,-424.61 2028.5,-424.61 2028.5,-412.61 2028.5,-412.61 2028.5,-406.61 2034.5,-400.61 2040.5,-400.61 2040.5,-400.61 2101.5,-400.61 2101.5,-400.61 2107.5,-400.61 2113.5,-406.61 2113.5,-412.61 2113.5,-412.61 2113.5,-424.61 2113.5,-424.61 2113.5,-430.61 2107.5,-436.61 2101.5,-436.61"/>
<text xml:space="preserve" text-anchor="middle" x="2071" y="-421.11" font-family="Arial" font-size="10.00">Node Exporter</text>
<text xml:space="preserve" text-anchor="middle" x="2071" y="-409.11" font-family="Arial" font-size="10.00">System Metrics</text>
</g>
<!-- NodeExporter&#45;&gt;Prometheus -->
<g id="edge20" class="edge">
<title>NodeExporter&#45;&gt;Prometheus</title>
<path fill="none" stroke="orange" stroke-dasharray="5,2" d="M2113.97,-419C2136.31,-419 2159,-419 2159,-419 2159,-419 2159,-258.73 2159,-258.73"/>
<polygon fill="orange" stroke="orange" points="2162.5,-258.73 2159,-248.73 2155.5,-258.73 2162.5,-258.73"/>
</g>
<!-- PgExporter&#45;&gt;Prometheus -->
<g id="edge21" class="edge">
<title>PgExporter&#45;&gt;Prometheus</title>
<path fill="none" stroke="orange" stroke-dasharray="5,2" d="M2205.5,-400.43C2205.5,-400.43 2205.5,-258.92 2205.5,-258.92"/>
<polygon fill="orange" stroke="orange" points="2209,-258.92 2205.5,-248.92 2202,-258.92 2209,-258.92"/>
</g>
<!-- L1 -->
<g id="node25" class="node">
<title>L1</title>
<text xml:space="preserve" text-anchor="middle" x="2630" y="-1362.23" font-family="Arial" font-size="10.00">User Request Flow</text>
</g>
<!-- L2 -->
<g id="node26" class="node">
<title>L2</title>
<text xml:space="preserve" text-anchor="middle" x="2630" y="-1197.23" font-family="Arial" font-size="10.00">Cloudflare Tunnel</text>
</g>
<!-- L1&#45;&gt;L2 -->
<!-- L3 -->
<g id="node27" class="node">
<title>L3</title>
<text xml:space="preserve" text-anchor="middle" x="2630" y="-1004.23" font-family="Arial" font-size="10.00">Application Processing</text>
</g>
<!-- L2&#45;&gt;L3 -->
<!-- L4 -->
<g id="node28" class="node">
<title>L4</title>
<text xml:space="preserve" text-anchor="middle" x="2630" y="-794.23" font-family="Arial" font-size="10.00">Database Operations</text>
</g>
<!-- L3&#45;&gt;L4 -->
<!-- L5 -->
<g id="node29" class="node">
<title>L5</title>
<text xml:space="preserve" text-anchor="middle" x="2630" y="-609.23" font-family="Arial" font-size="10.00">Docker Network</text>
</g>
<!-- L4&#45;&gt;L5 -->
<!-- L6 -->
<g id="node30" class="node">
<title>L6</title>
<text xml:space="preserve" text-anchor="middle" x="2630" y="-415.11" font-family="Arial" font-size="10.00">Volume/Storage</text>
</g>
<!-- L5&#45;&gt;L6 -->
<!-- L7 -->
<g id="node31" class="node">
<title>L7</title>
<text xml:space="preserve" text-anchor="middle" x="2630" y="-225.5" font-family="Arial" font-size="10.00">Monitoring</text>
</g>
<!-- L6&#45;&gt;L7 -->
</g>
</svg>
