<?xml version="1.0" encoding="UTF-8" standalone="no"?>
<!DOCTYPE svg PUBLIC "-//W3C//DTD SVG 1.1//EN"
 "http://www.w3.org/Graphics/SVG/1.1/DTD/svg11.dtd">
<!-- Generated by graphviz version 14.0.4 (20251115.1723)
 -->
<!-- Title: UseCaseDiagram Pages: 1 -->
<svg width="951pt" height="2494pt"
 viewBox="0.00 0.00 951.00 2494.00" xmlns="http://www.w3.org/2000/svg" xmlns:xlink="http://www.w3.org/1999/xlink">
<g id="graph0" class="graph" transform="scale(1 1) rotate(0) translate(4 2490)">
<title>UseCaseDiagram</title>
<polygon fill="white" stroke="none" points="-4,4 -4,-2490 947.27,-2490 947.27,4 -4,4"/>
<g id="clust1" class="cluster">
<title>cluster_actors</title>
</g>
<g id="clust2" class="cluster">
<title>cluster_system</title>
<polygon fill="none" stroke="black" stroke-dasharray="5,2" points="259.17,-1002 259.17,-2373 935.27,-2373 935.27,-1002 259.17,-1002"/>
<text xml:space="preserve" text-anchor="middle" x="597.22" y="-2357.6" font-family="Times New Roman,serif" font-size="12.00">Gym Membership Management System</text>
</g>
<g id="clust3" class="cluster">
<title>cluster_legend</title>
<polygon fill="none" stroke="black" points="8,-2407 8,-2478 662.43,-2478 662.43,-2407 8,-2407"/>
<text xml:space="preserve" text-anchor="middle" x="335.21" y="-2464.5" font-family="Times New Roman,serif" font-size="10.00">Legend</text>
</g>
<!-- Owner -->
<g id="node1" class="node">
<title>Owner</title>
<ellipse fill="lightblue" stroke="black" cx="66.21" cy="-1266" rx="27" ry="18"/>
<text xml:space="preserve" text-anchor="middle" x="66.21" y="-1262.5" font-family="Arial" font-size="10.00">Owner</text>
</g>
<!-- UC1 -->
<g id="node4" class="node">
<title>UC1</title>
<ellipse fill="lightyellow" stroke="black" cx="324.1" cy="-1150" rx="55.33" ry="22.63"/>
<text xml:space="preserve" text-anchor="middle" x="324.1" y="-1152.5" font-family="Arial" font-size="10.00">Manage</text>
<text xml:space="preserve" text-anchor="middle" x="324.1" y="-1140.5" font-family="Arial" font-size="10.00">Authentication</text>
</g>
<!-- Owner&#45;&gt;UC1 -->
<g id="edge10" class="edge">
<title>Owner&#45;&gt;UC1</title>
<path fill="none" stroke="black" stroke-dasharray="5,2" d="M91.97,-1260C148.06,-1260 276.27,-1260 276.27,-1260 276.27,-1260 276.27,-1173.29 276.27,-1173.29"/>
<polygon fill="black" stroke="black" points="279.77,-1173.29 276.27,-1163.29 272.77,-1173.29 279.77,-1173.29"/>
<text xml:space="preserve" text-anchor="middle" x="191.8" y="-1247.95" font-family="Arial" font-size="9.00">login</text>
</g>
<!-- UC2 -->
<g id="node5" class="node">
<title>UC2</title>
<ellipse fill="lightyellow" stroke="black" cx="596.1" cy="-1277" rx="52.68" ry="22.63"/>
<text xml:space="preserve" text-anchor="middle" x="596.1" y="-1279.5" font-family="Arial" font-size="10.00">Register</text>
<text xml:space="preserve" text-anchor="middle" x="596.1" y="-1267.5" font-family="Arial" font-size="10.00">New Member</text>
</g>
<!-- Owner&#45;&gt;UC2 -->
<g id="edge11" class="edge">
<title>Owner&#45;&gt;UC2</title>
<path fill="none" stroke="black" stroke-dasharray="5,2" d="M87.27,-1277.64C87.27,-1285.57 87.27,-1294.63 87.27,-1294.63 87.27,-1294.63 550.41,-1294.63 550.41,-1294.63"/>
<polygon fill="black" stroke="black" points="550.41,-1298.13 560.41,-1294.63 550.41,-1291.13 550.41,-1298.13"/>
</g>
<!-- UC3 -->
<g id="node6" class="node">
<title>UC3</title>
<ellipse fill="lightyellow" stroke="black" cx="596.1" cy="-1160" rx="38.89" ry="22.63"/>
<text xml:space="preserve" text-anchor="middle" x="596.1" y="-1162.5" font-family="Arial" font-size="10.00">Process</text>
<text xml:space="preserve" text-anchor="middle" x="596.1" y="-1150.5" font-family="Arial" font-size="10.00">Payment</text>
</g>
<!-- Owner&#45;&gt;UC3 -->
<g id="edge12" class="edge">
<title>Owner&#45;&gt;UC3</title>
<path fill="none" stroke="black" stroke-dasharray="5,2" d="M54.27,-1249.74C54.27,-1239.09 54.27,-1227.12 54.27,-1227.12 54.27,-1227.12 609.27,-1227.12 609.27,-1227.12 609.27,-1227.12 609.27,-1193.12 609.27,-1193.12"/>
<polygon fill="black" stroke="black" points="612.77,-1193.12 609.27,-1183.12 605.77,-1193.12 612.77,-1193.12"/>
</g>
<!-- UC4 -->
<g id="node7" class="node">
<title>UC4</title>
<ellipse fill="lightyellow" stroke="black" cx="596.1" cy="-1033" rx="38.89" ry="22.63"/>
<text xml:space="preserve" text-anchor="middle" x="596.1" y="-1035.5" font-family="Arial" font-size="10.00">Record</text>
<text xml:space="preserve" text-anchor="middle" x="596.1" y="-1023.5" font-family="Arial" font-size="10.00">Check&#45;in</text>
</g>
<!-- Owner&#45;&gt;UC4 -->
<g id="edge13" class="edge">
<title>Owner&#45;&gt;UC4</title>
<path fill="none" stroke="black" stroke-dasharray="5,2" d="M47.27,-1252.7C47.27,-1236.1 47.27,-1209.88 47.27,-1209.88 47.27,-1209.88 548.27,-1209.88 548.27,-1209.88 548.27,-1209.88 548.27,-1040.54 548.27,-1040.54 548.27,-1040.54 549.33,-1040.54 549.33,-1040.54"/>
<polygon fill="black" stroke="black" points="547.37,-1044.04 557.37,-1040.54 547.37,-1037.04 547.37,-1044.04"/>
</g>
<!-- UC5 -->
<g id="node8" class="node">
<title>UC5</title>
<ellipse fill="lightyellow" stroke="black" cx="324.1" cy="-1033" rx="43.13" ry="22.63"/>
<text xml:space="preserve" text-anchor="middle" x="324.1" y="-1035.5" font-family="Arial" font-size="10.00">Record</text>
<text xml:space="preserve" text-anchor="middle" x="324.1" y="-1023.5" font-family="Arial" font-size="10.00">Check&#45;out</text>
</g>
<!-- Owner&#45;&gt;UC5 -->
<g id="edge14" class="edge">
<title>Owner&#45;&gt;UC5</title>
<path fill="none" stroke="black" stroke-dasharray="5,2" d="M86.99,-1254C99.6,-1254 113.27,-1254 113.27,-1254 113.27,-1254 113.27,-1047.31 113.27,-1047.31 113.27,-1047.31 278.71,-1047.31 278.71,-1047.31"/>
<polygon fill="black" stroke="black" points="278.71,-1050.81 288.71,-1047.31 278.71,-1043.81 278.71,-1050.81"/>
</g>
<!-- UC6 -->
<g id="node9" class="node">
<title>UC6</title>
<ellipse fill="lightyellow" stroke="black" cx="324.1" cy="-1384" rx="44.72" ry="22.63"/>
<text xml:space="preserve" text-anchor="middle" x="324.1" y="-1386.5" font-family="Arial" font-size="10.00">View</text>
<text xml:space="preserve" text-anchor="middle" x="324.1" y="-1374.5" font-family="Arial" font-size="10.00">Dashboard</text>
</g>
<!-- Owner&#45;&gt;UC6 -->
<g id="edge15" class="edge">
<title>Owner&#45;&gt;UC6</title>
<path fill="none" stroke="black" d="M86.93,-1278C141.01,-1278 282.27,-1278 282.27,-1278 282.27,-1278 282.27,-1363.81 282.27,-1363.81"/>
<polygon fill="black" stroke="black" points="278.77,-1363.81 282.27,-1373.81 285.77,-1363.81 278.77,-1363.81"/>
<text xml:space="preserve" text-anchor="middle" x="191.8" y="-1590.95" font-family="Arial" font-size="9.00">views</text>
</g>
<!-- UC7 -->
<g id="node10" class="node">
<title>UC7</title>
<ellipse fill="lightyellow" stroke="black" cx="324.1" cy="-1267" rx="36.24" ry="22.63"/>
<text xml:space="preserve" text-anchor="middle" x="324.1" y="-1269.5" font-family="Arial" font-size="10.00">Search</text>
<text xml:space="preserve" text-anchor="middle" x="324.1" y="-1257.5" font-family="Arial" font-size="10.00">Member</text>
</g>
<!-- Owner&#45;&gt;UC7 -->
<g id="edge16" class="edge">
<title>Owner&#45;&gt;UC7</title>
<path fill="none" stroke="black" stroke-dasharray="5,2" d="M91.88,-1272C91.88,-1272 276.78,-1272 276.78,-1272"/>
<polygon fill="black" stroke="black" points="276.78,-1275.5 286.78,-1272 276.78,-1268.5 276.78,-1275.5"/>
</g>
<!-- UC8 -->
<g id="node11" class="node">
<title>UC8</title>
<ellipse fill="lightyellow" stroke="black" cx="324.1" cy="-1618" rx="50.56" ry="22.63"/>
<text xml:space="preserve" text-anchor="middle" x="324.1" y="-1620.5" font-family="Arial" font-size="10.00">Edit Member</text>
<text xml:space="preserve" text-anchor="middle" x="324.1" y="-1608.5" font-family="Arial" font-size="10.00">Profile</text>
</g>
<!-- Owner&#45;&gt;UC8 -->
<g id="edge17" class="edge">
<title>Owner&#45;&gt;UC8</title>
<path fill="none" stroke="black" stroke-dasharray="5,2" d="M75.27,-1283.34C75.27,-1355.16 75.27,-1625.54 75.27,-1625.54 75.27,-1625.54 264.61,-1625.54 264.61,-1625.54"/>
<polygon fill="black" stroke="black" points="264.61,-1629.04 274.61,-1625.54 264.61,-1622.04 264.61,-1629.04"/>
</g>
<!-- UC9 -->
<g id="node12" class="node">
<title>UC9</title>
<ellipse fill="lightyellow" stroke="black" cx="324.1" cy="-1501" rx="56.39" ry="22.63"/>
<text xml:space="preserve" text-anchor="middle" x="324.1" y="-1503.5" font-family="Arial" font-size="10.00">View Payment</text>
<text xml:space="preserve" text-anchor="middle" x="324.1" y="-1491.5" font-family="Arial" font-size="10.00">History</text>
</g>
<!-- Owner&#45;&gt;UC9 -->
<g id="edge18" class="edge">
<title>Owner&#45;&gt;UC9</title>
<path fill="none" stroke="black" stroke-dasharray="5,2" d="M81.27,-1281.42C81.27,-1333.7 81.27,-1501 81.27,-1501 81.27,-1501 255.96,-1501 255.96,-1501"/>
<polygon fill="black" stroke="black" points="255.96,-1504.5 265.96,-1501 255.96,-1497.5 255.96,-1504.5"/>
</g>
<!-- UC10 -->
<g id="node13" class="node">
<title>UC10</title>
<ellipse fill="lightyellow" stroke="black" cx="324.1" cy="-2203" rx="56.92" ry="22.63"/>
<text xml:space="preserve" text-anchor="middle" x="324.1" y="-2205.5" font-family="Arial" font-size="10.00">View Analytics</text>
<text xml:space="preserve" text-anchor="middle" x="324.1" y="-2193.5" font-family="Arial" font-size="10.00">Reports</text>
</g>
<!-- Owner&#45;&gt;UC10 -->
<g id="edge19" class="edge">
<title>Owner&#45;&gt;UC10</title>
<path fill="none" stroke="black" d="M45.27,-1277.85C45.27,-1386.31 45.27,-2203 45.27,-2203 45.27,-2203 255.48,-2203 255.48,-2203"/>
<polygon fill="black" stroke="black" points="255.48,-2206.5 265.48,-2203 255.48,-2199.5 255.48,-2206.5"/>
<text xml:space="preserve" text-anchor="middle" x="191.8" y="-2276.95" font-family="Arial" font-size="9.00">views</text>
</g>
<!-- UC11 -->
<g id="node14" class="node">
<title>UC11</title>
<ellipse fill="lightcoral" stroke="black" cx="324.1" cy="-2086" rx="52.15" ry="22.63"/>
<text xml:space="preserve" text-anchor="middle" x="324.1" y="-2088.5" font-family="Arial" font-size="10.00">Manage Staff</text>
<text xml:space="preserve" text-anchor="middle" x="324.1" y="-2076.5" font-family="Arial" font-size="10.00">Accounts</text>
</g>
<!-- Owner&#45;&gt;UC11 -->
<g id="edge20" class="edge">
<title>Owner&#45;&gt;UC11</title>
<path fill="none" stroke="black" d="M51.27,-1281.29C51.27,-1393.54 51.27,-2086 51.27,-2086 51.27,-2086 259.98,-2086 259.98,-2086"/>
<polygon fill="black" stroke="black" points="259.98,-2089.5 269.98,-2086 259.98,-2082.5 259.98,-2089.5"/>
<text xml:space="preserve" text-anchor="middle" x="191.8" y="-2188.95" font-family="Arial" font-size="9.00">manages</text>
</g>
<!-- UC12 -->
<g id="node15" class="node">
<title>UC12</title>
<ellipse fill="lightcoral" stroke="black" cx="324.1" cy="-1969" rx="41.01" ry="22.63"/>
<text xml:space="preserve" text-anchor="middle" x="324.1" y="-1971.5" font-family="Arial" font-size="10.00">Configure</text>
<text xml:space="preserve" text-anchor="middle" x="324.1" y="-1959.5" font-family="Arial" font-size="10.00">Pricing</text>
</g>
<!-- Owner&#45;&gt;UC12 -->
<g id="edge21" class="edge">
<title>Owner&#45;&gt;UC12</title>
<path fill="none" stroke="black" d="M57.27,-1283.38C57.27,-1391.63 57.27,-1969 57.27,-1969 57.27,-1969 271.18,-1969 271.18,-1969"/>
<polygon fill="black" stroke="black" points="271.18,-1972.5 281.18,-1969 271.18,-1965.5 271.18,-1972.5"/>
<text xml:space="preserve" text-anchor="middle" x="191.8" y="-2100.95" font-family="Arial" font-size="9.00">configures</text>
</g>
<!-- UC13 -->
<g id="node16" class="node">
<title>UC13</title>
<ellipse fill="lightcoral" stroke="black" cx="324.1" cy="-1852" rx="44.72" ry="22.63"/>
<text xml:space="preserve" text-anchor="middle" x="324.1" y="-1854.5" font-family="Arial" font-size="10.00">Soft&#45;delete</text>
<text xml:space="preserve" text-anchor="middle" x="324.1" y="-1842.5" font-family="Arial" font-size="10.00">Member</text>
</g>
<!-- Owner&#45;&gt;UC13 -->
<g id="edge22" class="edge">
<title>Owner&#45;&gt;UC13</title>
<path fill="none" stroke="black" d="M63.27,-1284.18C63.27,-1383.09 63.27,-1852 63.27,-1852 63.27,-1852 267.45,-1852 267.45,-1852"/>
<polygon fill="black" stroke="black" points="267.45,-1855.5 277.45,-1852 267.45,-1848.5 267.45,-1855.5"/>
<text xml:space="preserve" text-anchor="middle" x="191.8" y="-2012.95" font-family="Arial" font-size="9.00">deletes</text>
</g>
<!-- UC14 -->
<g id="node17" class="node">
<title>UC14</title>
<ellipse fill="lightcoral" stroke="black" cx="324.1" cy="-1735" rx="44.19" ry="22.63"/>
<text xml:space="preserve" text-anchor="middle" x="324.1" y="-1737.5" font-family="Arial" font-size="10.00">View Audit</text>
<text xml:space="preserve" text-anchor="middle" x="324.1" y="-1725.5" font-family="Arial" font-size="10.00">Logs</text>
</g>
<!-- Owner&#45;&gt;UC14 -->
<g id="edge23" class="edge">
<title>Owner&#45;&gt;UC14</title>
<path fill="none" stroke="black" d="M69.27,-1284.1C69.27,-1370.29 69.27,-1735 69.27,-1735 69.27,-1735 267.9,-1735 267.9,-1735"/>
<polygon fill="black" stroke="black" points="267.9,-1738.5 277.9,-1735 267.9,-1731.5 267.9,-1738.5"/>
<text xml:space="preserve" text-anchor="middle" x="191.8" y="-1924.95" font-family="Arial" font-size="9.00">views</text>
</g>
<!-- Staff -->
<g id="node2" class="node">
<title>Staff</title>
<ellipse fill="lightblue" stroke="black" cx="66.21" cy="-1158" rx="27" ry="18"/>
<text xml:space="preserve" text-anchor="middle" x="66.21" y="-1154.5" font-family="Arial" font-size="10.00">Staff</text>
</g>
<!-- Staff&#45;&gt;UC1 -->
<g id="edge1" class="edge">
<title>Staff&#45;&gt;UC1</title>
<path fill="none" stroke="black" d="M92.36,-1153.05C92.36,-1153.05 257.31,-1153.05 257.31,-1153.05"/>
<polygon fill="black" stroke="black" points="257.31,-1156.55 267.31,-1153.05 257.31,-1149.55 257.31,-1156.55"/>
<text xml:space="preserve" text-anchor="middle" x="191.8" y="-992.95" font-family="Arial" font-size="9.00">login</text>
</g>
<!-- Staff&#45;&gt;UC2 -->
<g id="edge2" class="edge">
<title>Staff&#45;&gt;UC2</title>
<path fill="none" stroke="black" d="M78.27,-1174.32C78.27,-1180.75 78.27,-1186.63 78.27,-1186.63 78.27,-1186.63 552.27,-1186.63 552.27,-1186.63 552.27,-1186.63 552.27,-1252.54 552.27,-1252.54"/>
<polygon fill="black" stroke="black" points="548.77,-1252.54 552.27,-1262.54 555.77,-1252.54 548.77,-1252.54"/>
<text xml:space="preserve" text-anchor="middle" x="324.1" y="-612.95" font-family="Arial" font-size="9.00">registers</text>
</g>
<!-- Staff&#45;&gt;UC3 -->
<g id="edge3" class="edge">
<title>Staff&#45;&gt;UC3</title>
<path fill="none" stroke="black" d="M85.27,-1171.31C85.27,-1177.97 85.27,-1184.63 85.27,-1184.63 85.27,-1184.63 583.27,-1184.63 583.27,-1184.63 583.27,-1184.63 583.27,-1184.33 583.27,-1184.33"/>
<polygon fill="black" stroke="black" points="586.77,-1193.12 583.27,-1183.12 579.77,-1193.12 586.77,-1193.12"/>
<text xml:space="preserve" text-anchor="middle" x="324.1" y="-311.95" font-family="Arial" font-size="9.00">processes</text>
</g>
<!-- Staff&#45;&gt;UC4 -->
<g id="edge4" class="edge">
<title>Staff&#45;&gt;UC4</title>
<path fill="none" stroke="black" d="M66.27,-1139.81C66.27,-1123.3 66.27,-1101.5 66.27,-1101.5 66.27,-1101.5 609.27,-1101.5 609.27,-1101.5 609.27,-1101.5 609.27,-1066.19 609.27,-1066.19"/>
<polygon fill="black" stroke="black" points="612.77,-1066.19 609.27,-1056.19 605.77,-1066.19 612.77,-1066.19"/>
<text xml:space="preserve" text-anchor="middle" x="324.1" y="-156.95" font-family="Arial" font-size="9.00">records</text>
</g>
<!-- Staff&#45;&gt;UC5 -->
<g id="edge5" class="edge">
<title>Staff&#45;&gt;UC5</title>
<path fill="none" stroke="black" d="M87.73,-1146.53C98.91,-1146.53 110.27,-1146.53 110.27,-1146.53 110.27,-1146.53 110.27,-1039 110.27,-1039 110.27,-1039 270.59,-1039 270.59,-1039"/>
<polygon fill="black" stroke="black" points="270.59,-1042.5 280.59,-1039 270.59,-1035.5 270.59,-1042.5"/>
<text xml:space="preserve" text-anchor="middle" x="191.8" y="-825.95" font-family="Arial" font-size="9.00">records</text>
</g>
<!-- Staff&#45;&gt;UC6 -->
<g id="edge6" class="edge">
<title>Staff&#45;&gt;UC6</title>
<path fill="none" stroke="black" d="M70.27,-1176.17C70.27,-1182.77 70.27,-1188.63 70.27,-1188.63 70.27,-1188.63 285.27,-1188.63 285.27,-1188.63 285.27,-1188.63 285.27,-1360.85 285.27,-1360.85"/>
<polygon fill="black" stroke="black" points="281.77,-1360.85 285.27,-1370.85 288.77,-1360.85 281.77,-1360.85"/>
<text xml:space="preserve" text-anchor="middle" x="191.8" y="-1335.95" font-family="Arial" font-size="9.00">views</text>
</g>
<!-- Staff&#45;&gt;UC7 -->
<g id="edge7" class="edge">
<title>Staff&#45;&gt;UC7</title>
<path fill="none" stroke="black" d="M90.84,-1166.1C95.14,-1166.1 98.27,-1166.1 98.27,-1166.1 98.27,-1166.1 98.27,-1266 98.27,-1266 98.27,-1266 276.05,-1266 276.05,-1266"/>
<polygon fill="black" stroke="black" points="276.05,-1269.5 286.05,-1266 276.05,-1262.5 276.05,-1269.5"/>
<text xml:space="preserve" text-anchor="middle" x="191.8" y="-1159.95" font-family="Arial" font-size="9.00">searches</text>
</g>
<!-- Staff&#45;&gt;UC8 -->
<g id="edge8" class="edge">
<title>Staff&#45;&gt;UC8</title>
<path fill="none" stroke="black" d="M93.37,-1159.58C101.01,-1159.58 107.27,-1159.58 107.27,-1159.58 107.27,-1159.58 107.27,-1610.46 107.27,-1610.46 107.27,-1610.46 264.46,-1610.46 264.46,-1610.46"/>
<polygon fill="black" stroke="black" points="264.46,-1613.96 274.46,-1610.46 264.46,-1606.96 264.46,-1613.96"/>
<text xml:space="preserve" text-anchor="middle" x="191.8" y="-1678.95" font-family="Arial" font-size="9.00">edits</text>
</g>
<!-- Staff&#45;&gt;UC9 -->
<g id="edge9" class="edge">
<title>Staff&#45;&gt;UC9</title>
<path fill="none" stroke="black" d="M62.27,-1176.22C62.27,-1183.7 62.27,-1190.63 62.27,-1190.63 62.27,-1190.63 272.27,-1190.63 272.27,-1190.63 272.27,-1190.63 272.27,-1480.2 272.27,-1480.2"/>
<polygon fill="black" stroke="black" points="268.77,-1480.2 272.27,-1490.2 275.77,-1480.2 268.77,-1480.2"/>
<text xml:space="preserve" text-anchor="middle" x="191.8" y="-1502.95" font-family="Arial" font-size="9.00">views</text>
</g>
<!-- Member -->
<g id="node3" class="node">
<title>Member</title>
<ellipse fill="lightgray" stroke="black" cx="66.21" cy="-1045" rx="37.83" ry="22.63"/>
<text xml:space="preserve" text-anchor="middle" x="66.21" y="-1047.5" font-family="Arial" font-size="10.00">Member</text>
<text xml:space="preserve" text-anchor="middle" x="66.21" y="-1035.5" font-family="Arial" font-size="10.00">(Implicit)</text>
</g>
<!-- Member&#45;&gt;UC4 -->
<g id="edge24" class="edge">
<title>Member&#45;&gt;UC4</title>
<path fill="none" stroke="black" stroke-dasharray="1,5" d="M92.56,-1061.63C197.93,-1061.63 583.27,-1061.63 583.27,-1061.63 583.27,-1061.63 583.27,-1060.93 583.27,-1060.93"/>
<polygon fill="black" stroke="black" points="586.77,-1066.21 583.27,-1056.21 579.77,-1066.21 586.77,-1066.21"/>
<text xml:space="preserve" text-anchor="middle" x="324.1" y="-1.95" font-family="Arial" font-size="9.00">arrives at</text>
</g>
<!-- Member&#45;&gt;UC5 -->
<g id="edge25" class="edge">
<title>Member&#45;&gt;UC5</title>
<path fill="none" stroke="black" stroke-dasharray="1,5" d="M96.3,-1030.69C96.3,-1030.69 269.41,-1030.69 269.41,-1030.69"/>
<polygon fill="black" stroke="black" points="269.41,-1034.19 279.41,-1030.69 269.41,-1027.19 269.41,-1034.19"/>
<text xml:space="preserve" text-anchor="middle" x="191.8" y="-737.95" font-family="Arial" font-size="9.00">leaves</text>
</g>
<!-- UC16 -->
<g id="node19" class="node">
<title>UC16</title>
<ellipse fill="lightgreen" stroke="black" cx="870.35" cy="-1170" rx="49.5" ry="22.63"/>
<text xml:space="preserve" text-anchor="middle" x="870.35" y="-1172.5" font-family="Arial" font-size="10.00">Calculate</text>
<text xml:space="preserve" text-anchor="middle" x="870.35" y="-1160.5" font-family="Arial" font-size="10.00">Subscription</text>
</g>
<!-- UC3&#45;&gt;UC16 -->
<g id="edge27" class="edge">
<title>UC3&#45;&gt;UC16</title>
<path fill="none" stroke="black" stroke-dasharray="5,2" d="M635.39,-1159.12C635.39,-1159.12 815.38,-1159.12 815.38,-1159.12"/>
<polygon fill="black" stroke="black" points="825.38,-1159.12 815.38,-1163.62 821.59,-1159.12 815.38,-1159.12 815.38,-1159.12 815.38,-1159.12 821.59,-1159.12 815.38,-1154.62 825.38,-1159.12"/>
<text xml:space="preserve" text-anchor="middle" x="733.93" y="-1171.95" font-family="Arial" font-size="9.00">&lt;&lt;include&gt;&gt;</text>
</g>
<!-- UC17 -->
<g id="node20" class="node">
<title>UC17</title>
<ellipse fill="lightgreen" stroke="black" cx="870.35" cy="-1287" rx="56.92" ry="22.63"/>
<text xml:space="preserve" text-anchor="middle" x="870.35" y="-1289.5" font-family="Arial" font-size="10.00">Generate</text>
<text xml:space="preserve" text-anchor="middle" x="870.35" y="-1277.5" font-family="Arial" font-size="10.00">Transaction ID</text>
</g>
<!-- UC3&#45;&gt;UC17 -->
<g id="edge28" class="edge">
<title>UC3&#45;&gt;UC17</title>
<path fill="none" stroke="black" stroke-dasharray="5,2" d="M630.66,-1170.88C692.86,-1170.88 817.27,-1170.88 817.27,-1170.88 817.27,-1170.88 817.27,-1267.05 817.27,-1267.05"/>
<polygon fill="black" stroke="black" points="817.27,-1277.05 812.77,-1267.05 817.27,-1273.27 817.27,-1267.05 817.27,-1267.05 817.27,-1267.05 817.27,-1273.27 821.77,-1267.05 817.27,-1277.05"/>
<text xml:space="preserve" text-anchor="middle" x="733.93" y="-1273.95" font-family="Arial" font-size="9.00">&lt;&lt;include&gt;&gt;</text>
</g>
<!-- UC15 -->
<g id="node18" class="node">
<title>UC15</title>
<ellipse fill="lightgreen" stroke="black" cx="870.35" cy="-1053" rx="48.97" ry="22.63"/>
<text xml:space="preserve" text-anchor="middle" x="870.35" y="-1055.5" font-family="Arial" font-size="10.00">Validate</text>
<text xml:space="preserve" text-anchor="middle" x="870.35" y="-1043.5" font-family="Arial" font-size="10.00">Membership</text>
</g>
<!-- UC4&#45;&gt;UC15 -->
<g id="edge26" class="edge">
<title>UC4&#45;&gt;UC15</title>
<path fill="none" stroke="black" stroke-dasharray="5,2" d="M631.39,-1043C631.39,-1043 814.91,-1043 814.91,-1043"/>
<polygon fill="black" stroke="black" points="824.91,-1043 814.91,-1047.5 821.12,-1043 814.91,-1043 814.91,-1043 814.91,-1043 821.12,-1043 814.91,-1038.5 824.91,-1043"/>
<text xml:space="preserve" text-anchor="middle" x="733.93" y="-1083.95" font-family="Arial" font-size="9.00">&lt;&lt;include&gt;&gt;</text>
</g>
<!-- UC18 -->
<g id="node21" class="node">
<title>UC18</title>
<ellipse fill="lightgreen" stroke="black" cx="324.1" cy="-2320" rx="46.32" ry="22.63"/>
<text xml:space="preserve" text-anchor="middle" x="324.1" y="-2322.5" font-family="Arial" font-size="10.00">Send</text>
<text xml:space="preserve" text-anchor="middle" x="324.1" y="-2310.5" font-family="Arial" font-size="10.00">Notification</text>
</g>
<!-- UC18&#45;&gt;UC2 -->
<g id="edge31" class="edge">
<title>UC18&#45;&gt;UC2</title>
<path fill="none" stroke="black" stroke-dasharray="5,2" d="M376.36,-2331.31C376.36,-2331.31 596.27,-2331.31 596.27,-2331.31 596.27,-2331.31 596.27,-1454.18 596.27,-1300"/>
<polygon fill="black" stroke="black" points="376.36,-2327.81 366.36,-2331.31 376.36,-2334.81 376.36,-2327.81"/>
<text xml:space="preserve" text-anchor="middle" x="459.39" y="-1799.95" font-family="Arial" font-size="9.00">&lt;&lt;extend&gt;&gt;</text>
</g>
<!-- UC18&#45;&gt;UC3 -->
<g id="edge29" class="edge">
<title>UC18&#45;&gt;UC3</title>
<path fill="none" stroke="black" stroke-dasharray="5,2" d="M382.23,-2320C382.23,-2320 485.27,-2320 485.27,-2320 485.27,-2320 485.27,-1155 485.27,-1155 485.27,-1155 525.64,-1155 557.65,-1155"/>
<polygon fill="black" stroke="black" points="382.23,-2316.5 372.23,-2320 382.23,-2323.5 382.23,-2316.5"/>
<text xml:space="preserve" text-anchor="middle" x="459.39" y="-1709.95" font-family="Arial" font-size="9.00">&lt;&lt;extend&gt;&gt;</text>
</g>
<!-- UC18&#45;&gt;UC4 -->
<g id="edge30" class="edge">
<title>UC18&#45;&gt;UC4</title>
<path fill="none" stroke="black" stroke-dasharray="5,2" d="M376.26,-2308.69C376.26,-2308.69 433.27,-2308.69 433.27,-2308.69 433.27,-2308.69 433.27,-1025.46 433.27,-1025.46 433.27,-1025.46 511.11,-1025.46 559.15,-1025.46"/>
<polygon fill="black" stroke="black" points="376.26,-2305.19 366.26,-2308.69 376.26,-2312.19 376.26,-2305.19"/>
<text xml:space="preserve" text-anchor="middle" x="459.39" y="-1617.95" font-family="Arial" font-size="9.00">&lt;&lt;extend&gt;&gt;</text>
</g>
<!-- L1 -->
<g id="node22" class="node">
<title>L1</title>
<ellipse fill="lightyellow" stroke="black" cx="66.21" cy="-2433" rx="50.21" ry="18"/>
<text xml:space="preserve" text-anchor="middle" x="66.21" y="-2429.5" font-family="Arial" font-size="10.00">Staff Use Case</text>
</g>
<!-- L2 -->
<g id="node23" class="node">
<title>L2</title>
<ellipse fill="lightcoral" stroke="black" cx="324.1" cy="-2433" rx="40.74" ry="18"/>
<text xml:space="preserve" text-anchor="middle" x="324.1" y="-2429.5" font-family="Arial" font-size="10.00">Owner Only</text>
</g>
<!-- L1&#45;&gt;L2 -->
<!-- L3 -->
<g id="node24" class="node">
<title>L3</title>
<ellipse fill="lightgreen" stroke="black" cx="596.1" cy="-2433" rx="58.33" ry="18"/>
<text xml:space="preserve" text-anchor="middle" x="596.1" y="-2429.5" font-family="Arial" font-size="10.00">Included/Extended</text>
</g>
<!-- L2&#45;&gt;L3 -->
</g>
</svg>
