<?xml version="1.0" encoding="UTF-8" standalone="no"?>
<!DOCTYPE svg PUBLIC "-//W3C//DTD SVG 1.1//EN"
 "http://www.w3.org/Graphics/SVG/1.1/DTD/svg11.dtd">
<!-- Generated by graphviz version 14.0.4 (20251115.1723)
 -->
<!-- Title: UserStoryMap Pages: 1 -->
<svg width="1109pt" height="1280pt"
 viewBox="0.00 0.00 1109.00 1280.00" xmlns="http://www.w3.org/2000/svg" xmlns:xlink="http://www.w3.org/1999/xlink">
<g id="graph0" class="graph" transform="scale(1 1) rotate(0) translate(4 1276)">
<title>UserStoryMap</title>
<polygon fill="white" stroke="none" points="-4,4 -4,-1276 1105,-1276 1105,4 -4,4"/>
<g id="clust1" class="cluster">
<title>cluster_activities</title>
<polygon fill="#e6f7ff" stroke="black" points="207,-624.38 207,-1172.25 326,-1172.25 326,-624.38 207,-624.38"/>
<text xml:space="preserve" text-anchor="middle" x="266.5" y="-1157.8" font-family="Times New Roman,serif" font-size="11.00">User Activities (Epics)</text>
</g>
<g id="clust2" class="cluster">
<title>cluster_auth_stories</title>
</g>
<g id="clust3" class="cluster">
<title>cluster_member_stories</title>
</g>
<g id="clust4" class="cluster">
<title>cluster_payment_stories</title>
</g>
<g id="clust5" class="cluster">
<title>cluster_facility_stories</title>
</g>
<g id="clust6" class="cluster">
<title>cluster_analytics_stories</title>
</g>
<g id="clust7" class="cluster">
<title>cluster_admin_stories</title>
</g>
<g id="clust8" class="cluster">
<title>cluster_priorities</title>
<polygon fill="#fff5e6" stroke="black" points="796,-141.5 796,-508 928,-508 928,-141.5 796,-141.5"/>
<text xml:space="preserve" text-anchor="middle" x="862" y="-493.55" font-family="Times New Roman,serif" font-size="11.00">Implementation Priority</text>
</g>
<g id="clust9" class="cluster">
<title>cluster_legend</title>
<polygon fill="none" stroke="black" points="975,-814.88 975,-1264 1093,-1264 1093,-814.88 975,-814.88"/>
<text xml:space="preserve" text-anchor="middle" x="1034" y="-1250.5" font-family="Times New Roman,serif" font-size="10.00">Legend</text>
</g>
<!-- Title -->
<g id="node1" class="node">
<title>Title</title>
<polygon fill="lightblue" stroke="black" stroke-width="2" points="361.62,-1236.75 196.38,-1236.75 196.38,-1200.75 361.62,-1200.75 361.62,-1236.75"/>
<text xml:space="preserve" text-anchor="middle" x="279" y="-1213.33" font-family="Arial" font-size="14.00">GyMMS User Story Map</text>
</g>
<!-- A1 -->
<g id="node2" class="node">
<title>A1</title>
<path fill="lightblue" stroke="black" d="M306.12,-1142.75C306.12,-1142.75 251.88,-1142.75 251.88,-1142.75 245.88,-1142.75 239.88,-1136.75 239.88,-1130.75 239.88,-1130.75 239.88,-1118.75 239.88,-1118.75 239.88,-1112.75 245.88,-1106.75 251.88,-1106.75 251.88,-1106.75 306.12,-1106.75 306.12,-1106.75 312.12,-1106.75 318.12,-1112.75 318.12,-1118.75 318.12,-1118.75 318.12,-1130.75 318.12,-1130.75 318.12,-1136.75 312.12,-1142.75 306.12,-1142.75"/>
<text xml:space="preserve" text-anchor="middle" x="279" y="-1127.25" font-family="Arial" font-size="10.00">Authentication</text>
<text xml:space="preserve" text-anchor="middle" x="279" y="-1115.25" font-family="Arial" font-size="10.00">&amp; Access</text>
</g>
<!-- Title&#45;&gt;A1 -->
<!-- A2 -->
<g id="node3" class="node">
<title>A2</title>
<path fill="lightgreen" stroke="black" d="M304.12,-1048.75C304.12,-1048.75 255.88,-1048.75 255.88,-1048.75 249.88,-1048.75 243.88,-1042.75 243.88,-1036.75 243.88,-1036.75 243.88,-1024.75 243.88,-1024.75 243.88,-1018.75 249.88,-1012.75 255.88,-1012.75 255.88,-1012.75 304.12,-1012.75 304.12,-1012.75 310.12,-1012.75 316.12,-1018.75 316.12,-1024.75 316.12,-1024.75 316.12,-1036.75 316.12,-1036.75 316.12,-1042.75 310.12,-1048.75 304.12,-1048.75"/>
<text xml:space="preserve" text-anchor="middle" x="280" y="-1033.25" font-family="Arial" font-size="10.00">Member</text>
<text xml:space="preserve" text-anchor="middle" x="280" y="-1021.25" font-family="Arial" font-size="10.00">Management</text>
</g>
<!-- A1&#45;&gt;A2 -->
<!-- S1_1 -->
<g id="node8" class="node">
<title>S1_1</title>
<polygon fill="white" stroke="black" points="993.25,-764.25 888.75,-764.25 888.75,-727 999.25,-727 999.25,-758.25 993.25,-764.25"/>
<polyline fill="none" stroke="black" points="993.25,-764.25 993.25,-758.25"/>
<polyline fill="none" stroke="black" points="999.25,-758.25 993.25,-758.25"/>
<text xml:space="preserve" text-anchor="middle" x="944" y="-752.65" font-family="Arial" font-size="8.00">As a staff member,</text>
<text xml:space="preserve" text-anchor="middle" x="944" y="-742.9" font-family="Arial" font-size="8.00">I want to log in securely</text>
<text xml:space="preserve" text-anchor="middle" x="944" y="-733.15" font-family="Arial" font-size="8.00">so I can access the system</text>
</g>
<!-- A1&#45;&gt;S1_1 -->
<g id="edge24" class="edge">
<title>A1&#45;&gt;S1_1</title>
<path fill="none" stroke="lightblue" d="M311.07,-1106.46C423.15,-1042.57 796.69,-829.61 910.68,-764.62"/>
</g>
<!-- A3 -->
<g id="node4" class="node">
<title>A3</title>
<path fill="lightcoral" stroke="black" d="M300.38,-954.12C300.38,-954.12 259.62,-954.12 259.62,-954.12 253.62,-954.12 247.62,-948.12 247.62,-942.12 247.62,-942.12 247.62,-930.12 247.62,-930.12 247.62,-924.12 253.62,-918.12 259.62,-918.12 259.62,-918.12 300.38,-918.12 300.38,-918.12 306.38,-918.12 312.38,-924.12 312.38,-930.12 312.38,-930.12 312.38,-942.12 312.38,-942.12 312.38,-948.12 306.38,-954.12 300.38,-954.12"/>
<text xml:space="preserve" text-anchor="middle" x="280" y="-938.62" font-family="Arial" font-size="10.00">Payment</text>
<text xml:space="preserve" text-anchor="middle" x="280" y="-926.62" font-family="Arial" font-size="10.00">Processing</text>
</g>
<!-- A2&#45;&gt;A3 -->
<!-- S2_1 -->
<g id="node11" class="node">
<title>S2_1</title>
<polygon fill="white" stroke="black" points="829.38,-954.75 680.62,-954.75 680.62,-917.5 835.38,-917.5 835.38,-948.75 829.38,-954.75"/>
<polyline fill="none" stroke="black" points="829.38,-954.75 829.38,-948.75"/>
<polyline fill="none" stroke="black" points="835.38,-948.75 829.38,-948.75"/>
<text xml:space="preserve" text-anchor="middle" x="758" y="-943.15" font-family="Arial" font-size="8.00">As staff,</text>
<text xml:space="preserve" text-anchor="middle" x="758" y="-933.4" font-family="Arial" font-size="8.00">I want to register new members quickly</text>
<text xml:space="preserve" text-anchor="middle" x="758" y="-923.65" font-family="Arial" font-size="8.00">without paperwork delays</text>
</g>
<!-- A2&#45;&gt;S2_1 -->
<g id="edge25" class="edge">
<title>A2&#45;&gt;S2_1</title>
<path fill="none" stroke="lightgreen" d="M316.32,-1022.71C393.55,-1007.75 575.58,-972.47 680.25,-952.19"/>
</g>
<!-- A4 -->
<g id="node5" class="node">
<title>A4</title>
<path fill="lightyellow" stroke="black" d="M284,-858.88C284,-858.88 254,-858.88 254,-858.88 248,-858.88 242,-852.88 242,-846.88 242,-846.88 242,-834.88 242,-834.88 242,-828.88 248,-822.88 254,-822.88 254,-822.88 284,-822.88 284,-822.88 290,-822.88 296,-828.88 296,-834.88 296,-834.88 296,-846.88 296,-846.88 296,-852.88 290,-858.88 284,-858.88"/>
<text xml:space="preserve" text-anchor="middle" x="269" y="-843.38" font-family="Arial" font-size="10.00">Facility</text>
<text xml:space="preserve" text-anchor="middle" x="269" y="-831.38" font-family="Arial" font-size="10.00">Access</text>
</g>
<!-- A3&#45;&gt;A4 -->
<!-- S3_1 -->
<g id="node16" class="node">
<title>S3_1</title>
<polygon fill="white" stroke="black" points="620.25,-859.5 497.75,-859.5 497.75,-822.25 626.25,-822.25 626.25,-853.5 620.25,-859.5"/>
<polyline fill="none" stroke="black" points="620.25,-859.5 620.25,-853.5"/>
<polyline fill="none" stroke="black" points="626.25,-853.5 620.25,-853.5"/>
<text xml:space="preserve" text-anchor="middle" x="562" y="-847.9" font-family="Arial" font-size="8.00">As staff,</text>
<text xml:space="preserve" text-anchor="middle" x="562" y="-838.15" font-family="Arial" font-size="8.00">I want to process payments</text>
<text xml:space="preserve" text-anchor="middle" x="562" y="-828.4" font-family="Arial" font-size="8.00">with auto subscription extension</text>
</g>
<!-- A3&#45;&gt;S3_1 -->
<g id="edge26" class="edge">
<title>A3&#45;&gt;S3_1</title>
<path fill="none" stroke="lightcoral" d="M312.62,-924.34C360.25,-908.59 449.42,-879.1 507.22,-859.99"/>
</g>
<!-- A5 -->
<g id="node6" class="node">
<title>A5</title>
<path fill="lightcyan" stroke="black" d="M290.12,-763.62C290.12,-763.62 247.88,-763.62 247.88,-763.62 241.88,-763.62 235.88,-757.62 235.88,-751.62 235.88,-751.62 235.88,-739.62 235.88,-739.62 235.88,-733.62 241.88,-727.62 247.88,-727.62 247.88,-727.62 290.12,-727.62 290.12,-727.62 296.12,-727.62 302.12,-733.62 302.12,-739.62 302.12,-739.62 302.12,-751.62 302.12,-751.62 302.12,-757.62 296.12,-763.62 290.12,-763.62"/>
<text xml:space="preserve" text-anchor="middle" x="269" y="-748.12" font-family="Arial" font-size="10.00">Analytics &amp;</text>
<text xml:space="preserve" text-anchor="middle" x="269" y="-736.12" font-family="Arial" font-size="10.00">Reporting</text>
</g>
<!-- A4&#45;&gt;A5 -->
<!-- S4_1 -->
<g id="node20" class="node">
<title>S4_1</title>
<polygon fill="white" stroke="black" points="149.5,-764.25 16.5,-764.25 16.5,-727 155.5,-727 155.5,-758.25 149.5,-764.25"/>
<polyline fill="none" stroke="black" points="149.5,-764.25 149.5,-758.25"/>
<polyline fill="none" stroke="black" points="155.5,-758.25 149.5,-758.25"/>
<text xml:space="preserve" text-anchor="middle" x="86" y="-752.65" font-family="Arial" font-size="8.00">As staff,</text>
<text xml:space="preserve" text-anchor="middle" x="86" y="-742.9" font-family="Arial" font-size="8.00">I want to check in members quickly</text>
<text xml:space="preserve" text-anchor="middle" x="86" y="-733.15" font-family="Arial" font-size="8.00">without disrupting their workout</text>
</g>
<!-- A4&#45;&gt;S4_1 -->
<g id="edge27" class="edge">
<title>A4&#45;&gt;S4_1</title>
<path fill="none" stroke="lightyellow" d="M241.6,-825.91C209.6,-809.61 156.56,-782.58 121.44,-764.69"/>
</g>
<!-- A6 -->
<g id="node7" class="node">
<title>A6</title>
<path fill="wheat" stroke="black" d="M284.12,-668.38C284.12,-668.38 229.88,-668.38 229.88,-668.38 223.88,-668.38 217.88,-662.38 217.88,-656.38 217.88,-656.38 217.88,-644.38 217.88,-644.38 217.88,-638.38 223.88,-632.38 229.88,-632.38 229.88,-632.38 284.12,-632.38 284.12,-632.38 290.12,-632.38 296.12,-638.38 296.12,-644.38 296.12,-644.38 296.12,-656.38 296.12,-656.38 296.12,-662.38 290.12,-668.38 284.12,-668.38"/>
<text xml:space="preserve" text-anchor="middle" x="257" y="-652.88" font-family="Arial" font-size="10.00">System</text>
<text xml:space="preserve" text-anchor="middle" x="257" y="-640.88" font-family="Arial" font-size="10.00">Administration</text>
</g>
<!-- A5&#45;&gt;A6 -->
<!-- S5_1 -->
<g id="node24" class="node">
<title>S5_1</title>
<polygon fill="white" stroke="black" points="458.25,-669 341.75,-669 341.75,-631.75 464.25,-631.75 464.25,-663 458.25,-669"/>
<polyline fill="none" stroke="black" points="458.25,-669 458.25,-663"/>
<polyline fill="none" stroke="black" points="464.25,-663 458.25,-663"/>
<text xml:space="preserve" text-anchor="middle" x="403" y="-657.4" font-family="Arial" font-size="8.00">As owner,</text>
<text xml:space="preserve" text-anchor="middle" x="403" y="-647.65" font-family="Arial" font-size="8.00">I want a dashboard overview</text>
<text xml:space="preserve" text-anchor="middle" x="403" y="-637.9" font-family="Arial" font-size="8.00">to understand business health</text>
</g>
<!-- A5&#45;&gt;S5_1 -->
<g id="edge28" class="edge">
<title>A5&#45;&gt;S5_1</title>
<path fill="none" stroke="lightcyan" d="M293.89,-727.3C317.66,-710.77 353.31,-685.95 377.33,-669.24"/>
</g>
<!-- S6_1 -->
<g id="node28" class="node">
<title>S6_1</title>
<polygon fill="white" stroke="black" points="305.62,-573.75 182.38,-573.75 182.38,-536.5 311.62,-536.5 311.62,-567.75 305.62,-573.75"/>
<polyline fill="none" stroke="black" points="305.62,-573.75 305.62,-567.75"/>
<polyline fill="none" stroke="black" points="311.62,-567.75 305.62,-567.75"/>
<text xml:space="preserve" text-anchor="middle" x="247" y="-562.15" font-family="Arial" font-size="8.00">As owner,</text>
<text xml:space="preserve" text-anchor="middle" x="247" y="-552.4" font-family="Arial" font-size="8.00">I want to manage staff accounts</text>
<text xml:space="preserve" text-anchor="middle" x="247" y="-542.65" font-family="Arial" font-size="8.00">for access control</text>
</g>
<!-- A6&#45;&gt;S6_1 -->
<g id="edge29" class="edge">
<title>A6&#45;&gt;S6_1</title>
<path fill="none" stroke="wheat" d="M255.17,-632.27C253.4,-615.76 250.73,-590.86 248.92,-574.07"/>
</g>
<!-- S1_2 -->
<g id="node9" class="node">
<title>S1_2</title>
<polygon fill="white" stroke="black" points="1019.12,-669 880.88,-669 880.88,-631.75 1025.12,-631.75 1025.12,-663 1019.12,-669"/>
<polyline fill="none" stroke="black" points="1019.12,-669 1019.12,-663"/>
<polyline fill="none" stroke="black" points="1025.12,-663 1019.12,-663"/>
<text xml:space="preserve" text-anchor="middle" x="953" y="-657.4" font-family="Arial" font-size="8.00">As an owner,</text>
<text xml:space="preserve" text-anchor="middle" x="953" y="-647.65" font-family="Arial" font-size="8.00">I want role&#45;based access</text>
<text xml:space="preserve" text-anchor="middle" x="953" y="-637.9" font-family="Arial" font-size="8.00">so staff can&#39;t access admin functions</text>
</g>
<!-- S1_1&#45;&gt;S1_2 -->
<!-- S1_3 -->
<g id="node10" class="node">
<title>S1_3</title>
<polygon fill="white" stroke="black" points="1004.38,-573.75 885.62,-573.75 885.62,-536.5 1010.38,-536.5 1010.38,-567.75 1004.38,-573.75"/>
<polyline fill="none" stroke="black" points="1004.38,-573.75 1004.38,-567.75"/>
<polyline fill="none" stroke="black" points="1010.38,-567.75 1004.38,-567.75"/>
<text xml:space="preserve" text-anchor="middle" x="948" y="-562.15" font-family="Arial" font-size="8.00">As a user,</text>
<text xml:space="preserve" text-anchor="middle" x="948" y="-552.4" font-family="Arial" font-size="8.00">I want to change my password</text>
<text xml:space="preserve" text-anchor="middle" x="948" y="-542.65" font-family="Arial" font-size="8.00">for security</text>
</g>
<!-- S1_2&#45;&gt;S1_3 -->
<!-- P1 -->
<g id="node31" class="node">
<title>P1</title>
<polygon fill="#90ee90" stroke="black" points="915.75,-478.5 808.25,-478.5 808.25,-407.5 915.75,-407.5 915.75,-478.5"/>
<text xml:space="preserve" text-anchor="middle" x="862" y="-465.95" font-family="Arial" font-size="9.00">MVP (Must Have)</text>
<text xml:space="preserve" text-anchor="middle" x="862" y="-455.45" font-family="Arial" font-size="9.00">• Authentication</text>
<text xml:space="preserve" text-anchor="middle" x="862" y="-444.95" font-family="Arial" font-size="9.00">• Member Registration</text>
<text xml:space="preserve" text-anchor="middle" x="862" y="-434.45" font-family="Arial" font-size="9.00">• Payment Processing</text>
<text xml:space="preserve" text-anchor="middle" x="862" y="-423.95" font-family="Arial" font-size="9.00">• Basic Check&#45;in</text>
<text xml:space="preserve" text-anchor="middle" x="862" y="-413.45" font-family="Arial" font-size="9.00">• Dashboard Overview</text>
</g>
<!-- S1_3&#45;&gt;P1 -->
<!-- S2_2 -->
<g id="node12" class="node">
<title>S2_2</title>
<polygon fill="white" stroke="black" points="829.25,-859.5 682.75,-859.5 682.75,-822.25 835.25,-822.25 835.25,-853.5 829.25,-859.5"/>
<polyline fill="none" stroke="black" points="829.25,-859.5 829.25,-853.5"/>
<polyline fill="none" stroke="black" points="835.25,-853.5 829.25,-853.5"/>
<text xml:space="preserve" text-anchor="middle" x="759" y="-847.9" font-family="Arial" font-size="8.00">As staff,</text>
<text xml:space="preserve" text-anchor="middle" x="759" y="-838.15" font-family="Arial" font-size="8.00">I want to search members by name/ID</text>
<text xml:space="preserve" text-anchor="middle" x="759" y="-828.4" font-family="Arial" font-size="8.00">to find them fast</text>
</g>
<!-- S2_1&#45;&gt;S2_2 -->
<!-- S2_3 -->
<g id="node13" class="node">
<title>S2_3</title>
<polygon fill="white" stroke="black" points="814.88,-764.25 699.12,-764.25 699.12,-727 820.88,-727 820.88,-758.25 814.88,-764.25"/>
<polyline fill="none" stroke="black" points="814.88,-764.25 814.88,-758.25"/>
<polyline fill="none" stroke="black" points="820.88,-758.25 814.88,-758.25"/>
<text xml:space="preserve" text-anchor="middle" x="760" y="-752.65" font-family="Arial" font-size="8.00">As staff,</text>
<text xml:space="preserve" text-anchor="middle" x="760" y="-742.9" font-family="Arial" font-size="8.00">I want to edit member profiles</text>
<text xml:space="preserve" text-anchor="middle" x="760" y="-733.15" font-family="Arial" font-size="8.00">when info changes</text>
</g>
<!-- S2_2&#45;&gt;S2_3 -->
<!-- S2_4 -->
<g id="node14" class="node">
<title>S2_4</title>
<polygon fill="white" stroke="black" points="832.25,-669 679.75,-669 679.75,-631.75 838.25,-631.75 838.25,-663 832.25,-669"/>
<polyline fill="none" stroke="black" points="832.25,-669 832.25,-663"/>
<polyline fill="none" stroke="black" points="838.25,-663 832.25,-663"/>
<text xml:space="preserve" text-anchor="middle" x="759" y="-657.4" font-family="Arial" font-size="8.00">As staff,</text>
<text xml:space="preserve" text-anchor="middle" x="759" y="-647.65" font-family="Arial" font-size="8.00">I want to see member status at a glance</text>
<text xml:space="preserve" text-anchor="middle" x="759" y="-637.9" font-family="Arial" font-size="8.00">to know who needs renewal</text>
</g>
<!-- S2_3&#45;&gt;S2_4 -->
<!-- S2_5 -->
<g id="node15" class="node">
<title>S2_5</title>
<polygon fill="white" stroke="black" points="823.25,-573.75 706.75,-573.75 706.75,-536.5 829.25,-536.5 829.25,-567.75 823.25,-573.75"/>
<polyline fill="none" stroke="black" points="823.25,-573.75 823.25,-567.75"/>
<polyline fill="none" stroke="black" points="829.25,-567.75 823.25,-567.75"/>
<text xml:space="preserve" text-anchor="middle" x="768" y="-562.15" font-family="Arial" font-size="8.00">As owner,</text>
<text xml:space="preserve" text-anchor="middle" x="768" y="-552.4" font-family="Arial" font-size="8.00">I want to soft&#45;delete members</text>
<text xml:space="preserve" text-anchor="middle" x="768" y="-542.65" font-family="Arial" font-size="8.00">preserving payment history</text>
</g>
<!-- S2_4&#45;&gt;S2_5 -->
<!-- S2_5&#45;&gt;P1 -->
<!-- S3_2 -->
<g id="node17" class="node">
<title>S3_2</title>
<polygon fill="white" stroke="black" points="649.75,-764.25 488.25,-764.25 488.25,-727 655.75,-727 655.75,-758.25 649.75,-764.25"/>
<polyline fill="none" stroke="black" points="649.75,-764.25 649.75,-758.25"/>
<polyline fill="none" stroke="black" points="655.75,-758.25 649.75,-758.25"/>
<text xml:space="preserve" text-anchor="middle" x="572" y="-752.65" font-family="Arial" font-size="8.00">As staff,</text>
<text xml:space="preserve" text-anchor="middle" x="572" y="-742.9" font-family="Arial" font-size="8.00">I want to accept multiple payment methods</text>
<text xml:space="preserve" text-anchor="middle" x="572" y="-733.15" font-family="Arial" font-size="8.00">for member convenience</text>
</g>
<!-- S3_1&#45;&gt;S3_2 -->
<!-- S3_3 -->
<g id="node18" class="node">
<title>S3_3</title>
<polygon fill="white" stroke="black" points="627.62,-669 510.38,-669 510.38,-631.75 633.62,-631.75 633.62,-663 627.62,-669"/>
<polyline fill="none" stroke="black" points="627.62,-669 627.62,-663"/>
<polyline fill="none" stroke="black" points="633.62,-663 627.62,-663"/>
<text xml:space="preserve" text-anchor="middle" x="572" y="-657.4" font-family="Arial" font-size="8.00">As owner,</text>
<text xml:space="preserve" text-anchor="middle" x="572" y="-647.65" font-family="Arial" font-size="8.00">I want to view payment history</text>
<text xml:space="preserve" text-anchor="middle" x="572" y="-637.9" font-family="Arial" font-size="8.00">for financial tracking</text>
</g>
<!-- S3_2&#45;&gt;S3_3 -->
<!-- S3_4 -->
<g id="node19" class="node">
<title>S3_4</title>
<polygon fill="white" stroke="black" points="624.62,-573.75 513.38,-573.75 513.38,-536.5 630.62,-536.5 630.62,-567.75 624.62,-573.75"/>
<polyline fill="none" stroke="black" points="624.62,-573.75 624.62,-567.75"/>
<polyline fill="none" stroke="black" points="630.62,-567.75 624.62,-567.75"/>
<text xml:space="preserve" text-anchor="middle" x="572" y="-562.15" font-family="Arial" font-size="8.00">As owner,</text>
<text xml:space="preserve" text-anchor="middle" x="572" y="-552.4" font-family="Arial" font-size="8.00">I want transaction audit trails</text>
<text xml:space="preserve" text-anchor="middle" x="572" y="-542.65" font-family="Arial" font-size="8.00">for accountability</text>
</g>
<!-- S3_3&#45;&gt;S3_4 -->
<!-- S4_2 -->
<g id="node21" class="node">
<title>S4_2</title>
<polygon fill="white" stroke="black" points="137.75,-669 24.25,-669 24.25,-631.75 143.75,-631.75 143.75,-663 137.75,-669"/>
<polyline fill="none" stroke="black" points="137.75,-669 137.75,-663"/>
<polyline fill="none" stroke="black" points="143.75,-663 137.75,-663"/>
<text xml:space="preserve" text-anchor="middle" x="84" y="-657.4" font-family="Arial" font-size="8.00">As staff,</text>
<text xml:space="preserve" text-anchor="middle" x="84" y="-647.65" font-family="Arial" font-size="8.00">I want membership validation</text>
<text xml:space="preserve" text-anchor="middle" x="84" y="-637.9" font-family="Arial" font-size="8.00">to prevent expired access</text>
</g>
<!-- S4_1&#45;&gt;S4_2 -->
<!-- S4_3 -->
<g id="node22" class="node">
<title>S4_3</title>
<polygon fill="white" stroke="black" points="133.38,-573.75 26.62,-573.75 26.62,-536.5 139.38,-536.5 139.38,-567.75 133.38,-573.75"/>
<polyline fill="none" stroke="black" points="133.38,-573.75 133.38,-567.75"/>
<polyline fill="none" stroke="black" points="139.38,-567.75 133.38,-567.75"/>
<text xml:space="preserve" text-anchor="middle" x="83" y="-562.15" font-family="Arial" font-size="8.00">As staff,</text>
<text xml:space="preserve" text-anchor="middle" x="83" y="-552.4" font-family="Arial" font-size="8.00">I want to record check&#45;outs</text>
<text xml:space="preserve" text-anchor="middle" x="83" y="-542.65" font-family="Arial" font-size="8.00">for session tracking</text>
</g>
<!-- S4_2&#45;&gt;S4_3 -->
<!-- S4_4 -->
<g id="node23" class="node">
<title>S4_4</title>
<polygon fill="white" stroke="black" points="130.38,-461.62 29.63,-461.62 29.63,-424.38 136.38,-424.38 136.38,-455.62 130.38,-461.62"/>
<polyline fill="none" stroke="black" points="130.38,-461.62 130.38,-455.62"/>
<polyline fill="none" stroke="black" points="136.38,-455.62 130.38,-455.62"/>
<text xml:space="preserve" text-anchor="middle" x="83" y="-450.02" font-family="Arial" font-size="8.00">As owner,</text>
<text xml:space="preserve" text-anchor="middle" x="83" y="-440.27" font-family="Arial" font-size="8.00">I want daily check&#45;in limits</text>
<text xml:space="preserve" text-anchor="middle" x="83" y="-430.52" font-family="Arial" font-size="8.00">to prevent abuse</text>
</g>
<!-- S4_3&#45;&gt;S4_4 -->
<!-- S5_2 -->
<g id="node25" class="node">
<title>S5_2</title>
<polygon fill="white" stroke="black" points="457.5,-573.75 354.5,-573.75 354.5,-536.5 463.5,-536.5 463.5,-567.75 457.5,-573.75"/>
<polyline fill="none" stroke="black" points="457.5,-573.75 457.5,-567.75"/>
<polyline fill="none" stroke="black" points="463.5,-567.75 457.5,-567.75"/>
<text xml:space="preserve" text-anchor="middle" x="409" y="-562.15" font-family="Arial" font-size="8.00">As owner,</text>
<text xml:space="preserve" text-anchor="middle" x="409" y="-552.4" font-family="Arial" font-size="8.00">I want membership trends</text>
<text xml:space="preserve" text-anchor="middle" x="409" y="-542.65" font-family="Arial" font-size="8.00">for growth tracking</text>
</g>
<!-- S5_1&#45;&gt;S5_2 -->
<!-- S5_3 -->
<g id="node26" class="node">
<title>S5_3</title>
<polygon fill="white" stroke="black" points="451.5,-461.62 360.5,-461.62 360.5,-424.38 457.5,-424.38 457.5,-455.62 451.5,-461.62"/>
<polyline fill="none" stroke="black" points="451.5,-461.62 451.5,-455.62"/>
<polyline fill="none" stroke="black" points="457.5,-455.62 451.5,-455.62"/>
<text xml:space="preserve" text-anchor="middle" x="409" y="-450.02" font-family="Arial" font-size="8.00">As owner,</text>
<text xml:space="preserve" text-anchor="middle" x="409" y="-440.27" font-family="Arial" font-size="8.00">I want revenue reports</text>
<text xml:space="preserve" text-anchor="middle" x="409" y="-430.52" font-family="Arial" font-size="8.00">for financial planning</text>
</g>
<!-- S5_2&#45;&gt;S5_3 -->
<!-- S5_4 -->
<g id="node27" class="node">
<title>S5_4</title>
<polygon fill="white" stroke="black" points="457.88,-332.62 354.12,-332.62 354.12,-295.38 463.88,-295.38 463.88,-326.62 457.88,-332.62"/>
<polyline fill="none" stroke="black" points="457.88,-332.62 457.88,-326.62"/>
<polyline fill="none" stroke="black" points="463.88,-326.62 457.88,-326.62"/>
<text xml:space="preserve" text-anchor="middle" x="409" y="-321.02" font-family="Arial" font-size="8.00">As owner,</text>
<text xml:space="preserve" text-anchor="middle" x="409" y="-311.27" font-family="Arial" font-size="8.00">I want facility usage data</text>
<text xml:space="preserve" text-anchor="middle" x="409" y="-301.52" font-family="Arial" font-size="8.00">for peak hour identification</text>
</g>
<!-- S5_3&#45;&gt;S5_4 -->
<!-- S6_2 -->
<g id="node29" class="node">
<title>S6_2</title>
<polygon fill="white" stroke="black" points="303.38,-461.62 184.62,-461.62 184.62,-424.38 309.38,-424.38 309.38,-455.62 303.38,-461.62"/>
<polyline fill="none" stroke="black" points="303.38,-461.62 303.38,-455.62"/>
<polyline fill="none" stroke="black" points="309.38,-455.62 303.38,-455.62"/>
<text xml:space="preserve" text-anchor="middle" x="247" y="-450.02" font-family="Arial" font-size="8.00">As owner,</text>
<text xml:space="preserve" text-anchor="middle" x="247" y="-440.27" font-family="Arial" font-size="8.00">I want to configure pricing tiers</text>
<text xml:space="preserve" text-anchor="middle" x="247" y="-430.52" font-family="Arial" font-size="8.00">for flexible offerings</text>
</g>
<!-- S6_1&#45;&gt;S6_2 -->
<!-- S6_3 -->
<g id="node30" class="node">
<title>S6_3</title>
<polygon fill="white" stroke="black" points="278.62,-332.62 209.38,-332.62 209.38,-295.38 284.62,-295.38 284.62,-326.62 278.62,-332.62"/>
<polyline fill="none" stroke="black" points="278.62,-332.62 278.62,-326.62"/>
<polyline fill="none" stroke="black" points="284.62,-326.62 278.62,-326.62"/>
<text xml:space="preserve" text-anchor="middle" x="247" y="-321.02" font-family="Arial" font-size="8.00">As owner,</text>
<text xml:space="preserve" text-anchor="middle" x="247" y="-311.27" font-family="Arial" font-size="8.00">I want audit logs</text>
<text xml:space="preserve" text-anchor="middle" x="247" y="-301.52" font-family="Arial" font-size="8.00">for accountability</text>
</g>
<!-- S6_2&#45;&gt;S6_3 -->
<!-- P2 -->
<g id="node32" class="node">
<title>P2</title>
<polygon fill="#ffd700" stroke="black" points="917.62,-349.5 806.38,-349.5 806.38,-278.5 917.62,-278.5 917.62,-349.5"/>
<text xml:space="preserve" text-anchor="middle" x="862" y="-336.95" font-family="Arial" font-size="9.00">Phase 2 (Should Have)</text>
<text xml:space="preserve" text-anchor="middle" x="862" y="-326.45" font-family="Arial" font-size="9.00">• Advanced Search</text>
<text xml:space="preserve" text-anchor="middle" x="862" y="-315.95" font-family="Arial" font-size="9.00">• Check&#45;out Tracking</text>
<text xml:space="preserve" text-anchor="middle" x="862" y="-305.45" font-family="Arial" font-size="9.00">• Analytics Charts</text>
<text xml:space="preserve" text-anchor="middle" x="862" y="-294.95" font-family="Arial" font-size="9.00">• Staff Management</text>
<text xml:space="preserve" text-anchor="middle" x="862" y="-284.45" font-family="Arial" font-size="9.00">• Audit Logs</text>
</g>
<!-- P1&#45;&gt;P2 -->
<!-- P3 -->
<g id="node33" class="node">
<title>P3</title>
<polygon fill="#87ceeb" stroke="black" points="919.5,-220.5 804.5,-220.5 804.5,-149.5 919.5,-149.5 919.5,-220.5"/>
<text xml:space="preserve" text-anchor="middle" x="862" y="-207.95" font-family="Arial" font-size="9.00">Future (Nice to Have)</text>
<text xml:space="preserve" text-anchor="middle" x="862" y="-197.45" font-family="Arial" font-size="9.00">• Mobile App</text>
<text xml:space="preserve" text-anchor="middle" x="862" y="-186.95" font-family="Arial" font-size="9.00">• Email Notifications</text>
<text xml:space="preserve" text-anchor="middle" x="862" y="-176.45" font-family="Arial" font-size="9.00">• Advanced Reports</text>
<text xml:space="preserve" text-anchor="middle" x="862" y="-165.95" font-family="Arial" font-size="9.00">• Inventory Management</text>
<text xml:space="preserve" text-anchor="middle" x="862" y="-155.45" font-family="Arial" font-size="9.00">• Class Scheduling</text>
</g>
<!-- P2&#45;&gt;P3 -->
<!-- Notes -->
<g id="node39" class="node">
<title>Notes</title>
<polygon fill="lightyellow" stroke="black" points="901.88,-91.5 816.12,-91.5 816.12,0 907.88,0 907.88,-85.5 901.88,-91.5"/>
<polyline fill="none" stroke="black" points="901.88,-91.5 901.88,-85.5"/>
<polyline fill="none" stroke="black" points="907.88,-85.5 901.88,-85.5"/>
<text xml:space="preserve" text-anchor="middle" x="862" y="-78.95" font-family="Arial" font-size="9.00">User Story Format:</text>
<text xml:space="preserve" text-anchor="middle" x="862" y="-68.45" font-family="Arial" font-size="9.00">As a [role],</text>
<text xml:space="preserve" text-anchor="middle" x="862" y="-57.95" font-family="Arial" font-size="9.00">I want to [action],</text>
<text xml:space="preserve" text-anchor="middle" x="862" y="-47.45" font-family="Arial" font-size="9.00">So that [benefit]</text>
<text xml:space="preserve" text-anchor="middle" x="862" y="-26.95" font-family="Arial" font-size="9.00">Total Stories: 23</text>
<text xml:space="preserve" text-anchor="middle" x="862" y="-16.45" font-family="Arial" font-size="9.00">Epics: 6</text>
<text xml:space="preserve" text-anchor="middle" x="862" y="-5.95" font-family="Arial" font-size="9.00">MVP Stories: 8</text>
</g>
<!-- P3&#45;&gt;Notes -->
<!-- L1 -->
<g id="node34" class="node">
<title>L1</title>
<path fill="lightblue" stroke="black" d="M1068.25,-1236.75C1068.25,-1236.75 999.75,-1236.75 999.75,-1236.75 993.75,-1236.75 987.75,-1230.75 987.75,-1224.75 987.75,-1224.75 987.75,-1212.75 987.75,-1212.75 987.75,-1206.75 993.75,-1200.75 999.75,-1200.75 999.75,-1200.75 1068.25,-1200.75 1068.25,-1200.75 1074.25,-1200.75 1080.25,-1206.75 1080.25,-1212.75 1080.25,-1212.75 1080.25,-1224.75 1080.25,-1224.75 1080.25,-1230.75 1074.25,-1236.75 1068.25,-1236.75"/>
<text xml:space="preserve" text-anchor="middle" x="1034" y="-1215.45" font-family="Arial" font-size="9.00">User Activity (Epic)</text>
</g>
<!-- L2 -->
<g id="node35" class="node">
<title>L2</title>
<polygon fill="white" stroke="black" points="1072.38,-1142.75 989.62,-1142.75 989.62,-1106.75 1078.38,-1106.75 1078.38,-1136.75 1072.38,-1142.75"/>
<polyline fill="none" stroke="black" points="1072.38,-1142.75 1072.38,-1136.75"/>
<polyline fill="none" stroke="black" points="1078.38,-1136.75 1072.38,-1136.75"/>
<text xml:space="preserve" text-anchor="middle" x="1034" y="-1126.7" font-family="Arial" font-size="9.00">User Story</text>
<text xml:space="preserve" text-anchor="middle" x="1034" y="-1116.2" font-family="Arial" font-size="9.00">(I want... so that...)</text>
</g>
<!-- L1&#45;&gt;L2 -->
<!-- L3 -->
<g id="node36" class="node">
<title>L3</title>
<polygon fill="#90ee90" stroke="black" points="1067.12,-1048.75 1000.88,-1048.75 1000.88,-1012.75 1067.12,-1012.75 1067.12,-1048.75"/>
<text xml:space="preserve" text-anchor="middle" x="1034" y="-1027.45" font-family="Arial" font-size="9.00">MVP Priority</text>
</g>
<!-- L2&#45;&gt;L3 -->
<!-- L4 -->
<g id="node37" class="node">
<title>L4</title>
<polygon fill="#ffd700" stroke="black" points="1074.25,-954.12 993.75,-954.12 993.75,-918.12 1074.25,-918.12 1074.25,-954.12"/>
<text xml:space="preserve" text-anchor="middle" x="1034" y="-932.83" font-family="Arial" font-size="9.00">Phase 2 Priority</text>
</g>
<!-- L3&#45;&gt;L4 -->
<!-- L5 -->
<g id="node38" class="node">
<title>L5</title>
<polygon fill="#87ceeb" stroke="black" points="1084.75,-858.88 983.25,-858.88 983.25,-822.88 1084.75,-822.88 1084.75,-858.88"/>
<text xml:space="preserve" text-anchor="middle" x="1034" y="-837.58" font-family="Arial" font-size="9.00">Future Enhancement</text>
</g>
<!-- L4&#45;&gt;L5 -->
</g>
</svg>
