<?xml version="1.0" encoding="UTF-8" standalone="no"?>
<!DOCTYPE svg PUBLIC "-//W3C//DTD SVG 1.1//EN"
 "http://www.w3.org/Graphics/SVG/1.1/DTD/svg11.dtd">
<!-- Generated by graphviz version 14.0.4 (20251115.1723)
 -->
<!-- Title: SystemArchitecture Pages: 1 -->
<svg width="2363pt" height="1221pt"
 viewBox="0.00 0.00 2363.00 1221.00" xmlns="http://www.w3.org/2000/svg" xmlns:xlink="http://www.w3.org/1999/xlink">
<g id="graph0" class="graph" transform="scale(1 1) rotate(0) translate(4 1217)">
<title>SystemArchitecture</title>
<polygon fill="white" stroke="none" points="-4,4 -4,-1217 2359,-1217 2359,4 -4,4"/>
<g id="clust1" class="cluster">
<title>cluster_presentation</title>
<polygon fill="#e6f3ff" stroke="lightblue" points="8,-948 8,-1205 318,-1205 318,-948 8,-948"/>
<text xml:space="preserve" text-anchor="middle" x="163" y="-1189.6" font-family="Arial Bold" font-size="12.00">Presentation Tier</text>
<text xml:space="preserve" text-anchor="middle" x="163" y="-1175.35" font-family="Arial Bold" font-size="12.00">(Client Layer)</text>
</g>
<g id="clust2" class="cluster">
<title>cluster_devices</title>
</g>
<g id="clust3" class="cluster">
<title>cluster_application</title>
<polygon fill="#e6ffe6" stroke="lightgreen" points="326,-143.25 326,-1044.5 1074,-1044.5 1074,-143.25 326,-143.25"/>
<text xml:space="preserve" text-anchor="middle" x="700" y="-1029.1" font-family="Arial Bold" font-size="12.00">Application Tier</text>
<text xml:space="preserve" text-anchor="middle" x="700" y="-1014.85" font-family="Arial Bold" font-size="12.00">(Business Logic Layer)</text>
</g>
<g id="clust4" class="cluster">
<title>cluster_django</title>
<polygon fill="#f0fff0" stroke="lightgreen" points="532,-316 532,-710.25 682,-710.25 682,-316 532,-316"/>
<text xml:space="preserve" text-anchor="middle" x="607" y="-694.85" font-family="Arial Bold" font-size="12.00">Django 5.0+ Framework</text>
</g>
<g id="clust5" class="cluster">
<title>cluster_apps</title>
<polygon fill="#f5fff5" stroke="lightgreen" points="334,-151.25 334,-225.5 1066,-225.5 1066,-151.25 334,-151.25"/>
<text xml:space="preserve" text-anchor="middle" x="700" y="-210.1" font-family="Arial Bold" font-size="12.00">Django Applications (Modular)</text>
</g>
<g id="clust6" class="cluster">
<title>cluster_data</title>
<polygon fill="#ffe6e6" stroke="lightcoral" points="1109,-8 1109,-252 2347,-252 2347,-8 1109,-8"/>
<text xml:space="preserve" text-anchor="middle" x="1728" y="-236.6" font-family="Arial Bold" font-size="12.00">Data Tier</text>
<text xml:space="preserve" text-anchor="middle" x="1728" y="-222.35" font-family="Arial Bold" font-size="12.00">(Persistence Layer)</text>
</g>
<g id="clust7" class="cluster">
<title>cluster_schema</title>
<polygon fill="#fff0f0" stroke="lightcoral" points="1117,-16 1117,-90.25 2339,-90.25 2339,-16 1117,-16"/>
<text xml:space="preserve" text-anchor="middle" x="1728" y="-74.85" font-family="Arial Bold" font-size="12.00">Database Schema (9 Tables)</text>
</g>
<g id="clust8" class="cluster">
<title>cluster_infrastructure</title>
<polygon fill="#f0e6ff" stroke="mediumpurple" points="1653,-447 1653,-1197 2099,-1197 2099,-447 1653,-447"/>
<text xml:space="preserve" text-anchor="middle" x="1876" y="-1181.6" font-family="Arial Bold" font-size="12.00">Infrastructure Layer</text>
<text xml:space="preserve" text-anchor="middle" x="1876" y="-1167.35" font-family="Arial Bold" font-size="12.00">(Containerization &amp; Deployment)</text>
</g>
<g id="clust9" class="cluster">
<title>cluster_containers</title>
<polygon fill="#f5f0ff" stroke="mediumpurple" points="1824,-628 1824,-1030.25 1983,-1030.25 1983,-628 1824,-628"/>
<text xml:space="preserve" text-anchor="middle" x="1903.5" y="-1014.85" font-family="Arial Bold" font-size="12.00">Docker Containers</text>
</g>
<g id="clust10" class="cluster">
<title>cluster_hardware</title>
<polygon fill="#fff5e6" stroke="orange" points="1487,-622 1487,-879.25 1645,-879.25 1645,-622 1487,-622"/>
<text xml:space="preserve" text-anchor="middle" x="1566" y="-863.85" font-family="Arial Bold" font-size="12.00">Hardware Platform</text>
</g>
<g id="clust11" class="cluster">
<title>cluster_legend</title>
<polygon fill="none" stroke="black" points="2170,-473 2170,-1179.75 2316,-1179.75 2316,-473 2170,-473"/>
<text xml:space="preserve" text-anchor="middle" x="2243" y="-1166.25" font-family="Times New Roman,serif" font-size="10.00">Legend</text>
</g>
<!-- Desktop -->
<g id="node1" class="node">
<title>Desktop</title>
<path fill="white" stroke="black" d="M290,-1152.5C290,-1152.5 260,-1152.5 260,-1152.5 254,-1152.5 248,-1146.5 248,-1140.5 248,-1140.5 248,-1128.5 248,-1128.5 248,-1122.5 254,-1116.5 260,-1116.5 260,-1116.5 290,-1116.5 290,-1116.5 296,-1116.5 302,-1122.5 302,-1128.5 302,-1128.5 302,-1140.5 302,-1140.5 302,-1146.5 296,-1152.5 290,-1152.5"/>
<text xml:space="preserve" text-anchor="middle" x="275" y="-1137" font-family="Arial" font-size="10.00">Desktop</text>
<text xml:space="preserve" text-anchor="middle" x="275" y="-1125" font-family="Arial" font-size="10.00">Browser</text>
</g>
<!-- ClientTech -->
<g id="node4" class="node">
<title>ClientTech</title>
<polygon fill="lightyellow" stroke="black" points="217.62,-1000 52.38,-1000 52.38,-956 223.62,-956 223.62,-994 217.62,-1000"/>
<polyline fill="none" stroke="black" points="217.62,-1000 217.62,-994"/>
<polyline fill="none" stroke="black" points="223.62,-994 217.62,-994"/>
<text xml:space="preserve" text-anchor="middle" x="138" y="-986.5" font-family="Arial" font-size="10.00">HTML5 | CSS3 | JavaScript</text>
<text xml:space="preserve" text-anchor="middle" x="138" y="-974.5" font-family="Arial" font-size="10.00">Responsive Design (320px&#45;1920px)</text>
<text xml:space="preserve" text-anchor="middle" x="138" y="-962.5" font-family="Arial" font-size="10.00">Client&#45;side Validation</text>
</g>
<!-- Desktop&#45;&gt;ClientTech -->
<!-- WebServer -->
<g id="node5" class="node">
<title>WebServer</title>
<path fill="white" stroke="black" d="M461.88,-1000C461.88,-1000 364.12,-1000 364.12,-1000 358.12,-1000 352.12,-994 352.12,-988 352.12,-988 352.12,-968 352.12,-968 352.12,-962 358.12,-956 364.12,-956 364.12,-956 461.88,-956 461.88,-956 467.88,-956 473.88,-962 473.88,-968 473.88,-968 473.88,-988 473.88,-988 473.88,-994 467.88,-1000 461.88,-1000"/>
<text xml:space="preserve" text-anchor="middle" x="413" y="-986.5" font-family="Arial" font-size="10.00">Gunicorn WSGI Server</text>
<text xml:space="preserve" text-anchor="middle" x="413" y="-974.5" font-family="Arial" font-size="10.00">3 Workers | 60s Timeout</text>
<text xml:space="preserve" text-anchor="middle" x="413" y="-962.5" font-family="Arial" font-size="10.00">Port 8000</text>
</g>
<!-- Desktop&#45;&gt;WebServer -->
<g id="edge19" class="edge">
<title>Desktop&#45;&gt;WebServer</title>
<path fill="none" stroke="blue" stroke-width="2" d="M296.98,-1116.15C319.43,-1098.43 351,-1073.5 351,-1073.5 351,-1073.5 374.72,-1037.35 392.81,-1009.77"/>
<polygon fill="blue" stroke="blue" stroke-width="2" points="394.71,-1013.26 397.27,-1002.97 388.86,-1009.42 394.71,-1013.26"/>
<text xml:space="preserve" text-anchor="middle" x="383.89" y="-1064.95" font-family="Arial" font-size="9.00">HTTPS</text>
<text xml:space="preserve" text-anchor="middle" x="383.89" y="-1054.45" font-family="Arial" font-size="9.00">Requests</text>
</g>
<!-- Tablet -->
<g id="node2" class="node">
<title>Tablet</title>
<path fill="white" stroke="black" d="M66,-1152.5C66,-1152.5 36,-1152.5 36,-1152.5 30,-1152.5 24,-1146.5 24,-1140.5 24,-1140.5 24,-1128.5 24,-1128.5 24,-1122.5 30,-1116.5 36,-1116.5 36,-1116.5 66,-1116.5 66,-1116.5 72,-1116.5 78,-1122.5 78,-1128.5 78,-1128.5 78,-1140.5 78,-1140.5 78,-1146.5 72,-1152.5 66,-1152.5"/>
<text xml:space="preserve" text-anchor="middle" x="51" y="-1137" font-family="Arial" font-size="10.00">Tablet</text>
<text xml:space="preserve" text-anchor="middle" x="51" y="-1125" font-family="Arial" font-size="10.00">Browser</text>
</g>
<!-- Tablet&#45;&gt;ClientTech -->
<!-- Tablet&#45;&gt;WebServer -->
<g id="edge20" class="edge">
<title>Tablet&#45;&gt;WebServer</title>
<path fill="none" stroke="blue" stroke-width="2" d="M78.31,-1119.76C124.25,-1096.65 212,-1052.5 212,-1052.5 212,-1052.5 332,-1044.5 332,-1044.5 332,-1044.5 355.83,-1025.23 377.65,-1007.59"/>
<polygon fill="blue" stroke="blue" stroke-width="2" points="378.55,-1011.36 384.12,-1002.35 374.15,-1005.92 378.55,-1011.36"/>
<text xml:space="preserve" text-anchor="middle" x="231.5" y="-1064.95" font-family="Arial" font-size="9.00">HTTPS</text>
<text xml:space="preserve" text-anchor="middle" x="231.5" y="-1054.45" font-family="Arial" font-size="9.00">Requests</text>
</g>
<!-- Mobile -->
<g id="node3" class="node">
<title>Mobile</title>
<path fill="white" stroke="black" d="M178,-1152.5C178,-1152.5 148,-1152.5 148,-1152.5 142,-1152.5 136,-1146.5 136,-1140.5 136,-1140.5 136,-1128.5 136,-1128.5 136,-1122.5 142,-1116.5 148,-1116.5 148,-1116.5 178,-1116.5 178,-1116.5 184,-1116.5 190,-1122.5 190,-1128.5 190,-1128.5 190,-1140.5 190,-1140.5 190,-1146.5 184,-1152.5 178,-1152.5"/>
<text xml:space="preserve" text-anchor="middle" x="163" y="-1137" font-family="Arial" font-size="10.00">Mobile</text>
<text xml:space="preserve" text-anchor="middle" x="163" y="-1125" font-family="Arial" font-size="10.00">Browser</text>
</g>
<!-- Mobile&#45;&gt;ClientTech -->
<!-- Mobile&#45;&gt;WebServer -->
<g id="edge21" class="edge">
<title>Mobile&#45;&gt;WebServer</title>
<path fill="none" stroke="blue" stroke-width="2" d="M190.32,-1117.11C229.77,-1093.44 298,-1052.5 298,-1052.5 298,-1052.5 332,-1044.5 332,-1044.5 332,-1044.5 355.83,-1025.23 377.65,-1007.59"/>
<polygon fill="blue" stroke="blue" stroke-width="2" points="378.55,-1011.36 384.12,-1002.35 374.15,-1005.92 378.55,-1011.36"/>
<text xml:space="preserve" text-anchor="middle" x="317.5" y="-1064.95" font-family="Arial" font-size="9.00">HTTPS</text>
<text xml:space="preserve" text-anchor="middle" x="317.5" y="-1054.45" font-family="Arial" font-size="9.00">Requests</text>
</g>
<!-- Middleware -->
<g id="node15" class="node">
<title>Middleware</title>
<polygon fill="lightyellow" stroke="black" points="532.25,-843 337.75,-843 337.75,-799 532.25,-799 532.25,-843"/>
<text xml:space="preserve" text-anchor="middle" x="435" y="-829.5" font-family="Arial" font-size="10.00">Middleware Layer</text>
<text xml:space="preserve" text-anchor="middle" x="435" y="-817.5" font-family="Arial" font-size="10.00">Authentication | CSRF Protection</text>
<text xml:space="preserve" text-anchor="middle" x="435" y="-805.5" font-family="Arial" font-size="10.00">Session Management | Security Headers</text>
</g>
<!-- WebServer&#45;&gt;Middleware -->
<g id="edge6" class="edge">
<title>WebServer&#45;&gt;Middleware</title>
<path fill="none" stroke="black" d="M416.01,-955.77C419.71,-929.72 426.02,-885.24 430.35,-854.78"/>
<polygon fill="black" stroke="black" points="433.8,-855.36 431.74,-844.97 426.87,-854.38 433.8,-855.36"/>
</g>
<!-- Django -->
<g id="node34" class="node">
<title>Django</title>
<ellipse fill="none" stroke="black" cx="1110" cy="-821" rx="28.11" ry="18"/>
<text xml:space="preserve" text-anchor="middle" x="1110" y="-817.5" font-family="Arial" font-size="10.00">Django</text>
</g>
<!-- WebServer&#45;&gt;Django -->
<g id="edge22" class="edge">
<title>WebServer&#45;&gt;Django</title>
<path fill="none" stroke="green" stroke-width="2" d="M474.37,-967.98C639,-943.78 1078,-879.25 1078,-879.25 1078,-879.25 1087.05,-863.05 1095.53,-847.89"/>
<polygon fill="green" stroke="green" stroke-width="2" points="1097.61,-851.33 1099.44,-840.89 1091.5,-847.92 1097.61,-851.33"/>
<text xml:space="preserve" text-anchor="middle" x="998.35" y="-904.45" font-family="Arial" font-size="9.00">WSGI</text>
<text xml:space="preserve" text-anchor="middle" x="998.35" y="-893.95" font-family="Arial" font-size="9.00">Protocol</text>
</g>
<!-- Templates -->
<g id="node6" class="node">
<title>Templates</title>
<polygon fill="white" stroke="black" points="658.12,-680 655.12,-684 634.12,-684 631.12,-680 555.88,-680 555.88,-636 658.12,-636 658.12,-680"/>
<text xml:space="preserve" text-anchor="middle" x="607" y="-666.5" font-family="Arial" font-size="10.00">Template Layer</text>
<text xml:space="preserve" text-anchor="middle" x="607" y="-654.5" font-family="Arial" font-size="10.00">HTML Rendering</text>
<text xml:space="preserve" text-anchor="middle" x="607" y="-642.5" font-family="Arial" font-size="10.00">Context Processing</text>
</g>
<!-- Views -->
<g id="node7" class="node">
<title>Views</title>
<polygon fill="white" stroke="black" points="659.25,-521 656.25,-525 635.25,-525 632.25,-521 554.75,-521 554.75,-477 659.25,-477 659.25,-521"/>
<text xml:space="preserve" text-anchor="middle" x="607" y="-507.5" font-family="Arial" font-size="10.00">View Layer</text>
<text xml:space="preserve" text-anchor="middle" x="607" y="-495.5" font-family="Arial" font-size="10.00">Request Processing</text>
<text xml:space="preserve" text-anchor="middle" x="607" y="-483.5" font-family="Arial" font-size="10.00">Business Logic</text>
</g>
<!-- Templates&#45;&gt;Views -->
<!-- Templates&#45;&gt;Views -->
<g id="edge8" class="edge">
<title>Templates&#45;&gt;Views</title>
<path fill="none" stroke="black" d="M622.43,-635.83C629.89,-609.26 630.75,-563.42 625,-532.42"/>
<polygon fill="black" stroke="black" points="628.45,-531.79 622.81,-522.82 621.62,-533.34 628.45,-531.79"/>
</g>
<!-- Models -->
<g id="node8" class="node">
<title>Models</title>
<polygon fill="white" stroke="black" points="652.5,-368 649.5,-372 628.5,-372 625.5,-368 561.5,-368 561.5,-324 652.5,-324 652.5,-368"/>
<text xml:space="preserve" text-anchor="middle" x="607" y="-354.5" font-family="Arial" font-size="10.00">Model Layer</text>
<text xml:space="preserve" text-anchor="middle" x="607" y="-342.5" font-family="Arial" font-size="10.00">ORM Abstraction</text>
<text xml:space="preserve" text-anchor="middle" x="607" y="-330.5" font-family="Arial" font-size="10.00">Data Validation</text>
</g>
<!-- Views&#45;&gt;Models -->
<!-- Views&#45;&gt;Models -->
<g id="edge9" class="edge">
<title>Views&#45;&gt;Models</title>
<path fill="none" stroke="black" d="M622.7,-476.69C629.83,-451.28 630.66,-408.57 625.18,-379.15"/>
<polygon fill="black" stroke="black" points="628.66,-378.64 623.01,-369.68 621.84,-380.21 628.66,-378.64"/>
</g>
<!-- CoreApp -->
<g id="node9" class="node">
<title>CoreApp</title>
<polygon fill="white" stroke="black" points="410.25,-195.25 341.75,-195.25 341.75,-191.25 337.75,-191.25 337.75,-187.25 341.75,-187.25 341.75,-167.25 337.75,-167.25 337.75,-163.25 341.75,-163.25 341.75,-159.25 410.25,-159.25 410.25,-195.25"/>
<polyline fill="none" stroke="black" points="341.75,-191.25 345.75,-191.25 345.75,-187.25 341.75,-187.25"/>
<polyline fill="none" stroke="black" points="341.75,-167.25 345.75,-167.25 345.75,-163.25 341.75,-163.25"/>
<text xml:space="preserve" text-anchor="middle" x="376" y="-179.75" font-family="Arial" font-size="10.00">Core</text>
<text xml:space="preserve" text-anchor="middle" x="376" y="-167.75" font-family="Arial" font-size="10.00">(Auth, Utils)</text>
</g>
<!-- Models&#45;&gt;CoreApp -->
<!-- PostgreSQL -->
<g id="node16" class="node">
<title>PostgreSQL</title>
<path fill="white" stroke="black" d="M1221.25,-202C1221.25,-205.03 1197.83,-207.5 1169,-207.5 1140.17,-207.5 1116.75,-205.03 1116.75,-202 1116.75,-202 1116.75,-152.5 1116.75,-152.5 1116.75,-149.47 1140.17,-147 1169,-147 1197.83,-147 1221.25,-149.47 1221.25,-152.5 1221.25,-152.5 1221.25,-202 1221.25,-202"/>
<path fill="none" stroke="black" d="M1221.25,-202C1221.25,-198.97 1197.83,-196.5 1169,-196.5 1140.17,-196.5 1116.75,-198.97 1116.75,-202"/>
<text xml:space="preserve" text-anchor="middle" x="1169" y="-185.75" font-family="Arial" font-size="10.00">PostgreSQL 16</text>
<text xml:space="preserve" text-anchor="middle" x="1169" y="-173.75" font-family="Arial" font-size="10.00">Relational Database</text>
<text xml:space="preserve" text-anchor="middle" x="1169" y="-161.75" font-family="Arial" font-size="10.00">ACID Compliance</text>
</g>
<!-- Models&#45;&gt;PostgreSQL -->
<g id="edge23" class="edge">
<title>Models&#45;&gt;PostgreSQL</title>
<path fill="none" stroke="red" stroke-width="2" d="M652.69,-332.64C739.85,-309.07 921.25,-260 921.25,-260 921.25,-260 1080,-252 1080,-252 1080,-252 1102.92,-233.01 1125.49,-214.3"/>
<polygon fill="red" stroke="red" stroke-width="2" points="1126.28,-218.19 1131.75,-209.12 1121.82,-212.8 1126.28,-218.19"/>
<text xml:space="preserve" text-anchor="middle" x="947.12" y="-272.45" font-family="Arial" font-size="9.00">SQL Queries</text>
<text xml:space="preserve" text-anchor="middle" x="947.12" y="-261.95" font-family="Arial" font-size="9.00">(ORM)</text>
</g>
<!-- UsersApp -->
<g id="node10" class="node">
<title>UsersApp</title>
<polygon fill="white" stroke="black" points="538,-195.25 468,-195.25 468,-191.25 464,-191.25 464,-187.25 468,-187.25 468,-167.25 464,-167.25 464,-163.25 468,-163.25 468,-159.25 538,-159.25 538,-195.25"/>
<polyline fill="none" stroke="black" points="468,-191.25 472,-191.25 472,-187.25 468,-187.25"/>
<polyline fill="none" stroke="black" points="468,-167.25 472,-167.25 472,-163.25 468,-163.25"/>
<text xml:space="preserve" text-anchor="middle" x="503" y="-179.75" font-family="Arial" font-size="10.00">Users</text>
<text xml:space="preserve" text-anchor="middle" x="503" y="-167.75" font-family="Arial" font-size="10.00">(Staff Mgmt)</text>
</g>
<!-- MembersApp -->
<g id="node11" class="node">
<title>MembersApp</title>
<polygon fill="white" stroke="black" points="686.12,-195.25 595.88,-195.25 595.88,-191.25 591.88,-191.25 591.88,-187.25 595.88,-187.25 595.88,-167.25 591.88,-167.25 591.88,-163.25 595.88,-163.25 595.88,-159.25 686.12,-159.25 686.12,-195.25"/>
<polyline fill="none" stroke="black" points="595.88,-191.25 599.88,-191.25 599.88,-187.25 595.88,-187.25"/>
<polyline fill="none" stroke="black" points="595.88,-167.25 599.88,-167.25 599.88,-163.25 595.88,-163.25"/>
<text xml:space="preserve" text-anchor="middle" x="641" y="-179.75" font-family="Arial" font-size="10.00">Memberships</text>
<text xml:space="preserve" text-anchor="middle" x="641" y="-167.75" font-family="Arial" font-size="10.00">(Member CRUD)</text>
</g>
<!-- PaymentsApp -->
<g id="node12" class="node">
<title>PaymentsApp</title>
<polygon fill="white" stroke="black" points="822.12,-195.25 743.88,-195.25 743.88,-191.25 739.88,-191.25 739.88,-187.25 743.88,-187.25 743.88,-167.25 739.88,-167.25 739.88,-163.25 743.88,-163.25 743.88,-159.25 822.12,-159.25 822.12,-195.25"/>
<polyline fill="none" stroke="black" points="743.88,-191.25 747.88,-191.25 747.88,-187.25 743.88,-187.25"/>
<polyline fill="none" stroke="black" points="743.88,-167.25 747.88,-167.25 747.88,-163.25 743.88,-163.25"/>
<text xml:space="preserve" text-anchor="middle" x="783" y="-179.75" font-family="Arial" font-size="10.00">Payments</text>
<text xml:space="preserve" text-anchor="middle" x="783" y="-167.75" font-family="Arial" font-size="10.00">(Transactions)</text>
</g>
<!-- DashboardApp -->
<g id="node13" class="node">
<title>DashboardApp</title>
<polygon fill="white" stroke="black" points="943.62,-195.25 880.38,-195.25 880.38,-191.25 876.38,-191.25 876.38,-187.25 880.38,-187.25 880.38,-167.25 876.38,-167.25 876.38,-163.25 880.38,-163.25 880.38,-159.25 943.62,-159.25 943.62,-195.25"/>
<polyline fill="none" stroke="black" points="880.38,-191.25 884.38,-191.25 884.38,-187.25 880.38,-187.25"/>
<polyline fill="none" stroke="black" points="880.38,-167.25 884.38,-167.25 884.38,-163.25 880.38,-163.25"/>
<text xml:space="preserve" text-anchor="middle" x="912" y="-179.75" font-family="Arial" font-size="10.00">Dashboard</text>
<text xml:space="preserve" text-anchor="middle" x="912" y="-167.75" font-family="Arial" font-size="10.00">(Analytics)</text>
</g>
<!-- MetricsApp -->
<g id="node14" class="node">
<title>MetricsApp</title>
<polygon fill="white" stroke="black" points="1058.25,-195.25 1001.75,-195.25 1001.75,-191.25 997.75,-191.25 997.75,-187.25 1001.75,-187.25 1001.75,-167.25 997.75,-167.25 997.75,-163.25 1001.75,-163.25 1001.75,-159.25 1058.25,-159.25 1058.25,-195.25"/>
<polyline fill="none" stroke="black" points="1001.75,-191.25 1005.75,-191.25 1005.75,-187.25 1001.75,-187.25"/>
<polyline fill="none" stroke="black" points="1001.75,-167.25 1005.75,-167.25 1005.75,-163.25 1001.75,-163.25"/>
<text xml:space="preserve" text-anchor="middle" x="1030" y="-179.75" font-family="Arial" font-size="10.00">Metrics</text>
<text xml:space="preserve" text-anchor="middle" x="1030" y="-167.75" font-family="Arial" font-size="10.00">(Reports)</text>
</g>
<!-- Middleware&#45;&gt;Templates -->
<g id="edge7" class="edge">
<title>Middleware&#45;&gt;Templates</title>
<path fill="none" stroke="black" d="M457.84,-798.62C488.17,-770.23 541.85,-719.98 575.87,-688.14"/>
<polygon fill="black" stroke="black" points="578.05,-690.89 582.96,-681.5 573.27,-685.78 578.05,-690.89"/>
</g>
<!-- PostgreSQL&#45;&gt;Models -->
<g id="edge24" class="edge">
<title>PostgreSQL&#45;&gt;Models</title>
<path fill="none" stroke="red" stroke-width="2" d="M1125.49,-214.3C1102.92,-233.01 1080,-252 1080,-252 1080,-252 983,-281 983,-281 983,-281 752.93,-320.16 652.73,-337.22"/>
<polygon fill="red" stroke="red" stroke-width="2" points="1126.28,-218.19 1131.75,-209.12 1121.82,-212.8 1126.28,-218.19"/>
<text xml:space="preserve" text-anchor="middle" x="1074.59" y="-267.2" font-family="Arial" font-size="9.00">Result Sets</text>
</g>
<!-- TblStaff -->
<g id="node17" class="node">
<title>TblStaff</title>
<polygon fill="white" stroke="black" points="1182.62,-60 1137.38,-60 1137.38,-64 1125.38,-64 1125.38,-24 1182.62,-24 1182.62,-60"/>
<polyline fill="none" stroke="black" points="1125.38,-60 1137.38,-60"/>
<text xml:space="preserve" text-anchor="middle" x="1154" y="-38.5" font-family="Arial" font-size="10.00">StaffUser</text>
</g>
<!-- PostgreSQL&#45;&gt;TblStaff -->
<!-- TblMember -->
<g id="node18" class="node">
<title>TblMember</title>
<polygon fill="white" stroke="black" points="1295,-60 1253,-60 1253,-64 1241,-64 1241,-24 1295,-24 1295,-60"/>
<polyline fill="none" stroke="black" points="1241,-60 1253,-60"/>
<text xml:space="preserve" text-anchor="middle" x="1268" y="-38.5" font-family="Arial" font-size="10.00">Member</text>
</g>
<!-- TblConfig -->
<g id="node19" class="node">
<title>TblConfig</title>
<polygon fill="white" stroke="black" points="1450.88,-60 1365.12,-60 1365.12,-64 1353.12,-64 1353.12,-24 1450.88,-24 1450.88,-60"/>
<polyline fill="none" stroke="black" points="1353.12,-60 1365.12,-60"/>
<text xml:space="preserve" text-anchor="middle" x="1402" y="-38.5" font-family="Arial" font-size="10.00">MembershipConfig</text>
</g>
<!-- TblPricing -->
<g id="node20" class="node">
<title>TblPricing</title>
<polygon fill="white" stroke="black" points="1608.62,-60 1521.38,-60 1521.38,-64 1509.38,-64 1509.38,-24 1608.62,-24 1608.62,-60"/>
<polyline fill="none" stroke="black" points="1509.38,-60 1521.38,-60"/>
<text xml:space="preserve" text-anchor="middle" x="1559" y="-38.5" font-family="Arial" font-size="10.00">MembershipPricing</text>
</g>
<!-- TblPayment -->
<g id="node21" class="node">
<title>TblPayment</title>
<polygon fill="white" stroke="black" points="1721.5,-60 1678.5,-60 1678.5,-64 1666.5,-64 1666.5,-24 1721.5,-24 1721.5,-60"/>
<polyline fill="none" stroke="black" points="1666.5,-60 1678.5,-60"/>
<text xml:space="preserve" text-anchor="middle" x="1694" y="-38.5" font-family="Arial" font-size="10.00">Payment</text>
</g>
<!-- TblCheckin -->
<g id="node22" class="node">
<title>TblCheckin</title>
<polygon fill="white" stroke="black" points="1852.88,-60 1791.12,-60 1791.12,-64 1779.12,-64 1779.12,-24 1852.88,-24 1852.88,-60"/>
<polyline fill="none" stroke="black" points="1779.12,-60 1791.12,-60"/>
<text xml:space="preserve" text-anchor="middle" x="1816" y="-38.5" font-family="Arial" font-size="10.00">GymCheckIn</text>
</g>
<!-- TblDashStats -->
<g id="node23" class="node">
<title>TblDashStats</title>
<polygon fill="white" stroke="black" points="1997.25,-60 1922.75,-60 1922.75,-64 1910.75,-64 1910.75,-24 1997.25,-24 1997.25,-60"/>
<polyline fill="none" stroke="black" points="1910.75,-60 1922.75,-60"/>
<text xml:space="preserve" text-anchor="middle" x="1954" y="-38.5" font-family="Arial" font-size="10.00">DashboardStats</text>
</g>
<!-- TblPaySum -->
<g id="node24" class="node">
<title>TblPaySum</title>
<polygon fill="white" stroke="black" points="2152.5,-60 2067.5,-60 2067.5,-64 2055.5,-64 2055.5,-24 2152.5,-24 2152.5,-60"/>
<polyline fill="none" stroke="black" points="2055.5,-60 2067.5,-60"/>
<text xml:space="preserve" text-anchor="middle" x="2104" y="-38.5" font-family="Arial" font-size="10.00">PaymentSummary</text>
</g>
<!-- TblSnapshot -->
<g id="node25" class="node">
<title>TblSnapshot</title>
<polygon fill="white" stroke="black" points="2331.12,-60 2222.88,-60 2222.88,-64 2210.88,-64 2210.88,-24 2331.12,-24 2331.12,-60"/>
<polyline fill="none" stroke="black" points="2210.88,-60 2222.88,-60"/>
<text xml:space="preserve" text-anchor="middle" x="2271" y="-38.5" font-family="Arial" font-size="10.00">ActiveMemberSnapshot</text>
</g>
<!-- Docker -->
<g id="node26" class="node">
<title>Docker</title>
<polygon fill="white" stroke="black" points="2032.75,-1152.5 1917.25,-1152.5 1913.25,-1148.5 1913.25,-1116.5 2028.75,-1116.5 2032.75,-1120.5 2032.75,-1152.5"/>
<polyline fill="none" stroke="black" points="2028.75,-1148.5 1913.25,-1148.5"/>
<polyline fill="none" stroke="black" points="2028.75,-1148.5 2028.75,-1116.5"/>
<polyline fill="none" stroke="black" points="2028.75,-1148.5 2032.75,-1152.5"/>
<text xml:space="preserve" text-anchor="middle" x="1973" y="-1137" font-family="Arial" font-size="10.00">Docker Engine</text>
<text xml:space="preserve" text-anchor="middle" x="1973" y="-1125" font-family="Arial" font-size="10.00">Container Orchestration</text>
</g>
<!-- WebContainer -->
<g id="node27" class="node">
<title>WebContainer</title>
<path fill="white" stroke="black" d="M1927.62,-843C1927.62,-843 1852.38,-843 1852.38,-843 1846.38,-843 1840.38,-837 1840.38,-831 1840.38,-831 1840.38,-811 1840.38,-811 1840.38,-805 1846.38,-799 1852.38,-799 1852.38,-799 1927.62,-799 1927.62,-799 1933.62,-799 1939.62,-805 1939.62,-811 1939.62,-811 1939.62,-831 1939.62,-831 1939.62,-837 1933.62,-843 1927.62,-843"/>
<text xml:space="preserve" text-anchor="middle" x="1890" y="-829.5" font-family="Arial" font-size="10.00">gymms_web</text>
<text xml:space="preserve" text-anchor="middle" x="1890" y="-817.5" font-family="Arial" font-size="10.00">Django + Gunicorn</text>
<text xml:space="preserve" text-anchor="middle" x="1890" y="-805.5" font-family="Arial" font-size="10.00">2GB RAM | 2 CPU</text>
</g>
<!-- Docker&#45;&gt;WebContainer -->
<g id="edge12" class="edge">
<title>Docker&#45;&gt;WebContainer</title>
<path fill="none" stroke="black" d="M1970.18,-1116.05C1962.71,-1069.87 1943,-948 1943,-948 1943,-948 1919.07,-891.11 1903.37,-853.78"/>
<polygon fill="black" stroke="black" points="1906.68,-852.63 1899.58,-844.77 1900.23,-855.34 1906.68,-852.63"/>
</g>
<!-- DBContainer -->
<g id="node28" class="node">
<title>DBContainer</title>
<path fill="white" stroke="black" d="M1962.88,-680C1962.88,-680 1853.12,-680 1853.12,-680 1847.12,-680 1841.12,-674 1841.12,-668 1841.12,-668 1841.12,-648 1841.12,-648 1841.12,-642 1847.12,-636 1853.12,-636 1853.12,-636 1962.88,-636 1962.88,-636 1968.88,-636 1974.88,-642 1974.88,-648 1974.88,-648 1974.88,-668 1974.88,-668 1974.88,-674 1968.88,-680 1962.88,-680"/>
<text xml:space="preserve" text-anchor="middle" x="1908" y="-666.5" font-family="Arial" font-size="10.00">gymms_db</text>
<text xml:space="preserve" text-anchor="middle" x="1908" y="-654.5" font-family="Arial" font-size="10.00">PostgreSQL 16</text>
<text xml:space="preserve" text-anchor="middle" x="1908" y="-642.5" font-family="Arial" font-size="10.00">1.5GB RAM | 256MB SHM</text>
</g>
<!-- Docker&#45;&gt;DBContainer -->
<g id="edge13" class="edge">
<title>Docker&#45;&gt;DBContainer</title>
<path fill="none" stroke="black" d="M1973.87,-1116.15C1974.75,-1098.43 1976,-1073.5 1976,-1073.5 1976,-1073.5 1989,-750 1989,-750 1989,-750 1989,-729 1989,-729 1989,-729 1963.72,-707.15 1941.41,-687.87"/>
<polygon fill="black" stroke="black" points="1943.74,-685.26 1933.89,-681.37 1939.17,-690.56 1943.74,-685.26"/>
</g>
<!-- NginxContainer -->
<g id="node29" class="node">
<title>NginxContainer</title>
<path fill="white" stroke="black" d="M1901.62,-1000C1901.62,-1000 1844.38,-1000 1844.38,-1000 1838.38,-1000 1832.38,-994 1832.38,-988 1832.38,-988 1832.38,-968 1832.38,-968 1832.38,-962 1838.38,-956 1844.38,-956 1844.38,-956 1901.62,-956 1901.62,-956 1907.62,-956 1913.62,-962 1913.62,-968 1913.62,-968 1913.62,-988 1913.62,-988 1913.62,-994 1907.62,-1000 1901.62,-1000"/>
<text xml:space="preserve" text-anchor="middle" x="1873" y="-986.5" font-family="Arial" font-size="10.00">gymms_nginx</text>
<text xml:space="preserve" text-anchor="middle" x="1873" y="-974.5" font-family="Arial" font-size="10.00">Reverse Proxy</text>
<text xml:space="preserve" text-anchor="middle" x="1873" y="-962.5" font-family="Arial" font-size="10.00">256MB RAM</text>
</g>
<!-- Docker&#45;&gt;NginxContainer -->
<g id="edge14" class="edge">
<title>Docker&#45;&gt;NginxContainer</title>
<path fill="none" stroke="black" d="M1961.72,-1116.08C1945.01,-1090.26 1913.43,-1041.47 1892.81,-1009.6"/>
<polygon fill="black" stroke="black" points="1895.98,-1008.07 1887.61,-1001.57 1890.11,-1011.87 1895.98,-1008.07"/>
</g>
<!-- WebContainer&#45;&gt;DBContainer -->
<g id="edge25" class="edge">
<title>WebContainer&#45;&gt;DBContainer</title>
<path fill="none" stroke="purple" stroke-dasharray="5,2" d="M1890,-798.89C1890,-772.01 1890,-729 1890,-729 1890,-729 1894.94,-709.78 1899.65,-691.48"/>
<polygon fill="purple" stroke="purple" points="1903.02,-692.41 1902.12,-681.85 1896.24,-690.66 1903.02,-692.41"/>
<text xml:space="preserve" text-anchor="middle" x="1932.38" y="-741.45" font-family="Arial" font-size="9.00">Port 5432</text>
<text xml:space="preserve" text-anchor="middle" x="1932.38" y="-730.95" font-family="Arial" font-size="9.00">PostgreSQL Protocol</text>
</g>
<!-- Network -->
<g id="node31" class="node">
<title>Network</title>
<polygon fill="lightcyan" stroke="black" points="1782,-543 1661,-499 1782,-455 1903,-499 1782,-543"/>
<text xml:space="preserve" text-anchor="middle" x="1782" y="-507.5" font-family="Arial" font-size="10.00">gymms_network</text>
<text xml:space="preserve" text-anchor="middle" x="1782" y="-495.5" font-family="Arial" font-size="10.00">Bridge Network</text>
<text xml:space="preserve" text-anchor="middle" x="1782" y="-483.5" font-family="Arial" font-size="10.00">DNS Service Discovery</text>
</g>
<!-- WebContainer&#45;&gt;Network -->
<g id="edge15" class="edge">
<title>WebContainer&#45;&gt;Network</title>
<path fill="none" stroke="black" d="M1874.78,-798.58C1852.08,-766.64 1812,-710.25 1812,-710.25 1812,-710.25 1798.38,-614.77 1789.49,-552.5"/>
<polygon fill="black" stroke="black" points="1792.98,-552.19 1788.11,-542.79 1786.05,-553.18 1792.98,-552.19"/>
</g>
<!-- Volumes -->
<g id="node30" class="node">
<title>Volumes</title>
<polygon fill="lightyellow" stroke="black" points="2090.62,-527 2087.62,-531 2066.62,-531 2063.62,-527 1961.38,-527 1961.38,-471 2090.62,-471 2090.62,-527"/>
<text xml:space="preserve" text-anchor="middle" x="2026" y="-513.5" font-family="Arial" font-size="10.00">Docker Volumes</text>
<text xml:space="preserve" text-anchor="middle" x="2026" y="-501.5" font-family="Arial" font-size="10.00">postgres_data (persistent)</text>
<text xml:space="preserve" text-anchor="middle" x="2026" y="-489.5" font-family="Arial" font-size="10.00">media (uploads)</text>
<text xml:space="preserve" text-anchor="middle" x="2026" y="-477.5" font-family="Arial" font-size="10.00">static (assets)</text>
</g>
<!-- DBContainer&#45;&gt;Volumes -->
<g id="edge18" class="edge">
<title>DBContainer&#45;&gt;Volumes</title>
<path fill="none" stroke="black" d="M1923.91,-635.83C1943.01,-610.42 1975.36,-567.38 1998.52,-536.56"/>
<polygon fill="black" stroke="black" points="2001.27,-538.73 2004.48,-528.63 1995.67,-534.52 2001.27,-538.73"/>
</g>
<!-- DBContainer&#45;&gt;Network -->
<g id="edge16" class="edge">
<title>DBContainer&#45;&gt;Network</title>
<path fill="none" stroke="black" d="M1891.01,-635.83C1871.81,-611.91 1840.08,-572.37 1815.79,-542.1"/>
<polygon fill="black" stroke="black" points="1818.77,-540.23 1809.78,-534.62 1813.31,-544.61 1818.77,-540.23"/>
</g>
<!-- NginxContainer&#45;&gt;WebContainer -->
<g id="edge26" class="edge">
<title>NginxContainer&#45;&gt;WebContainer</title>
<path fill="none" stroke="purple" stroke-dasharray="5,2" d="M1865.76,-955.69C1859.43,-937.07 1851.25,-913 1851.25,-913 1851.25,-913 1851.25,-892 1851.25,-892 1851.25,-892 1862.3,-872.04 1872.59,-853.44"/>
<polygon fill="purple" stroke="purple" points="1875.65,-855.15 1877.43,-844.71 1869.52,-851.76 1875.65,-855.15"/>
<text xml:space="preserve" text-anchor="middle" x="1875.62" y="-904.45" font-family="Arial" font-size="9.00">Port 8000</text>
<text xml:space="preserve" text-anchor="middle" x="1875.62" y="-893.95" font-family="Arial" font-size="9.00">HTTP Proxy</text>
</g>
<!-- NginxContainer&#45;&gt;Network -->
<g id="edge17" class="edge">
<title>NginxContainer&#45;&gt;Network</title>
<path fill="none" stroke="black" d="M1859.55,-955.79C1841.31,-927.04 1811,-879.25 1811,-879.25 1811,-879.25 1785,-710.25 1785,-710.25 1785,-710.25 1780,-587 1780,-587 1780,-587 1780,-586 1780,-586 1780,-586 1780.34,-571.53 1780.73,-554.47"/>
<polygon fill="black" stroke="black" points="1784.23,-554.59 1780.96,-544.51 1777.23,-554.43 1784.23,-554.59"/>
</g>
<!-- RaspberryPi -->
<g id="node32" class="node">
<title>RaspberryPi</title>
<polygon fill="white" stroke="black" points="1636.62,-849 1499.38,-849 1495.38,-845 1495.38,-793 1632.62,-793 1636.62,-797 1636.62,-849"/>
<polyline fill="none" stroke="black" points="1632.62,-845 1495.38,-845"/>
<polyline fill="none" stroke="black" points="1632.62,-845 1632.62,-793"/>
<polyline fill="none" stroke="black" points="1632.62,-845 1636.62,-849"/>
<text xml:space="preserve" text-anchor="middle" x="1566" y="-835.5" font-family="Arial" font-size="10.00">Raspberry Pi 5 (8GB)</text>
<text xml:space="preserve" text-anchor="middle" x="1566" y="-823.5" font-family="Arial" font-size="10.00">ARM Cortex&#45;A76 @ 2.4GHz</text>
<text xml:space="preserve" text-anchor="middle" x="1566" y="-811.5" font-family="Arial" font-size="10.00">512GB NVMe SSD</text>
<text xml:space="preserve" text-anchor="middle" x="1566" y="-799.5" font-family="Arial" font-size="10.00">Gigabit Ethernet</text>
</g>
<!-- NginxContainer&#45;&gt;RaspberryPi -->
<g id="edge27" class="edge">
<title>NginxContainer&#45;&gt;RaspberryPi</title>
<path fill="none" stroke="black" stroke-dasharray="1,5" d="M1831.95,-967.83C1752.73,-950.13 1586.5,-913 1586.5,-913 1586.5,-913 1584.32,-903.33 1581.39,-890.3"/>
<polygon fill="black" stroke="black" points="1584.84,-889.71 1579.23,-880.72 1578.01,-891.25 1584.84,-889.71"/>
<text xml:space="preserve" text-anchor="middle" x="1612.75" y="-899.2" font-family="Arial" font-size="9.00">Deployed on</text>
</g>
<!-- CloudflareTunnel -->
<g id="node33" class="node">
<title>CloudflareTunnel</title>
<path fill="lightcyan" stroke="black" d="M1613.75,-686C1613.75,-686 1518.25,-686 1518.25,-686 1512.25,-686 1506.25,-680 1506.25,-674 1506.25,-674 1506.25,-642 1506.25,-642 1506.25,-636 1512.25,-630 1518.25,-630 1518.25,-630 1613.75,-630 1613.75,-630 1619.75,-630 1625.75,-636 1625.75,-642 1625.75,-642 1625.75,-674 1625.75,-674 1625.75,-680 1619.75,-686 1613.75,-686"/>
<text xml:space="preserve" text-anchor="middle" x="1566" y="-672.5" font-family="Arial" font-size="10.00">Cloudflare Tunnel</text>
<text xml:space="preserve" text-anchor="middle" x="1566" y="-660.5" font-family="Arial" font-size="10.00">Secure Remote Access</text>
<text xml:space="preserve" text-anchor="middle" x="1566" y="-648.5" font-family="Arial" font-size="10.00">Automatic SSL/TLS</text>
<text xml:space="preserve" text-anchor="middle" x="1566" y="-636.5" font-family="Arial" font-size="10.00">DDoS Protection</text>
</g>
<!-- RaspberryPi&#45;&gt;CloudflareTunnel -->
<g id="edge28" class="edge">
<title>RaspberryPi&#45;&gt;CloudflareTunnel</title>
<path fill="none" stroke="orange" stroke-width="2" d="M1566,-792.69C1566,-766.67 1566,-727.23 1566,-697.92"/>
<polygon fill="orange" stroke="orange" stroke-width="2" points="1569.5,-699.47 1566,-689.47 1562.5,-699.47 1569.5,-699.47"/>
<text xml:space="preserve" text-anchor="middle" x="1586.25" y="-741.45" font-family="Arial" font-size="9.00">Outbound</text>
<text xml:space="preserve" text-anchor="middle" x="1586.25" y="-730.95" font-family="Arial" font-size="9.00">Tunnel</text>
</g>
<!-- CloudflareTunnel&#45;&gt;Desktop -->
<g id="edge29" class="edge">
<title>CloudflareTunnel&#45;&gt;Desktop</title>
<path fill="none" stroke="orange" stroke-width="2" d="M1523.26,-693.47C1406.02,-788.02 1088,-1044.5 1088,-1044.5 1088,-1044.5 443.12,-1115.1 302.05,-1130.54"/>
<polygon fill="orange" stroke="orange" stroke-width="2" points="1524.06,-697.32 1529.65,-688.32 1519.67,-691.87 1524.06,-697.32"/>
<text xml:space="preserve" text-anchor="middle" x="1286.91" y="-904.45" font-family="Arial" font-size="9.00">Public</text>
<text xml:space="preserve" text-anchor="middle" x="1286.91" y="-893.95" font-family="Arial" font-size="9.00">Access</text>
</g>
<!-- L1 -->
<g id="node35" class="node">
<title>L1</title>
<text xml:space="preserve" text-anchor="middle" x="2243" y="-1131" font-family="Arial" font-size="10.00">Client Request Flow</text>
</g>
<!-- L2 -->
<g id="node36" class="node">
<title>L2</title>
<text xml:space="preserve" text-anchor="middle" x="2243" y="-974.5" font-family="Arial" font-size="10.00">Application Processing</text>
</g>
<!-- L1&#45;&gt;L2 -->
<!-- L3 -->
<g id="node37" class="node">
<title>L3</title>
<text xml:space="preserve" text-anchor="middle" x="2243" y="-817.5" font-family="Arial" font-size="10.00">Database Communication</text>
</g>
<!-- L2&#45;&gt;L3 -->
<!-- L4 -->
<g id="node38" class="node">
<title>L4</title>
<text xml:space="preserve" text-anchor="middle" x="2243" y="-654.5" font-family="Arial" font-size="10.00">Container Network</text>
</g>
<!-- L3&#45;&gt;L4 -->
<!-- L5 -->
<g id="node39" class="node">
<title>L5</title>
<text xml:space="preserve" text-anchor="middle" x="2243" y="-495.5" font-family="Arial" font-size="10.00">Deployment Infrastructure</text>
</g>
<!-- L4&#45;&gt;L5 -->
</g>
</svg>
