<?xml version="1.0" encoding="UTF-8" standalone="no"?>
<!DOCTYPE svg PUBLIC "-//W3C//DTD SVG 1.1//EN"
 "http://www.w3.org/Graphics/SVG/1.1/DTD/svg11.dtd">
<!-- Generated by graphviz version 14.0.4 (20251115.1723)
 -->
<!-- Title: UserStoryMap Pages: 1 -->
<svg width="1391pt" height="1336pt"
 viewBox="0.00 0.00 1391.00 1336.00" xmlns="http://www.w3.org/2000/svg" xmlns:xlink="http://www.w3.org/1999/xlink">
<g id="graph0" class="graph" transform="scale(1 1) rotate(0) translate(4 1332.25)">
<title>UserStoryMap</title>
<polygon fill="white" stroke="none" points="-4,4 -4,-1332.25 1387,-1332.25 1387,4 -4,4"/>
<g id="clust1" class="cluster">
<title>cluster_activities</title>
<polygon fill="#e6f7ff" stroke="black" points="327,-641.25 327,-1228.5 446,-1228.5 446,-641.25 327,-641.25"/>
<text xml:space="preserve" text-anchor="middle" x="386.5" y="-1214.05" font-family="Times New Roman,serif" font-size="11.00">User Activities (Epics)</text>
</g>
<g id="clust2" class="cluster">
<title>cluster_auth_stories</title>
</g>
<g id="clust3" class="cluster">
<title>cluster_member_stories</title>
</g>
<g id="clust4" class="cluster">
<title>cluster_payment_stories</title>
</g>
<g id="clust5" class="cluster">
<title>cluster_facility_stories</title>
</g>
<g id="clust6" class="cluster">
<title>cluster_analytics_stories</title>
</g>
<g id="clust7" class="cluster">
<title>cluster_admin_stories</title>
</g>
<g id="clust8" class="cluster">
<title>cluster_priorities</title>
<polygon fill="#fff5e6" stroke="black" points="1064,-141.5 1064,-508 1196,-508 1196,-141.5 1064,-141.5"/>
<text xml:space="preserve" text-anchor="middle" x="1130" y="-493.55" font-family="Times New Roman,serif" font-size="11.00">Implementation Priority</text>
</g>
<g id="clust9" class="cluster">
<title>cluster_legend</title>
<polygon fill="none" stroke="black" points="1257,-854.25 1257,-1320.25 1375,-1320.25 1375,-854.25 1257,-854.25"/>
<text xml:space="preserve" text-anchor="middle" x="1316" y="-1306.75" font-family="Times New Roman,serif" font-size="10.00">Legend</text>
</g>
<!-- Title -->
<g id="node1" class="node">
<title>Title</title>
<polygon fill="lightblue" stroke="black" stroke-width="2" points="481.62,-1293 316.38,-1293 316.38,-1257 481.62,-1257 481.62,-1293"/>
<text xml:space="preserve" text-anchor="middle" x="399" y="-1269.58" font-family="Arial" font-size="14.00">GyMMS User Story Map</text>
</g>
<!-- A1 -->
<g id="node2" class="node">
<title>A1</title>
<path fill="lightblue" stroke="black" d="M426.12,-1199C426.12,-1199 371.88,-1199 371.88,-1199 365.88,-1199 359.88,-1193 359.88,-1187 359.88,-1187 359.88,-1175 359.88,-1175 359.88,-1169 365.88,-1163 371.88,-1163 371.88,-1163 426.12,-1163 426.12,-1163 432.12,-1163 438.12,-1169 438.12,-1175 438.12,-1175 438.12,-1187 438.12,-1187 438.12,-1193 432.12,-1199 426.12,-1199"/>
<text xml:space="preserve" text-anchor="middle" x="399" y="-1183.5" font-family="Arial" font-size="10.00">Authentication</text>
<text xml:space="preserve" text-anchor="middle" x="399" y="-1171.5" font-family="Arial" font-size="10.00">&amp; Access</text>
</g>
<!-- Title&#45;&gt;A1 -->
<!-- A2 -->
<g id="node3" class="node">
<title>A2</title>
<path fill="lightgreen" stroke="black" d="M424.12,-1105C424.12,-1105 375.88,-1105 375.88,-1105 369.88,-1105 363.88,-1099 363.88,-1093 363.88,-1093 363.88,-1081 363.88,-1081 363.88,-1075 369.88,-1069 375.88,-1069 375.88,-1069 424.12,-1069 424.12,-1069 430.12,-1069 436.12,-1075 436.12,-1081 436.12,-1081 436.12,-1093 436.12,-1093 436.12,-1099 430.12,-1105 424.12,-1105"/>
<text xml:space="preserve" text-anchor="middle" x="400" y="-1089.5" font-family="Arial" font-size="10.00">Member</text>
<text xml:space="preserve" text-anchor="middle" x="400" y="-1077.5" font-family="Arial" font-size="10.00">Management</text>
</g>
<!-- A1&#45;&gt;A2 -->
<!-- S1_1 -->
<g id="node8" class="node">
<title>S1_1</title>
<polygon fill="white" stroke="black" points="1275.25,-792.38 1170.75,-792.38 1170.75,-755.12 1281.25,-755.12 1281.25,-786.38 1275.25,-792.38"/>
<polyline fill="none" stroke="black" points="1275.25,-792.38 1275.25,-786.38"/>
<polyline fill="none" stroke="black" points="1281.25,-786.38 1275.25,-786.38"/>
<text xml:space="preserve" text-anchor="middle" x="1226" y="-780.77" font-family="Arial" font-size="8.00">As a staff member,</text>
<text xml:space="preserve" text-anchor="middle" x="1226" y="-771.02" font-family="Arial" font-size="8.00">I want to log in securely</text>
<text xml:space="preserve" text-anchor="middle" x="1226" y="-761.27" font-family="Arial" font-size="8.00">so I can access the system</text>
</g>
<!-- A1&#45;&gt;S1_1 -->
<g id="edge24" class="edge">
<title>A1&#45;&gt;S1_1</title>
<path fill="none" stroke="lightblue" d="M436.41,-1162.58C573.66,-1094.99 1048.69,-861.07 1187.58,-792.67"/>
</g>
<!-- A3 -->
<g id="node4" class="node">
<title>A3</title>
<path fill="lightcoral" stroke="black" d="M420.38,-1004.75C420.38,-1004.75 379.62,-1004.75 379.62,-1004.75 373.62,-1004.75 367.62,-998.75 367.62,-992.75 367.62,-992.75 367.62,-980.75 367.62,-980.75 367.62,-974.75 373.62,-968.75 379.62,-968.75 379.62,-968.75 420.38,-968.75 420.38,-968.75 426.38,-968.75 432.38,-974.75 432.38,-980.75 432.38,-980.75 432.38,-992.75 432.38,-992.75 432.38,-998.75 426.38,-1004.75 420.38,-1004.75"/>
<text xml:space="preserve" text-anchor="middle" x="400" y="-989.25" font-family="Arial" font-size="10.00">Payment</text>
<text xml:space="preserve" text-anchor="middle" x="400" y="-977.25" font-family="Arial" font-size="10.00">Processing</text>
</g>
<!-- A2&#45;&gt;A3 -->
<!-- S2_1 -->
<g id="node11" class="node">
<title>S2_1</title>
<polygon fill="white" stroke="black" points="1111.38,-1011 914.62,-1011 914.62,-962.5 1117.38,-962.5 1117.38,-1005 1111.38,-1011"/>
<polyline fill="none" stroke="black" points="1111.38,-1011 1111.38,-1005"/>
<polyline fill="none" stroke="black" points="1117.38,-1005 1111.38,-1005"/>
<text xml:space="preserve" text-anchor="middle" x="1016" y="-996.55" font-family="Arial" font-size="11.00">As staff,</text>
<text xml:space="preserve" text-anchor="middle" x="1016" y="-983.05" font-family="Arial" font-size="11.00">I want to register new members quickly</text>
<text xml:space="preserve" text-anchor="middle" x="1016" y="-969.55" font-family="Arial" font-size="11.00">without paperwork delays</text>
</g>
<!-- A2&#45;&gt;S2_1 -->
<g id="edge25" class="edge">
<title>A2&#45;&gt;S2_1</title>
<path fill="none" stroke="lightgreen" d="M436.23,-1080.22C528.37,-1065.53 774.19,-1026.32 914.38,-1003.96"/>
</g>
<!-- A4 -->
<g id="node5" class="node">
<title>A4</title>
<path fill="lightyellow" stroke="black" d="M403,-898.25C403,-898.25 373,-898.25 373,-898.25 367,-898.25 361,-892.25 361,-886.25 361,-886.25 361,-874.25 361,-874.25 361,-868.25 367,-862.25 373,-862.25 373,-862.25 403,-862.25 403,-862.25 409,-862.25 415,-868.25 415,-874.25 415,-874.25 415,-886.25 415,-886.25 415,-892.25 409,-898.25 403,-898.25"/>
<text xml:space="preserve" text-anchor="middle" x="388" y="-882.75" font-family="Arial" font-size="10.00">Facility</text>
<text xml:space="preserve" text-anchor="middle" x="388" y="-870.75" font-family="Arial" font-size="10.00">Access</text>
</g>
<!-- A3&#45;&gt;A4 -->
<!-- S3_1 -->
<g id="node16" class="node">
<title>S3_1</title>
<polygon fill="white" stroke="black" points="850,-904.5 676,-904.5 676,-856 856,-856 856,-898.5 850,-904.5"/>
<polyline fill="none" stroke="black" points="850,-904.5 850,-898.5"/>
<polyline fill="none" stroke="black" points="856,-898.5 850,-898.5"/>
<text xml:space="preserve" text-anchor="middle" x="766" y="-890.05" font-family="Arial" font-size="11.00">As staff,</text>
<text xml:space="preserve" text-anchor="middle" x="766" y="-876.55" font-family="Arial" font-size="11.00">I want to process payments</text>
<text xml:space="preserve" text-anchor="middle" x="766" y="-863.05" font-family="Arial" font-size="11.00">with auto subscription extension</text>
</g>
<!-- A3&#45;&gt;S3_1 -->
<g id="edge26" class="edge">
<title>A3&#45;&gt;S3_1</title>
<path fill="none" stroke="lightcoral" d="M432.8,-976.38C488.69,-960.43 603.98,-927.51 683.15,-904.91"/>
</g>
<!-- A5 -->
<g id="node6" class="node">
<title>A5</title>
<path fill="lightcyan" stroke="black" d="M409.12,-791.75C409.12,-791.75 366.88,-791.75 366.88,-791.75 360.88,-791.75 354.88,-785.75 354.88,-779.75 354.88,-779.75 354.88,-767.75 354.88,-767.75 354.88,-761.75 360.88,-755.75 366.88,-755.75 366.88,-755.75 409.12,-755.75 409.12,-755.75 415.12,-755.75 421.12,-761.75 421.12,-767.75 421.12,-767.75 421.12,-779.75 421.12,-779.75 421.12,-785.75 415.12,-791.75 409.12,-791.75"/>
<text xml:space="preserve" text-anchor="middle" x="388" y="-776.25" font-family="Arial" font-size="10.00">Analytics &amp;</text>
<text xml:space="preserve" text-anchor="middle" x="388" y="-764.25" font-family="Arial" font-size="10.00">Reporting</text>
</g>
<!-- A4&#45;&gt;A5 -->
<!-- S4_1 -->
<g id="node20" class="node">
<title>S4_1</title>
<polygon fill="white" stroke="black" points="192.25,-798 15.75,-798 15.75,-749.5 198.25,-749.5 198.25,-792 192.25,-798"/>
<polyline fill="none" stroke="black" points="192.25,-798 192.25,-792"/>
<polyline fill="none" stroke="black" points="198.25,-792 192.25,-792"/>
<text xml:space="preserve" text-anchor="middle" x="107" y="-783.55" font-family="Arial" font-size="11.00">As staff,</text>
<text xml:space="preserve" text-anchor="middle" x="107" y="-770.05" font-family="Arial" font-size="11.00">I want to check in members quickly</text>
<text xml:space="preserve" text-anchor="middle" x="107" y="-756.55" font-family="Arial" font-size="11.00">without disrupting their workout</text>
</g>
<!-- A4&#45;&gt;S4_1 -->
<g id="edge27" class="edge">
<title>A4&#45;&gt;S4_1</title>
<path fill="none" stroke="lightyellow" d="M360.54,-869.04C316.91,-852.81 230.55,-820.7 170.83,-798.49"/>
</g>
<!-- A6 -->
<g id="node7" class="node">
<title>A6</title>
<path fill="wheat" stroke="black" d="M404.12,-685.25C404.12,-685.25 349.88,-685.25 349.88,-685.25 343.88,-685.25 337.88,-679.25 337.88,-673.25 337.88,-673.25 337.88,-661.25 337.88,-661.25 337.88,-655.25 343.88,-649.25 349.88,-649.25 349.88,-649.25 404.12,-649.25 404.12,-649.25 410.12,-649.25 416.12,-655.25 416.12,-661.25 416.12,-661.25 416.12,-673.25 416.12,-673.25 416.12,-679.25 410.12,-685.25 404.12,-685.25"/>
<text xml:space="preserve" text-anchor="middle" x="377" y="-669.75" font-family="Arial" font-size="10.00">System</text>
<text xml:space="preserve" text-anchor="middle" x="377" y="-657.75" font-family="Arial" font-size="10.00">Administration</text>
</g>
<!-- A5&#45;&gt;A6 -->
<!-- S5_1 -->
<g id="node24" class="node">
<title>S5_1</title>
<polygon fill="white" stroke="black" points="636,-691.5 462,-691.5 462,-643 642,-643 642,-685.5 636,-691.5"/>
<polyline fill="none" stroke="black" points="636,-691.5 636,-685.5"/>
<polyline fill="none" stroke="black" points="642,-685.5 636,-685.5"/>
<text xml:space="preserve" text-anchor="middle" x="552" y="-677.05" font-family="Arial" font-size="11.00">As owner,</text>
<text xml:space="preserve" text-anchor="middle" x="552" y="-663.55" font-family="Arial" font-size="11.00">I want a dashboard overview</text>
<text xml:space="preserve" text-anchor="middle" x="552" y="-650.05" font-family="Arial" font-size="11.00">to understand business health</text>
</g>
<!-- A5&#45;&gt;S5_1 -->
<g id="edge28" class="edge">
<title>A5&#45;&gt;S5_1</title>
<path fill="none" stroke="lightcyan" d="M415.45,-755.26C442.71,-737.89 484.7,-711.13 514.92,-691.88"/>
</g>
<!-- S6_1 -->
<g id="node28" class="node">
<title>S6_1</title>
<polygon fill="white" stroke="black" points="413,-585 239,-585 239,-536.5 419,-536.5 419,-579 413,-585"/>
<polyline fill="none" stroke="black" points="413,-585 413,-579"/>
<polyline fill="none" stroke="black" points="419,-579 413,-579"/>
<text xml:space="preserve" text-anchor="middle" x="329" y="-570.55" font-family="Arial" font-size="11.00">As owner,</text>
<text xml:space="preserve" text-anchor="middle" x="329" y="-557.05" font-family="Arial" font-size="11.00">I want to manage staff accounts</text>
<text xml:space="preserve" text-anchor="middle" x="329" y="-543.55" font-family="Arial" font-size="11.00">for access control</text>
</g>
<!-- A6&#45;&gt;S6_1 -->
<g id="edge29" class="edge">
<title>A6&#45;&gt;S6_1</title>
<path fill="none" stroke="wheat" d="M369.07,-648.99C361.09,-631.6 348.7,-604.64 339.81,-585.29"/>
</g>
<!-- S1_2 -->
<g id="node9" class="node">
<title>S1_2</title>
<polygon fill="white" stroke="black" points="1301.12,-685.88 1162.88,-685.88 1162.88,-648.62 1307.12,-648.62 1307.12,-679.88 1301.12,-685.88"/>
<polyline fill="none" stroke="black" points="1301.12,-685.88 1301.12,-679.88"/>
<polyline fill="none" stroke="black" points="1307.12,-679.88 1301.12,-679.88"/>
<text xml:space="preserve" text-anchor="middle" x="1235" y="-674.27" font-family="Arial" font-size="8.00">As an owner,</text>
<text xml:space="preserve" text-anchor="middle" x="1235" y="-664.52" font-family="Arial" font-size="8.00">I want role&#45;based access</text>
<text xml:space="preserve" text-anchor="middle" x="1235" y="-654.77" font-family="Arial" font-size="8.00">so staff can&#39;t access admin functions</text>
</g>
<!-- S1_1&#45;&gt;S1_2 -->
<!-- S1_3 -->
<g id="node10" class="node">
<title>S1_3</title>
<polygon fill="white" stroke="black" points="1286.38,-579.38 1167.62,-579.38 1167.62,-542.12 1292.38,-542.12 1292.38,-573.38 1286.38,-579.38"/>
<polyline fill="none" stroke="black" points="1286.38,-579.38 1286.38,-573.38"/>
<polyline fill="none" stroke="black" points="1292.38,-573.38 1286.38,-573.38"/>
<text xml:space="preserve" text-anchor="middle" x="1230" y="-567.77" font-family="Arial" font-size="8.00">As a user,</text>
<text xml:space="preserve" text-anchor="middle" x="1230" y="-558.02" font-family="Arial" font-size="8.00">I want to change my password</text>
<text xml:space="preserve" text-anchor="middle" x="1230" y="-548.27" font-family="Arial" font-size="8.00">for security</text>
</g>
<!-- S1_2&#45;&gt;S1_3 -->
<!-- P1 -->
<g id="node31" class="node">
<title>P1</title>
<polygon fill="#90ee90" stroke="black" points="1183.75,-478.5 1076.25,-478.5 1076.25,-407.5 1183.75,-407.5 1183.75,-478.5"/>
<text xml:space="preserve" text-anchor="middle" x="1130" y="-465.95" font-family="Arial" font-size="9.00">MVP (Must Have)</text>
<text xml:space="preserve" text-anchor="middle" x="1130" y="-455.45" font-family="Arial" font-size="9.00">• Authentication</text>
<text xml:space="preserve" text-anchor="middle" x="1130" y="-444.95" font-family="Arial" font-size="9.00">• Member Registration</text>
<text xml:space="preserve" text-anchor="middle" x="1130" y="-434.45" font-family="Arial" font-size="9.00">• Payment Processing</text>
<text xml:space="preserve" text-anchor="middle" x="1130" y="-423.95" font-family="Arial" font-size="9.00">• Basic Check&#45;in</text>
<text xml:space="preserve" text-anchor="middle" x="1130" y="-413.45" font-family="Arial" font-size="9.00">• Dashboard Overview</text>
</g>
<!-- S1_3&#45;&gt;P1 -->
<!-- S2_2 -->
<g id="node12" class="node">
<title>S2_2</title>
<polygon fill="white" stroke="black" points="1110.5,-904.5 917.5,-904.5 917.5,-856 1116.5,-856 1116.5,-898.5 1110.5,-904.5"/>
<polyline fill="none" stroke="black" points="1110.5,-904.5 1110.5,-898.5"/>
<polyline fill="none" stroke="black" points="1116.5,-898.5 1110.5,-898.5"/>
<text xml:space="preserve" text-anchor="middle" x="1017" y="-890.05" font-family="Arial" font-size="11.00">As staff,</text>
<text xml:space="preserve" text-anchor="middle" x="1017" y="-876.55" font-family="Arial" font-size="11.00">I want to search members by name/ID</text>
<text xml:space="preserve" text-anchor="middle" x="1017" y="-863.05" font-family="Arial" font-size="11.00">to find them fast</text>
</g>
<!-- S2_1&#45;&gt;S2_2 -->
<!-- S2_3 -->
<g id="node13" class="node">
<title>S2_3</title>
<polygon fill="white" stroke="black" points="1103,-798 929,-798 929,-749.5 1109,-749.5 1109,-792 1103,-798"/>
<polyline fill="none" stroke="black" points="1103,-798 1103,-792"/>
<polyline fill="none" stroke="black" points="1109,-792 1103,-792"/>
<text xml:space="preserve" text-anchor="middle" x="1019" y="-783.55" font-family="Arial" font-size="11.00">As staff,</text>
<text xml:space="preserve" text-anchor="middle" x="1019" y="-770.05" font-family="Arial" font-size="11.00">I want to edit member profiles</text>
<text xml:space="preserve" text-anchor="middle" x="1019" y="-756.55" font-family="Arial" font-size="11.00">when info changes</text>
</g>
<!-- S2_2&#45;&gt;S2_3 -->
<!-- S2_4 -->
<g id="node14" class="node">
<title>S2_4</title>
<polygon fill="white" stroke="black" points="1113.62,-691.5 912.38,-691.5 912.38,-643 1119.62,-643 1119.62,-685.5 1113.62,-691.5"/>
<polyline fill="none" stroke="black" points="1113.62,-691.5 1113.62,-685.5"/>
<polyline fill="none" stroke="black" points="1119.62,-685.5 1113.62,-685.5"/>
<text xml:space="preserve" text-anchor="middle" x="1016" y="-677.05" font-family="Arial" font-size="11.00">As staff,</text>
<text xml:space="preserve" text-anchor="middle" x="1016" y="-663.55" font-family="Arial" font-size="11.00">I want to see member status at a glance</text>
<text xml:space="preserve" text-anchor="middle" x="1016" y="-650.05" font-family="Arial" font-size="11.00">to know who needs renewal</text>
</g>
<!-- S2_3&#45;&gt;S2_4 -->
<!-- S2_5 -->
<g id="node15" class="node">
<title>S2_5</title>
<polygon fill="white" stroke="black" points="1107,-585 933,-585 933,-536.5 1113,-536.5 1113,-579 1107,-585"/>
<polyline fill="none" stroke="black" points="1107,-585 1107,-579"/>
<polyline fill="none" stroke="black" points="1113,-579 1107,-579"/>
<text xml:space="preserve" text-anchor="middle" x="1023" y="-570.55" font-family="Arial" font-size="11.00">As owner,</text>
<text xml:space="preserve" text-anchor="middle" x="1023" y="-557.05" font-family="Arial" font-size="11.00">I want to soft&#45;delete members</text>
<text xml:space="preserve" text-anchor="middle" x="1023" y="-543.55" font-family="Arial" font-size="11.00">preserving payment history</text>
</g>
<!-- S2_4&#45;&gt;S2_5 -->
<!-- S2_5&#45;&gt;P1 -->
<!-- S3_2 -->
<g id="node17" class="node">
<title>S3_2</title>
<polygon fill="white" stroke="black" points="880,-798 666,-798 666,-749.5 886,-749.5 886,-792 880,-798"/>
<polyline fill="none" stroke="black" points="880,-798 880,-792"/>
<polyline fill="none" stroke="black" points="886,-792 880,-792"/>
<text xml:space="preserve" text-anchor="middle" x="776" y="-783.55" font-family="Arial" font-size="11.00">As staff,</text>
<text xml:space="preserve" text-anchor="middle" x="776" y="-770.05" font-family="Arial" font-size="11.00">I want to accept multiple payment methods</text>
<text xml:space="preserve" text-anchor="middle" x="776" y="-756.55" font-family="Arial" font-size="11.00">for member convenience</text>
</g>
<!-- S3_1&#45;&gt;S3_2 -->
<!-- S3_3 -->
<g id="node18" class="node">
<title>S3_3</title>
<polygon fill="white" stroke="black" points="860,-691.5 686,-691.5 686,-643 866,-643 866,-685.5 860,-691.5"/>
<polyline fill="none" stroke="black" points="860,-691.5 860,-685.5"/>
<polyline fill="none" stroke="black" points="866,-685.5 860,-685.5"/>
<text xml:space="preserve" text-anchor="middle" x="776" y="-677.05" font-family="Arial" font-size="11.00">As owner,</text>
<text xml:space="preserve" text-anchor="middle" x="776" y="-663.55" font-family="Arial" font-size="11.00">I want to view payment history</text>
<text xml:space="preserve" text-anchor="middle" x="776" y="-650.05" font-family="Arial" font-size="11.00">for financial tracking</text>
</g>
<!-- S3_2&#45;&gt;S3_3 -->
<!-- S3_4 -->
<g id="node19" class="node">
<title>S3_4</title>
<polygon fill="white" stroke="black" points="860,-585 686,-585 686,-536.5 866,-536.5 866,-579 860,-585"/>
<polyline fill="none" stroke="black" points="860,-585 860,-579"/>
<polyline fill="none" stroke="black" points="866,-579 860,-579"/>
<text xml:space="preserve" text-anchor="middle" x="776" y="-570.55" font-family="Arial" font-size="11.00">As owner,</text>
<text xml:space="preserve" text-anchor="middle" x="776" y="-557.05" font-family="Arial" font-size="11.00">I want to transaction audit trails</text>
<text xml:space="preserve" text-anchor="middle" x="776" y="-543.55" font-family="Arial" font-size="11.00">for accountability</text>
</g>
<!-- S3_3&#45;&gt;S3_4 -->
<!-- S4_2 -->
<g id="node21" class="node">
<title>S4_2</title>
<polygon fill="white" stroke="black" points="190,-691.5 16,-691.5 16,-643 196,-643 196,-685.5 190,-691.5"/>
<polyline fill="none" stroke="black" points="190,-691.5 190,-685.5"/>
<polyline fill="none" stroke="black" points="196,-685.5 190,-685.5"/>
<text xml:space="preserve" text-anchor="middle" x="106" y="-677.05" font-family="Arial" font-size="11.00">As staff,</text>
<text xml:space="preserve" text-anchor="middle" x="106" y="-663.55" font-family="Arial" font-size="11.00">I want membership validation</text>
<text xml:space="preserve" text-anchor="middle" x="106" y="-650.05" font-family="Arial" font-size="11.00">to prevent expired access</text>
</g>
<!-- S4_1&#45;&gt;S4_2 -->
<!-- S4_3 -->
<g id="node22" class="node">
<title>S4_3</title>
<polygon fill="white" stroke="black" points="190,-585 16,-585 16,-536.5 196,-536.5 196,-579 190,-585"/>
<polyline fill="none" stroke="black" points="190,-585 190,-579"/>
<polyline fill="none" stroke="black" points="196,-579 190,-579"/>
<text xml:space="preserve" text-anchor="middle" x="106" y="-570.55" font-family="Arial" font-size="11.00">As staff,</text>
<text xml:space="preserve" text-anchor="middle" x="106" y="-557.05" font-family="Arial" font-size="11.00">I want to record check&#45;outs</text>
<text xml:space="preserve" text-anchor="middle" x="106" y="-543.55" font-family="Arial" font-size="11.00">for session tracking</text>
</g>
<!-- S4_2&#45;&gt;S4_3 -->
<!-- S4_4 -->
<g id="node23" class="node">
<title>S4_4</title>
<polygon fill="white" stroke="black" points="190,-467.25 16,-467.25 16,-418.75 196,-418.75 196,-461.25 190,-467.25"/>
<polyline fill="none" stroke="black" points="190,-467.25 190,-461.25"/>
<polyline fill="none" stroke="black" points="196,-461.25 190,-461.25"/>
<text xml:space="preserve" text-anchor="middle" x="106" y="-452.8" font-family="Arial" font-size="11.00">As owner,</text>
<text xml:space="preserve" text-anchor="middle" x="106" y="-439.3" font-family="Arial" font-size="11.00">I want daily check&#45;in limits</text>
<text xml:space="preserve" text-anchor="middle" x="106" y="-425.8" font-family="Arial" font-size="11.00">to prevent abuse</text>
</g>
<!-- S4_3&#45;&gt;S4_4 -->
<!-- S5_2 -->
<g id="node25" class="node">
<title>S5_2</title>
<polygon fill="white" stroke="black" points="636,-585 462,-585 462,-536.5 642,-536.5 642,-579 636,-585"/>
<polyline fill="none" stroke="black" points="636,-585 636,-579"/>
<polyline fill="none" stroke="black" points="642,-579 636,-579"/>
<text xml:space="preserve" text-anchor="middle" x="552" y="-570.55" font-family="Arial" font-size="11.00">As owner,</text>
<text xml:space="preserve" text-anchor="middle" x="552" y="-557.05" font-family="Arial" font-size="11.00">I want membership trends</text>
<text xml:space="preserve" text-anchor="middle" x="552" y="-543.55" font-family="Arial" font-size="11.00">for growth tracking</text>
</g>
<!-- S5_1&#45;&gt;S5_2 -->
<!-- S5_3 -->
<g id="node26" class="node">
<title>S5_3</title>
<polygon fill="white" stroke="black" points="636,-467.25 462,-467.25 462,-418.75 642,-418.75 642,-461.25 636,-467.25"/>
<polyline fill="none" stroke="black" points="636,-467.25 636,-461.25"/>
<polyline fill="none" stroke="black" points="642,-461.25 636,-461.25"/>
<text xml:space="preserve" text-anchor="middle" x="552" y="-452.8" font-family="Arial" font-size="11.00">As owner,</text>
<text xml:space="preserve" text-anchor="middle" x="552" y="-439.3" font-family="Arial" font-size="11.00">I want revenue reports</text>
<text xml:space="preserve" text-anchor="middle" x="552" y="-425.8" font-family="Arial" font-size="11.00">for financial planning</text>
</g>
<!-- S5_2&#45;&gt;S5_3 -->
<!-- S5_4 -->
<g id="node27" class="node">
<title>S5_4</title>
<polygon fill="white" stroke="black" points="636,-338.25 462,-338.25 462,-289.75 642,-289.75 642,-332.25 636,-338.25"/>
<polyline fill="none" stroke="black" points="636,-338.25 636,-332.25"/>
<polyline fill="none" stroke="black" points="642,-332.25 636,-332.25"/>
<text xml:space="preserve" text-anchor="middle" x="552" y="-323.8" font-family="Arial" font-size="11.00">As owner,</text>
<text xml:space="preserve" text-anchor="middle" x="552" y="-310.3" font-family="Arial" font-size="11.00">I want facility usage data</text>
<text xml:space="preserve" text-anchor="middle" x="552" y="-296.8" font-family="Arial" font-size="11.00">for peak hour identification</text>
</g>
<!-- S5_3&#45;&gt;S5_4 -->
<!-- S6_2 -->
<g id="node29" class="node">
<title>S6_2</title>
<polygon fill="white" stroke="black" points="413,-467.25 239,-467.25 239,-418.75 419,-418.75 419,-461.25 413,-467.25"/>
<polyline fill="none" stroke="black" points="413,-467.25 413,-461.25"/>
<polyline fill="none" stroke="black" points="419,-461.25 413,-461.25"/>
<text xml:space="preserve" text-anchor="middle" x="329" y="-452.8" font-family="Arial" font-size="11.00">As owner,</text>
<text xml:space="preserve" text-anchor="middle" x="329" y="-439.3" font-family="Arial" font-size="11.00">I want to configure pricing tiers</text>
<text xml:space="preserve" text-anchor="middle" x="329" y="-425.8" font-family="Arial" font-size="11.00">for flexible offerings</text>
</g>
<!-- S6_1&#45;&gt;S6_2 -->
<!-- S6_3 -->
<g id="node30" class="node">
<title>S6_3</title>
<polygon fill="white" stroke="black" points="413,-338.25 239,-338.25 239,-289.75 419,-289.75 419,-332.25 413,-338.25"/>
<polyline fill="none" stroke="black" points="413,-338.25 413,-332.25"/>
<polyline fill="none" stroke="black" points="419,-332.25 413,-332.25"/>
<text xml:space="preserve" text-anchor="middle" x="329" y="-323.8" font-family="Arial" font-size="11.00">As owner,</text>
<text xml:space="preserve" text-anchor="middle" x="329" y="-310.3" font-family="Arial" font-size="11.00">I want audit logs</text>
<text xml:space="preserve" text-anchor="middle" x="329" y="-296.8" font-family="Arial" font-size="11.00">for accountability</text>
</g>
<!-- S6_2&#45;&gt;S6_3 -->
<!-- P2 -->
<g id="node32" class="node">
<title>P2</title>
<polygon fill="#ffd700" stroke="black" points="1185.62,-349.5 1074.38,-349.5 1074.38,-278.5 1185.62,-278.5 1185.62,-349.5"/>
<text xml:space="preserve" text-anchor="middle" x="1130" y="-336.95" font-family="Arial" font-size="9.00">Phase 2 (Should Have)</text>
<text xml:space="preserve" text-anchor="middle" x="1130" y="-326.45" font-family="Arial" font-size="9.00">• Advanced Search</text>
<text xml:space="preserve" text-anchor="middle" x="1130" y="-315.95" font-family="Arial" font-size="9.00">• Check&#45;out Tracking</text>
<text xml:space="preserve" text-anchor="middle" x="1130" y="-305.45" font-family="Arial" font-size="9.00">• Analytics Charts</text>
<text xml:space="preserve" text-anchor="middle" x="1130" y="-294.95" font-family="Arial" font-size="9.00">• Staff Management</text>
<text xml:space="preserve" text-anchor="middle" x="1130" y="-284.45" font-family="Arial" font-size="9.00">• Audit Logs</text>
</g>
<!-- P1&#45;&gt;P2 -->
<!-- P3 -->
<g id="node33" class="node">
<title>P3</title>
<polygon fill="#87ceeb" stroke="black" points="1187.5,-220.5 1072.5,-220.5 1072.5,-149.5 1187.5,-149.5 1187.5,-220.5"/>
<text xml:space="preserve" text-anchor="middle" x="1130" y="-207.95" font-family="Arial" font-size="9.00">Future (Nice to Have)</text>
<text xml:space="preserve" text-anchor="middle" x="1130" y="-197.45" font-family="Arial" font-size="9.00">• Mobile App</text>
<text xml:space="preserve" text-anchor="middle" x="1130" y="-186.95" font-family="Arial" font-size="9.00">• Email Notifications</text>
<text xml:space="preserve" text-anchor="middle" x="1130" y="-176.45" font-family="Arial" font-size="9.00">• Advanced Reports</text>
<text xml:space="preserve" text-anchor="middle" x="1130" y="-165.95" font-family="Arial" font-size="9.00">• Inventory Management</text>
<text xml:space="preserve" text-anchor="middle" x="1130" y="-155.45" font-family="Arial" font-size="9.00">• Class Scheduling</text>
</g>
<!-- P2&#45;&gt;P3 -->
<!-- Notes -->
<g id="node39" class="node">
<title>Notes</title>
<polygon fill="lightyellow" stroke="black" points="1169.88,-91.5 1084.12,-91.5 1084.12,0 1175.88,0 1175.88,-85.5 1169.88,-91.5"/>
<polyline fill="none" stroke="black" points="1169.88,-91.5 1169.88,-85.5"/>
<polyline fill="none" stroke="black" points="1175.88,-85.5 1169.88,-85.5"/>
<text xml:space="preserve" text-anchor="middle" x="1130" y="-78.95" font-family="Arial" font-size="9.00">User Story Format:</text>
<text xml:space="preserve" text-anchor="middle" x="1130" y="-68.45" font-family="Arial" font-size="9.00">As a [role],</text>
<text xml:space="preserve" text-anchor="middle" x="1130" y="-57.95" font-family="Arial" font-size="9.00">I want to [action],</text>
<text xml:space="preserve" text-anchor="middle" x="1130" y="-47.45" font-family="Arial" font-size="9.00">So that [benefit]</text>
<text xml:space="preserve" text-anchor="middle" x="1130" y="-26.95" font-family="Arial" font-size="9.00">Total Stories: 23</text>
<text xml:space="preserve" text-anchor="middle" x="1130" y="-16.45" font-family="Arial" font-size="9.00">Epics: 6</text>
<text xml:space="preserve" text-anchor="middle" x="1130" y="-5.95" font-family="Arial" font-size="9.00">MVP Stories: 8</text>
</g>
<!-- P3&#45;&gt;Notes -->
<!-- L1 -->
<g id="node34" class="node">
<title>L1</title>
<path fill="lightblue" stroke="black" d="M1350.25,-1293C1350.25,-1293 1281.75,-1293 1281.75,-1293 1275.75,-1293 1269.75,-1287 1269.75,-1281 1269.75,-1281 1269.75,-1269 1269.75,-1269 1269.75,-1263 1275.75,-1257 1281.75,-1257 1281.75,-1257 1350.25,-1257 1350.25,-1257 1356.25,-1257 1362.25,-1263 1362.25,-1269 1362.25,-1269 1362.25,-1281 1362.25,-1281 1362.25,-1287 1356.25,-1293 1350.25,-1293"/>
<text xml:space="preserve" text-anchor="middle" x="1316" y="-1271.7" font-family="Arial" font-size="9.00">User Activity (Epic)</text>
</g>
<!-- L2 -->
<g id="node35" class="node">
<title>L2</title>
<polygon fill="white" stroke="black" points="1354.38,-1199 1271.62,-1199 1271.62,-1163 1360.38,-1163 1360.38,-1193 1354.38,-1199"/>
<polyline fill="none" stroke="black" points="1354.38,-1199 1354.38,-1193"/>
<polyline fill="none" stroke="black" points="1360.38,-1193 1354.38,-1193"/>
<text xml:space="preserve" text-anchor="middle" x="1316" y="-1182.95" font-family="Arial" font-size="9.00">User Story</text>
<text xml:space="preserve" text-anchor="middle" x="1316" y="-1172.45" font-family="Arial" font-size="9.00">(I want... so that...)</text>
</g>
<!-- L1&#45;&gt;L2 -->
<!-- L3 -->
<g id="node36" class="node">
<title>L3</title>
<polygon fill="#90ee90" stroke="black" points="1349.12,-1105 1282.88,-1105 1282.88,-1069 1349.12,-1069 1349.12,-1105"/>
<text xml:space="preserve" text-anchor="middle" x="1316" y="-1083.7" font-family="Arial" font-size="9.00">MVP Priority</text>
</g>
<!-- L2&#45;&gt;L3 -->
<!-- L4 -->
<g id="node37" class="node">
<title>L4</title>
<polygon fill="#ffd700" stroke="black" points="1356.25,-1004.75 1275.75,-1004.75 1275.75,-968.75 1356.25,-968.75 1356.25,-1004.75"/>
<text xml:space="preserve" text-anchor="middle" x="1316" y="-983.45" font-family="Arial" font-size="9.00">Phase 2 Priority</text>
</g>
<!-- L3&#45;&gt;L4 -->
<!-- L5 -->
<g id="node38" class="node">
<title>L5</title>
<polygon fill="#87ceeb" stroke="black" points="1366.75,-898.25 1265.25,-898.25 1265.25,-862.25 1366.75,-862.25 1366.75,-898.25"/>
<text xml:space="preserve" text-anchor="middle" x="1316" y="-876.95" font-family="Arial" font-size="9.00">Future Enhancement</text>
</g>
<!-- L4&#45;&gt;L5 -->
</g>
</svg>
